OpenSans-Light.ufo
<glyph name="exclam" format="2">
  <advance width="492.25"/>
  <unicode hex="0021"/>
  <outline>
    <contour>
      <point x="285.25" y="377.0" type="line"/>
      <point x="306.875" y="1462.0" type="line"/>
      <point x="187.875" y="1462.0" type="line"/>
      <point x="209.5" y="377.0" type="line"/>
    </contour>
    <contour>
      <point x="163.875" y="71.0" type="curve" smooth="yes"/>
      <point x="163.875" y="12.0"/>
      <point x="191.125" y="-20.875"/>
      <point x="243.375" y="-20.875" type="curve" smooth="yes"/>
      <point x="299.5" y="-20.875"/>
      <point x="326.0" y="12.0"/>
      <point x="326.0" y="71.0" type="curve" smooth="yes"/>
      <point x="326.0" y="129.125"/>
      <point x="299.5" y="162.375"/>
      <point x="243.375" y="162.375" type="curve" smooth="yes"/>
      <point x="191.125" y="162.375"/>
      <point x="163.875" y="129.125"/>
    </contour>
  </outline>
</glyph>
<glyph name="quotedbl" format="2">
  <advance width="722.875"/>
  <unicode hex="0022"/>
  <outline>
    <contour>
      <point x="252.375" y="1462.0" type="line"/>
      <point x="143.625" y="1462.0" type="line"/>
      <point x="164.0" y="934.0" type="line"/>
      <point x="232.0" y="934.0" type="line"/>
    </contour>
    <contour>
      <point x="579.5" y="1462.0" type="line"/>
      <point x="471.125" y="1462.0" type="line"/>
      <point x="491.5" y="934.0" type="line"/>
      <point x="559.5" y="934.0" type="line"/>
    </contour>
  </outline>
</glyph>
<glyph name="numbersign" format="2">
  <advance width="1323.0"/>
  <unicode hex="0023"/>
  <outline>
    <contour>
      <point x="966.125" y="926.125" type="line"/>
      <point x="1267.5" y="926.125" type="line"/>
      <point x="1267.5" y="1007.375" type="line"/>
      <point x="981.875" y="1007.375" type="line"/>
      <point x="1068.875" y="1462.0" type="line"/>
      <point x="983.75" y="1462.0" type="line"/>
      <point x="896.125" y="1007.375" type="line"/>
      <point x="531.125" y="1007.375" type="line"/>
      <point x="618.125" y="1462.0" type="line"/>
      <point x="531.125" y="1462.0" type="line"/>
      <point x="444.125" y="1007.375" type="line"/>
      <point x="133.25" y="1007.375" type="line"/>
      <point x="133.25" y="926.125" type="line"/>
      <point x="429.125" y="926.125" type="line"/>
      <point x="352.25" y="533.125" type="line"/>
      <point x="54.75" y="533.125" type="line"/>
      <point x="54.75" y="451.125" type="line"/>
      <point x="337.125" y="451.125" type="line"/>
      <point x="251.625" y="0.0" type="line"/>
      <point x="337.5" y="0.0" type="line"/>
      <point x="424.375" y="451.125" type="line"/>
      <point x="788.625" y="451.125" type="line"/>
      <point x="700.875" y="0.0" type="line"/>
      <point x="787.125" y="0.0" type="line"/>
      <point x="874.875" y="451.125" type="line"/>
      <point x="1191.25" y="451.125" type="line"/>
      <point x="1191.25" y="533.125" type="line"/>
      <point x="890.0" y="533.125" type="line"/>
    </contour>
    <contour>
      <point x="439.125" y="533.125" type="line"/>
      <point x="515.625" y="926.125" type="line"/>
      <point x="879.875" y="926.125" type="line"/>
      <point x="803.375" y="533.125" type="line"/>
    </contour>
  </outline>
</glyph>
<glyph name="dollar" format="2">
  <advance width="1169"/>
  <unicode hex="0024"/>
  <outline>
    <contour>
      <point x="518" y="-119" type="line"/>
      <point x="598" y="-119" type="line"/>
      <point x="598" y="53" type="line"/>
      <point x="838" y="71"/>
      <point x="997" y="191"/>
      <point x="997" y="407" type="curve" smooth="yes"/>
      <point x="997" y="619"/>
      <point x="843" y="695"/>
      <point x="598" y="777" type="curve"/>
      <point x="598" y="1327" type="line"/>
      <point x="694" y="1323"/>
      <point x="801" y="1300"/>
      <point x="906" y="1255" type="curve"/>
      <point x="941" y="1341" type="line"/>
      <point x="834" y="1389"/>
      <point x="721" y="1415"/>
      <point x="598" y="1417" type="curve"/>
      <point x="598" y="1554" type="line"/>
      <point x="518" y="1554" type="line"/>
      <point x="518" y="1417" type="line"/>
      <point x="290" y="1404"/>
      <point x="130" y="1286"/>
      <point x="130" y="1076" type="curve" smooth="yes"/>
      <point x="130" y="865"/>
      <point x="285" y="781"/>
      <point x="518" y="704" type="curve"/>
      <point x="518" y="142" type="line"/>
      <point x="373" y="144"/>
      <point x="227" y="176"/>
      <point x="133" y="215" type="curve"/>
      <point x="133" y="113" type="line"/>
      <point x="220" y="80"/>
      <point x="354" y="53"/>
      <point x="518" y="50" type="curve"/>
    </contour>
    <contour>
      <point x="598" y="146" type="curve"/>
      <point x="598" y="675" type="line"/>
      <point x="794" y="608"/>
      <point x="896" y="550"/>
      <point x="896" y="404" type="curve" smooth="yes"/>
      <point x="896" y="241"/>
      <point x="780" y="158"/>
    </contour>
    <contour>
      <point x="518" y="805" type="line"/>
      <point x="348" y="862"/>
      <point x="230" y="924"/>
      <point x="230" y="1084" type="curve" smooth="yes"/>
      <point x="230" y="1236"/>
      <point x="348" y="1316"/>
      <point x="518" y="1326" type="curve"/>
    </contour>
  </outline>
</glyph>
<glyph name="percent" format="2">
  <advance width="1653.25"/>
  <unicode hex="0025"/>
  <outline>
    <contour>
      <point x="401.5" y="1483.0" type="curve" smooth="yes"/>
      <point x="215.5" y="1483.0"/>
      <point x="113.125" y="1323.75"/>
      <point x="113.125" y="1026.0" type="curve" smooth="yes"/>
      <point x="113.125" y="728.25"/>
      <point x="213.75" y="565.0"/>
      <point x="399.0" y="565.0" type="curve" smooth="yes"/>
      <point x="588.125" y="565.0"/>
      <point x="691.375" y="724.5"/>
      <point x="691.375" y="1026.0" type="curve" smooth="yes"/>
      <point x="691.375" y="1320.0"/>
      <point x="595.0" y="1483.0"/>
    </contour>
    <contour>
      <point x="401.5" y="1403.5" type="curve" smooth="yes"/>
      <point x="539.125" y="1403.5"/>
      <point x="600.75" y="1271.875"/>
      <point x="600.75" y="1026.0" type="curve" smooth="yes"/>
      <point x="600.75" y="776.875"/>
      <point x="534.125" y="645.25"/>
      <point x="399.0" y="645.25" type="curve" smooth="yes"/>
      <point x="270.625" y="645.25"/>
      <point x="203.75" y="775.125"/>
      <point x="203.75" y="1026.0" type="curve" smooth="yes"/>
      <point x="203.75" y="1278.125"/>
      <point x="273.125" y="1403.5"/>
    </contour>
    <contour>
      <point x="1280.0" y="1462.0" type="line"/>
      <point x="1185.5" y="1462.0" type="line"/>
      <point x="374.5" y="0.0" type="line"/>
      <point x="469.0" y="0.0" type="line"/>
    </contour>
    <contour>
      <point x="1250.875" y="897.0" type="curve" smooth="yes"/>
      <point x="1064.5" y="897.0"/>
      <point x="961.875" y="737.75"/>
      <point x="961.875" y="440.0" type="curve" smooth="yes"/>
      <point x="961.875" y="142.625"/>
      <point x="1062.5" y="-20.0"/>
      <point x="1248.375" y="-20.0" type="curve" smooth="yes"/>
      <point x="1437.5" y="-20.0"/>
      <point x="1540.125" y="138.875"/>
      <point x="1540.125" y="440.0" type="curve" smooth="yes"/>
      <point x="1540.125" y="734.0"/>
      <point x="1443.0" y="897.0"/>
    </contour>
    <contour>
      <point x="1250.875" y="816.75" type="curve" smooth="yes"/>
      <point x="1387.875" y="816.75"/>
      <point x="1449.5" y="685.875"/>
      <point x="1449.5" y="440.0" type="curve" smooth="yes"/>
      <point x="1449.5" y="190.125"/>
      <point x="1382.875" y="60.25"/>
      <point x="1248.375" y="60.25" type="curve" smooth="yes"/>
      <point x="1119.375" y="60.25"/>
      <point x="1052.5" y="188.375"/>
      <point x="1052.5" y="440.0" type="curve" smooth="yes"/>
      <point x="1052.5" y="692.75"/>
      <point x="1121.875" y="816.75"/>
    </contour>
  </outline>
</glyph>
<glyph name="ampersand" format="2">
  <advance width="1460.875"/>
  <unicode hex="0026"/>
  <outline>
    <contour>
      <point x="623.0" y="1485.0" type="curve" smooth="yes"/>
      <point x="409.625" y="1485.0"/>
      <point x="270.375" y="1364.75"/>
      <point x="270.375" y="1174.375" type="curve" smooth="yes"/>
      <point x="270.375" y="1029.75"/>
      <point x="351.0" y="935.875"/>
      <point x="474.0" y="809.75" type="curve"/>
      <point x="250.875" y="696.25"/>
      <point x="121.5" y="593.75"/>
      <point x="121.5" y="372.25" type="curve" smooth="yes"/>
      <point x="121.5" y="119.25"/>
      <point x="303.25" y="-20.0"/>
      <point x="572.75" y="-20.0" type="curve" smooth="yes"/>
      <point x="810.75" y="-20.0"/>
      <point x="957.125" y="70.125"/>
      <point x="1084.875" y="198.875" type="curve"/>
      <point x="1277.875" y="0.0" type="line"/>
      <point x="1414.375" y="0.0" type="line"/>
      <point x="1151.0" y="265.375" type="line"/>
      <point x="1247.375" y="381.75"/>
      <point x="1317.0" y="523.125"/>
      <point x="1357.5" y="694.125" type="curve"/>
      <point x="1254.875" y="694.125" type="line"/>
      <point x="1222.625" y="550.75"/>
      <point x="1163.5" y="425.25"/>
      <point x="1085.875" y="332.875" type="curve"/>
      <point x="626.5" y="791.625" type="line"/>
      <point x="822.625" y="892.5"/>
      <point x="955.125" y="999.5"/>
      <point x="955.125" y="1182.125" type="curve" smooth="yes"/>
      <point x="955.125" y="1370.5"/>
      <point x="821.375" y="1485.0"/>
    </contour>
    <contour>
      <point x="537.625" y="744.25" type="curve"/>
      <point x="1019.875" y="263.125" type="line"/>
      <point x="909.5" y="148.75"/>
      <point x="781.875" y="71.5"/>
      <point x="575.0" y="71.5" type="curve" smooth="yes"/>
      <point x="366.0" y="71.5"/>
      <point x="226.375" y="184.25"/>
      <point x="226.375" y="374.5" type="curve" smooth="yes"/>
      <point x="226.375" y="561.875"/>
      <point x="337.5" y="643.75"/>
    </contour>
    <contour>
      <point x="620.375" y="1397.625" type="curve" smooth="yes"/>
      <point x="761.375" y="1397.625"/>
      <point x="854.0" y="1313.625"/>
      <point x="854.0" y="1182.125" type="curve" smooth="yes"/>
      <point x="854.0" y="1035.875"/>
      <point x="749.375" y="945.625"/>
      <point x="559.25" y="854.25" type="curve"/>
      <point x="438.125" y="976.75"/>
      <point x="370.75" y="1060.25"/>
      <point x="370.75" y="1175.125" type="curve" smooth="yes"/>
      <point x="370.75" y="1312.125"/>
      <point x="467.0" y="1397.625"/>
    </contour>
  </outline>
</glyph>
<glyph name="parenleft" format="2">
  <advance width="556.5"/>
  <unicode hex="0028"/>
  <outline>
    <contour>
      <point x="84.5" y="561.0" type="curve" smooth="yes"/>
      <point x="84.5" y="213.5"/>
      <point x="189.125" y="-90.25"/>
      <point x="383.0" y="-324.0" type="curve"/>
      <point x="488.5" y="-324.0" type="line"/>
      <point x="288.25" y="-75.5"/>
      <point x="187.125" y="231.625"/>
      <point x="187.125" y="563.0" type="curve" smooth="yes"/>
      <point x="187.125" y="899.5"/>
      <point x="285.75" y="1215.375"/>
      <point x="489.25" y="1462.0" type="curve"/>
      <point x="383.0" y="1462.0" type="line"/>
      <point x="189.125" y="1230.875"/>
      <point x="84.5" y="913.125"/>
    </contour>
  </outline>
</glyph>
<glyph name="parenright" format="2">
  <advance width="556.5"/>
  <unicode hex="0029"/>
  <outline>
    <contour>
      <point x="473.25" y="571.625" type="curve" smooth="yes"/>
      <point x="473.25" y="920.625"/>
      <point x="369.25" y="1225.875"/>
      <point x="174.75" y="1462.0" type="curve"/>
      <point x="69.125" y="1462.0" type="line"/>
      <point x="270.125" y="1214.125"/>
      <point x="370.625" y="904.5"/>
      <point x="370.625" y="570.5" type="curve" smooth="yes"/>
      <point x="370.625" y="236.625"/>
      <point x="272.625" y="-76.75"/>
      <point x="69.875" y="-324.0" type="curve"/>
      <point x="174.75" y="-324.0" type="line"/>
      <point x="369.25" y="-95.25"/>
      <point x="473.25" y="221.0"/>
    </contour>
  </outline>
</glyph>
<glyph name="asterisk" format="2">
  <advance width="1128"/>
  <unicode hex="002A"/>
  <outline>
    <contour>
      <point x="615" y="1554" type="line"/>
      <point x="503" y="1554" type="line"/>
      <point x="528" y="1142" type="line"/>
      <point x="133" y="1273" type="line"/>
      <point x="111" y="1168" type="line"/>
      <point x="504" y="1083" type="line"/>
      <point x="254" y="753" type="line"/>
      <point x="352" y="696" type="line"/>
      <point x="558" y="1047" type="line"/>
      <point x="772" y="695" type="line"/>
      <point x="868" y="753" type="line"/>
      <point x="617" y="1083" type="line"/>
      <point x="1008" y="1168" type="line"/>
      <point x="988" y="1273" type="line"/>
      <point x="591" y="1142" type="line"/>
    </contour>
  </outline>
</glyph>
<glyph name="plus" format="2">
  <advance width="1169"/>
  <unicode hex="002B"/>
  <outline>
    <contour>
      <point x="626" y="766" type="line"/>
      <point x="626" y="1203" type="line"/>
      <point x="541" y="1203" type="line"/>
      <point x="541" y="766" type="line"/>
      <point x="109" y="766" type="line"/>
      <point x="109" y="680" type="line"/>
      <point x="541" y="680" type="line"/>
      <point x="541" y="243" type="line"/>
      <point x="626" y="243" type="line"/>
      <point x="626" y="680" type="line"/>
      <point x="1059" y="680" type="line"/>
      <point x="1059" y="766" type="line"/>
    </contour>
  </outline>
</glyph>
<glyph name="comma" format="2">
  <advance width="440.25"/>
  <unicode hex="002C"/>
  <outline>
    <contour>
      <point x="298.375" y="238.0" type="line"/>
      <point x="190.375" y="238.0" type="line"/>
      <point x="168.5" y="86.5"/>
      <point x="131.75" y="-82.125"/>
      <point x="80.25" y="-264.0" type="curve"/>
      <point x="158.25" y="-264.0" type="line"/>
      <point x="218.625" y="-120.75"/>
      <point x="274.125" y="64.375"/>
      <point x="307.375" y="213.75" type="curve"/>
    </contour>
  </outline>
</glyph>
<glyph name="hyphen" format="2">
  <advance width="659"/>
  <unicode hex="002D"/>
  <outline>
    <contour>
      <point x="82" y="507" type="line"/>
      <point x="578" y="507" type="line"/>
      <point x="578" y="600" type="line"/>
      <point x="82" y="600" type="line"/>
    </contour>
  </outline>
</glyph>
<glyph name="period" format="2">
  <advance width="488"/>
  <unicode hex="002E"/>
  <outline>
    <contour>
      <point x="164" y="71" type="curve" smooth="yes"/>
      <point x="164" y="12"/>
      <point x="191" y="-21"/>
      <point x="243" y="-21" type="curve" smooth="yes"/>
      <point x="300" y="-21"/>
      <point x="326" y="12"/>
      <point x="326" y="71" type="curve" smooth="yes"/>
      <point x="326" y="129"/>
      <point x="300" y="162"/>
      <point x="243" y="162" type="curve" smooth="yes"/>
      <point x="191" y="162"/>
      <point x="164" y="129"/>
    </contour>
  </outline>
</glyph>
<glyph name="slash" format="2">
  <advance width="698"/>
  <unicode hex="002F"/>
  <outline>
    <contour>
      <point x="674" y="1462" type="line"/>
      <point x="571" y="1462" type="line"/>
      <point x="24" y="0" type="line"/>
      <point x="126" y="0" type="line"/>
    </contour>
  </outline>
</glyph>
<glyph name="zero" format="2">
  <advance width="1169"/>
  <unicode hex="0030"/>
  <outline>
    <contour>
      <point x="1050" y="736" type="curve" smooth="yes"/>
      <point x="1050" y="1188"/>
      <point x="925" y="1485"/>
      <point x="585" y="1485" type="curve" smooth="yes"/>
      <point x="242" y="1485"/>
      <point x="117" y="1179"/>
      <point x="117" y="736" type="curve" smooth="yes"/>
      <point x="117" y="237"/>
      <point x="280" y="-20"/>
      <point x="584" y="-20" type="curve" smooth="yes"/>
      <point x="905" y="-20"/>
      <point x="1050" y="245"/>
    </contour>
    <contour>
      <point x="219" y="736" type="curve" smooth="yes"/>
      <point x="219" y="1138"/>
      <point x="310" y="1395"/>
      <point x="585" y="1395" type="curve" smooth="yes"/>
      <point x="864" y="1395"/>
      <point x="948" y="1147"/>
      <point x="948" y="736" type="curve" smooth="yes"/>
      <point x="948" y="286"/>
      <point x="841" y="69"/>
      <point x="584" y="69" type="curve" smooth="yes"/>
      <point x="334" y="69"/>
      <point x="219" y="285"/>
    </contour>
  </outline>
</glyph>
<glyph name="one" format="2">
  <advance width="1168.5"/>
  <unicode hex="0031"/>
  <outline>
    <contour>
      <point x="682.0" y="0.0" type="line"/>
      <point x="682.0" y="1462.0" type="line"/>
      <point x="596.75" y="1462.0" type="line"/>
      <point x="198.875" y="1165.0" type="line"/>
      <point x="254.75" y="1092.75" type="line"/>
      <point x="470.75" y="1257.25" type="line" smooth="yes"/>
      <point x="522.5" y="1298.5"/>
      <point x="550.375" y="1319.625"/>
      <point x="587.125" y="1354.625" type="curve"/>
      <point x="583.625" y="1291.0"/>
      <point x="582.875" y="1220.875"/>
      <point x="582.875" y="1103.875" type="curve" smooth="yes"/>
      <point x="582.875" y="0.0" type="line"/>
    </contour>
  </outline>
</glyph>
<glyph name="two" format="2">
  <advance width="1168.5"/>
  <unicode hex="0032"/>
  <outline>
    <contour>
      <point x="1028.125" y="0.0" type="line"/>
      <point x="1028.125" y="93.375" type="line"/>
      <point x="244.125" y="93.375" type="line"/>
      <point x="244.125" y="97.625" type="line"/>
      <point x="624.75" y="492.375" type="line" smooth="yes"/>
      <point x="832.875" y="705.125"/>
      <point x="963.5" y="860.25"/>
      <point x="963.5" y="1100.25" type="curve" smooth="yes"/>
      <point x="963.5" y="1331.25"/>
      <point x="802.25" y="1483.0"/>
      <point x="554.25" y="1483.0" type="curve" smooth="yes"/>
      <point x="411.375" y="1483.0"/>
      <point x="266.5" y="1430.125"/>
      <point x="145.625" y="1329.75" type="curve"/>
      <point x="201.0" y="1258.75" type="line"/>
      <point x="310.875" y="1347.375"/>
      <point x="427.5" y="1393.375"/>
      <point x="554.25" y="1393.375" type="curve" smooth="yes"/>
      <point x="742.625" y="1393.375"/>
      <point x="859.75" y="1284.25"/>
      <point x="859.75" y="1096.125" type="curve" smooth="yes"/>
      <point x="859.75" y="880.0"/>
      <point x="748.75" y="747.375"/>
      <point x="542.875" y="533.875" type="curve" smooth="yes"/>
      <point x="112.375" y="85.625" type="line"/>
      <point x="112.375" y="0.0" type="line"/>
    </contour>
  </outline>
</glyph>
<glyph name="three" format="2">
  <advance width="1168.5"/>
  <unicode hex="0033"/>
  <outline>
    <contour>
      <point x="980.625" y="1125.0" type="curve" smooth="yes"/>
      <point x="980.625" y="1345.875"/>
      <point x="822.625" y="1483.0"/>
      <point x="558.25" y="1483.0" type="curve" smooth="yes"/>
      <point x="371.875" y="1483.0"/>
      <point x="222.5" y="1419.25"/>
      <point x="108.125" y="1331.0" type="curve"/>
      <point x="159.375" y="1258.0" type="line"/>
      <point x="283.375" y="1345.0"/>
      <point x="404.125" y="1394.125"/>
      <point x="559.0" y="1394.125" type="curve" smooth="yes"/>
      <point x="751.125" y="1394.125"/>
      <point x="876.25" y="1301.5"/>
      <point x="876.25" y="1120.5" type="curve" smooth="yes"/>
      <point x="876.25" y="910.125"/>
      <point x="703.625" y="802.875"/>
      <point x="477.75" y="802.875" type="curve" smooth="yes"/>
      <point x="317.5" y="802.875" type="line"/>
      <point x="317.5" y="713.625" type="line"/>
      <point x="477.0" y="713.625" type="line" smooth="yes"/>
      <point x="744.375" y="713.625"/>
      <point x="919.75" y="627.625"/>
      <point x="919.75" y="405.625" type="curve" smooth="yes"/>
      <point x="919.75" y="198.75"/>
      <point x="784.875" y="68.5"/>
      <point x="502.25" y="68.5" type="curve" smooth="yes"/>
      <point x="358.125" y="68.5"/>
      <point x="205.0" y="107.25"/>
      <point x="94.5" y="162.0" type="curve"/>
      <point x="94.5" y="63.375" type="line"/>
      <point x="205.5" y="10.0"/>
      <point x="342.5" y="-20.0"/>
      <point x="501.5" y="-20.0" type="curve" smooth="yes"/>
      <point x="851.625" y="-20.0"/>
      <point x="1025.625" y="156.25"/>
      <point x="1025.625" y="404.125" type="curve" smooth="yes"/>
      <point x="1025.625" y="611.75"/>
      <point x="901.875" y="733.0"/>
      <point x="672.0" y="763.25" type="curve"/>
      <point x="672.0" y="768.75" type="line"/>
      <point x="852.25" y="802.0"/>
      <point x="980.625" y="931.5"/>
    </contour>
  </outline>
</glyph>
<glyph name="four" format="2">
  <advance width="1168.5"/>
  <unicode hex="0034"/>
  <outline>
    <contour>
      <point x="1140.625" y="372.625" type="line"/>
      <point x="1140.625" y="465.875" type="line"/>
      <point x="889.25" y="465.875" type="line"/>
      <point x="889.25" y="1470.0" type="line"/>
      <point x="783.5" y="1470.0" type="line"/>
      <point x="48.0" y="453.125" type="line"/>
      <point x="48.0" y="372.625" type="line"/>
      <point x="790.5" y="372.625" type="line"/>
      <point x="790.5" y="0.0" type="line"/>
      <point x="889.25" y="0.0" type="line"/>
      <point x="889.25" y="372.625" type="line"/>
    </contour>
    <contour>
      <point x="790.5" y="465.875" type="line"/>
      <point x="159.0" y="465.875" type="line"/>
      <point x="675.125" y="1176.75" type="line" smooth="yes"/>
      <point x="724.75" y="1244.625"/>
      <point x="752.375" y="1292.0"/>
      <point x="790.0" y="1357.375" type="curve"/>
      <point x="795.875" y="1357.375" type="line"/>
      <point x="793.125" y="1258.0"/>
      <point x="790.5" y="1191.625"/>
      <point x="790.5" y="1028.375" type="curve" smooth="yes"/>
    </contour>
  </outline>
</glyph>
<glyph name="five" format="2">
  <advance width="1168.5"/>
  <unicode hex="0035"/>
  <outline>
    <contour>
      <point x="561.75" y="881.375" type="curve" smooth="yes"/>
      <point x="438.875" y="881.375"/>
      <point x="348.125" y="861.125"/>
      <point x="288.0" y="847.125" type="curve"/>
      <point x="333.0" y="1368.625" type="line"/>
      <point x="948.25" y="1368.625" type="line"/>
      <point x="948.25" y="1462.0" type="line"/>
      <point x="245.875" y="1462.0" type="line"/>
      <point x="187.125" y="792.625" type="line"/>
      <point x="245.25" y="751.875" type="line"/>
      <point x="329.875" y="775.25"/>
      <point x="431.0" y="792.5"/>
      <point x="539.625" y="792.5" type="curve" smooth="yes"/>
      <point x="806.75" y="792.5"/>
      <point x="938.125" y="663.375"/>
      <point x="938.125" y="445.875" type="curve" smooth="yes"/>
      <point x="938.125" y="202.375"/>
      <point x="770.0" y="69.25"/>
      <point x="515.0" y="69.25" type="curve" smooth="yes"/>
      <point x="373.5" y="69.25"/>
      <point x="237.625" y="108.75"/>
      <point x="143.375" y="165.25" type="curve"/>
      <point x="143.375" y="63.375" type="line"/>
      <point x="230.875" y="12.25"/>
      <point x="359.75" y="-20.0"/>
      <point x="514.25" y="-20.0" type="curve" smooth="yes"/>
      <point x="835.125" y="-20.0"/>
      <point x="1041.875" y="159.0"/>
      <point x="1041.875" y="452.625" type="curve" smooth="yes"/>
      <point x="1041.875" y="726.5"/>
      <point x="857.0" y="881.375"/>
    </contour>
  </outline>
</glyph>
<glyph name="six" format="2">
  <advance width="1168.5"/>
  <unicode hex="0036"/>
  <outline>
    <contour>
      <point x="129.25" y="622.5" type="curve" smooth="yes"/>
      <point x="129.25" y="261.625"/>
      <point x="290.75" y="-20.0"/>
      <point x="611.25" y="-20.0" type="curve" smooth="yes"/>
      <point x="892.5" y="-20.0"/>
      <point x="1060.0" y="172.25"/>
      <point x="1060.0" y="464.75" type="curve" smooth="yes"/>
      <point x="1060.0" y="737.125"/>
      <point x="897.5" y="905.0"/>
      <point x="633.5" y="905.0" type="curve" smooth="yes"/>
      <point x="420.0" y="905.0"/>
      <point x="292.625" y="798.75"/>
      <point x="236.25" y="690.5" type="curve"/>
      <point x="228.625" y="690.5" type="line"/>
      <point x="242.0" y="1157.375"/>
      <point x="420.5" y="1398.125"/>
      <point x="764.75" y="1398.125" type="curve" smooth="yes"/>
      <point x="839.25" y="1398.125"/>
      <point x="906.75" y="1387.0"/>
      <point x="956.125" y="1369.75" type="curve"/>
      <point x="956.125" y="1461.5" type="line"/>
      <point x="904.875" y="1477.0"/>
      <point x="836.25" y="1485.5"/>
      <point x="763.25" y="1485.5" type="curve" smooth="yes"/>
      <point x="337.25" y="1485.5"/>
      <point x="129.25" y="1169.625"/>
    </contour>
    <contour>
      <point x="610.5" y="68.5" type="curve" smooth="yes"/>
      <point x="326.0" y="68.5"/>
      <point x="238.75" y="352.375"/>
      <point x="238.75" y="519.75" type="curve" smooth="yes"/>
      <point x="238.75" y="654.375"/>
      <point x="384.5" y="820.25"/>
      <point x="619.625" y="820.25" type="curve" smooth="yes"/>
      <point x="846.125" y="820.25"/>
      <point x="958.25" y="683.875"/>
      <point x="958.25" y="464.75" type="curve" smooth="yes"/>
      <point x="958.25" y="211.875"/>
      <point x="830.0" y="68.5"/>
    </contour>
  </outline>
</glyph>
<glyph name="seven" format="2">
  <advance width="1168.5"/>
  <unicode hex="0037"/>
  <outline>
    <contour>
      <point x="339.0" y="0.0" type="line"/>
      <point x="450.125" y="0.0" type="line"/>
      <point x="1054.125" y="1388.0" type="line"/>
      <point x="1054.125" y="1462.0" type="line"/>
      <point x="108.125" y="1462.0" type="line"/>
      <point x="108.125" y="1368.625" type="line"/>
      <point x="944.0" y="1368.625" type="line"/>
    </contour>
  </outline>
</glyph>
<glyph name="eight" format="2">
  <advance width="1168.5"/>
  <unicode hex="0038"/>
  <outline>
    <contour>
      <point x="581.5" y="1483.0" type="curve" smooth="yes"/>
      <point x="340.25" y="1483.0"/>
      <point x="166.375" y="1353.0"/>
      <point x="166.375" y="1141.25" type="curve" smooth="yes"/>
      <point x="166.375" y="946.5"/>
      <point x="303.75" y="848.5"/>
      <point x="472.375" y="774.0" type="curve"/>
      <point x="267.625" y="697.5"/>
      <point x="119.375" y="577.875"/>
      <point x="119.375" y="363.625" type="curve" smooth="yes"/>
      <point x="119.375" y="130.0"/>
      <point x="298.375" y="-20.0"/>
      <point x="578.125" y="-20.0" type="curve" smooth="yes"/>
      <point x="847.25" y="-20.0"/>
      <point x="1044.625" y="125.5"/>
      <point x="1044.625" y="374.0" type="curve" smooth="yes"/>
      <point x="1044.625" y="580.5"/>
      <point x="899.625" y="694.75"/>
      <point x="680.5" y="779.0" type="curve"/>
      <point x="866.875" y="859.5"/>
      <point x="996.375" y="964.125"/>
      <point x="996.375" y="1143.0" type="curve" smooth="yes"/>
      <point x="996.375" y="1358.75"/>
      <point x="830.625" y="1483.0"/>
    </contour>
    <contour>
      <point x="219.75" y="362.875" type="curve" smooth="yes"/>
      <point x="219.75" y="556.25"/>
      <point x="363.625" y="655.75"/>
      <point x="566.75" y="730.0" type="curve"/>
      <point x="615.375" y="712.375" type="line" smooth="yes"/>
      <point x="824.5" y="635.375"/>
      <point x="944.25" y="537.375"/>
      <point x="944.25" y="373.25" type="curve" smooth="yes"/>
      <point x="944.25" y="177.0"/>
      <point x="797.125" y="65.5"/>
      <point x="576.625" y="65.5" type="curve" smooth="yes"/>
      <point x="354.375" y="65.5"/>
      <point x="219.75" y="183.375"/>
    </contour>
    <contour>
      <point x="580.75" y="1396.375" type="curve" smooth="yes"/>
      <point x="775.25" y="1396.375"/>
      <point x="895.25" y="1308.875"/>
      <point x="895.25" y="1140.375" type="curve" smooth="yes"/>
      <point x="895.25" y="984.0"/>
      <point x="781.75" y="900.5"/>
      <point x="588.25" y="820.875" type="curve"/>
      <point x="398.875" y="890.75"/>
      <point x="267.125" y="972.5"/>
      <point x="267.125" y="1137.875" type="curve" smooth="yes"/>
      <point x="267.125" y="1303.875"/>
      <point x="398.125" y="1396.375"/>
    </contour>
  </outline>
</glyph>
<glyph name="nine" format="2">
  <advance width="1168.5"/>
  <unicode hex="0039"/>
  <outline>
    <contour>
      <point x="1039.375" y="843.0" type="curve" smooth="yes"/>
      <point x="1039.375" y="1204.625"/>
      <point x="882.375" y="1483.0"/>
      <point x="557.75" y="1483.0" type="curve" smooth="yes"/>
      <point x="277.625" y="1483.0"/>
      <point x="108.875" y="1290.25"/>
      <point x="108.875" y="999.625" type="curve" smooth="yes"/>
      <point x="108.875" y="725.75"/>
      <point x="267.5" y="557.0"/>
      <point x="531.375" y="557.0" type="curve" smooth="yes"/>
      <point x="745.0" y="557.0"/>
      <point x="875.25" y="664.875"/>
      <point x="931.875" y="773.25" type="curve"/>
      <point x="939.25" y="773.25" type="line"/>
      <point x="926.875" y="307.625"/>
      <point x="745.625" y="64.5"/>
      <point x="403.375" y="64.5" type="curve" smooth="yes"/>
      <point x="326.75" y="64.5"/>
      <point x="246.75" y="77.0"/>
      <point x="197.125" y="94.625" type="curve"/>
      <point x="197.125" y="1.25" type="line"/>
      <point x="249.0" y="-14.0"/>
      <point x="334.25" y="-23.125"/>
      <point x="404.875" y="-23.125" type="curve" smooth="yes"/>
      <point x="831.0" y="-23.125"/>
      <point x="1039.375" y="293.625"/>
    </contour>
    <contour>
      <point x="557.75" y="1394.125" type="curve" smooth="yes"/>
      <point x="843.625" y="1394.125"/>
      <point x="929.875" y="1111.125"/>
      <point x="929.875" y="944.75" type="curve" smooth="yes"/>
      <point x="929.875" y="808.75"/>
      <point x="783.625" y="641.75"/>
      <point x="548.5" y="641.75" type="curve" smooth="yes"/>
      <point x="321.0" y="641.75"/>
      <point x="210.375" y="778.625"/>
      <point x="210.375" y="1000.375" type="curve" smooth="yes"/>
      <point x="210.375" y="1251.625"/>
      <point x="339.0" y="1394.125"/>
    </contour>
  </outline>
</glyph>
<glyph name="colon" format="2">
  <advance width="487.75"/>
  <unicode hex="003A"/>
  <outline>
    <contour>
      <point x="163.875" y="71.0" type="curve" smooth="yes"/>
      <point x="163.875" y="12.0"/>
      <point x="191.125" y="-20.875"/>
      <point x="242.625" y="-20.875" type="curve" smooth="yes"/>
      <point x="299.5" y="-20.875"/>
      <point x="326.0" y="12.0"/>
      <point x="326.0" y="71.0" type="curve" smooth="yes"/>
      <point x="326.0" y="129.125"/>
      <point x="299.5" y="162.375"/>
      <point x="242.625" y="162.375" type="curve" smooth="yes"/>
      <point x="191.125" y="162.375"/>
      <point x="163.875" y="129.125"/>
    </contour>
    <contour>
      <point x="163.875" y="1011.375" type="curve" smooth="yes"/>
      <point x="163.875" y="952.75"/>
      <point x="191.125" y="919.875"/>
      <point x="242.625" y="919.875" type="curve" smooth="yes"/>
      <point x="299.5" y="919.875"/>
      <point x="326.0" y="952.75"/>
      <point x="326.0" y="1011.375" type="curve" smooth="yes"/>
      <point x="326.0" y="1070.625"/>
      <point x="299.5" y="1103.5"/>
      <point x="242.625" y="1103.5" type="curve" smooth="yes"/>
      <point x="191.125" y="1103.5"/>
      <point x="163.875" y="1070.625"/>
    </contour>
  </outline>
</glyph>
<glyph name="semicolon" format="2">
  <advance width="488"/>
  <unicode hex="003B"/>
  <outline>
    <contour>
      <point x="291" y="238" type="line"/>
      <point x="184" y="238" type="line"/>
      <point x="161" y="87"/>
      <point x="124" y="-83"/>
      <point x="72" y="-264" type="curve"/>
      <point x="152" y="-264" type="line"/>
      <point x="212" y="-121"/>
      <point x="267" y="65"/>
      <point x="301" y="214" type="curve"/>
    </contour>
    <contour>
      <point x="162" y="1011" type="curve" smooth="yes"/>
      <point x="162" y="953"/>
      <point x="190" y="920"/>
      <point x="241" y="920" type="curve" smooth="yes"/>
      <point x="299" y="920"/>
      <point x="325" y="953"/>
      <point x="325" y="1011" type="curve" smooth="yes"/>
      <point x="325" y="1071"/>
      <point x="299" y="1104"/>
      <point x="241" y="1104" type="curve" smooth="yes"/>
      <point x="190" y="1104"/>
      <point x="162" y="1071"/>
    </contour>
  </outline>
</glyph>
<glyph name="less" format="2">
  <advance width="1168.5"/>
  <unicode hex="003C"/>
  <outline>
    <contour>
      <point x="1058.25" y="266.125" type="line"/>
      <point x="1058.25" y="358.875" type="line"/>
      <point x="226.875" y="733.5" type="line"/>
      <point x="1058.25" y="1123.75" type="line"/>
      <point x="1058.25" y="1216.875" type="line"/>
      <point x="110.125" y="761.5" type="line"/>
      <point x="110.125" y="700.125" type="line"/>
    </contour>
  </outline>
</glyph>
<glyph name="equal" format="2">
  <advance width="1168.5"/>
  <unicode hex="003D"/>
  <outline>
    <contour>
      <point x="113.75" y="886.375" type="line"/>
      <point x="1054.25" y="886.375" type="line"/>
      <point x="1054.25" y="971.375" type="line"/>
      <point x="113.75" y="971.375" type="line"/>
    </contour>
    <contour>
      <point x="113.75" y="472.125" type="line"/>
      <point x="1054.25" y="472.125" type="line"/>
      <point x="1054.25" y="558.125" type="line"/>
      <point x="113.75" y="558.125" type="line"/>
    </contour>
  </outline>
</glyph>
<glyph name="greater" format="2">
  <advance width="1168.5"/>
  <unicode hex="003E"/>
  <outline>
    <contour>
      <point x="110.125" y="358.875" type="line"/>
      <point x="110.125" y="266.125" type="line"/>
      <point x="1058.25" y="700.125" type="line"/>
      <point x="1058.25" y="761.5" type="line"/>
      <point x="110.125" y="1216.875" type="line"/>
      <point x="110.125" y="1123.75" type="line"/>
      <point x="940.875" y="732.75" type="line"/>
    </contour>
  </outline>
</glyph>
<glyph name="question" format="2">
  <advance width="862.125"/>
  <unicode hex="003F"/>
  <outline>
    <contour>
      <point x="292.0" y="377.0" type="line"/>
      <point x="377.5" y="377.0" type="line"/>
      <point x="377.5" y="405.375" type="line" smooth="yes"/>
      <point x="377.5" y="565.5"/>
      <point x="414.5" y="632.875"/>
      <point x="532.75" y="723.0" type="curve" smooth="yes"/>
      <point x="688.5" y="839.125"/>
      <point x="792.25" y="933.75"/>
      <point x="792.25" y="1130.875" type="curve" smooth="yes"/>
      <point x="792.25" y="1359.75"/>
      <point x="641.75" y="1483.0"/>
      <point x="401.125" y="1483.0" type="curve" smooth="yes"/>
      <point x="270.25" y="1483.0"/>
      <point x="173.0" y="1455.0"/>
      <point x="58.125" y="1402.625" type="curve"/>
      <point x="94.25" y="1315.875" type="line"/>
      <point x="191.375" y="1363.375"/>
      <point x="283.5" y="1391.875"/>
      <point x="396.625" y="1391.875" type="curve" smooth="yes"/>
      <point x="575.0" y="1391.875"/>
      <point x="693.375" y="1306.0"/>
      <point x="693.375" y="1129.375" type="curve" smooth="yes"/>
      <point x="693.375" y="966.375"/>
      <point x="616.0" y="895.5"/>
      <point x="465.25" y="780.625" type="curve" smooth="yes"/>
      <point x="327.25" y="675.125"/>
      <point x="292.0" y="597.875"/>
      <point x="292.0" y="413.25" type="curve" smooth="yes"/>
    </contour>
    <contour>
      <point x="260.0" y="71.0" type="curve" smooth="yes"/>
      <point x="260.0" y="12.0"/>
      <point x="286.75" y="-20.875"/>
      <point x="340.125" y="-20.875" type="curve" smooth="yes"/>
      <point x="395.875" y="-20.875"/>
      <point x="421.375" y="12.0"/>
      <point x="421.375" y="71.0" type="curve" smooth="yes"/>
      <point x="421.375" y="129.125"/>
      <point x="395.875" y="162.375"/>
      <point x="340.125" y="162.375" type="curve" smooth="yes"/>
      <point x="286.75" y="162.375"/>
      <point x="260.0" y="129.125"/>
    </contour>
  </outline>
</glyph>
<glyph name="at" format="2">
  <advance width="1814.125"/>
  <unicode hex="0040"/>
  <outline>
    <contour>
      <point x="1703.25" y="723.5" type="curve" smooth="yes"/>
      <point x="1703.25" y="1172.125"/>
      <point x="1413.0" y="1452.0"/>
      <point x="967.625" y="1452.0" type="curve" smooth="yes"/>
      <point x="451.625" y="1452.0"/>
      <point x="110.875" y="1118.0"/>
      <point x="110.875" y="578.625" type="curve" smooth="yes"/>
      <point x="110.875" y="99.25"/>
      <point x="394.25" y="-196.375"/>
      <point x="862.625" y="-196.375" type="curve" smooth="yes"/>
      <point x="1026.125" y="-196.375"/>
      <point x="1168.125" y="-165.125"/>
      <point x="1286.375" y="-116.125" type="curve"/>
      <point x="1286.375" y="-28.375000000000007" type="line"/>
      <point x="1160.0" y="-79.625"/>
      <point x="1010.5" y="-113.875"/>
      <point x="862.625" y="-113.875" type="curve" smooth="yes"/>
      <point x="443.125" y="-113.875"/>
      <point x="201.0" y="145.375"/>
      <point x="201.0" y="581.25" type="curve" smooth="yes"/>
      <point x="201.0" y="1070.25"/>
      <point x="502.5" y="1369.5"/>
      <point x="967.625" y="1369.5" type="curve" smooth="yes"/>
      <point x="1372.0" y="1369.5"/>
      <point x="1614.625" y="1119.5"/>
      <point x="1614.625" y="724.25" type="curve" smooth="yes"/>
      <point x="1614.625" y="481.375"/>
      <point x="1536.375" y="300.0"/>
      <point x="1375.0" y="300.0" type="curve" smooth="yes"/>
      <point x="1271.75" y="300.0"/>
      <point x="1221.125" y="366.125"/>
      <point x="1221.125" y="512.25" type="curve" smooth="yes"/>
      <point x="1221.125" y="558.75"/>
      <point x="1224.875" y="612.25"/>
      <point x="1226.875" y="661.25" type="curve" smooth="yes"/>
      <point x="1244.125" y="1002.875" type="line"/>
      <point x="1170.625" y="1028.75"/>
      <point x="1069.25" y="1046.875"/>
      <point x="963.0" y="1046.875" type="curve" smooth="yes"/>
      <point x="701.625" y="1046.875"/>
      <point x="528.0" y="854.5"/>
      <point x="528.0" y="590.25" type="curve" smooth="yes"/>
      <point x="528.0" y="356.875"/>
      <point x="642.5" y="220.5"/>
      <point x="846.5" y="220.5" type="curve" smooth="yes"/>
      <point x="982.75" y="220.5"/>
      <point x="1095.25" y="288.5"/>
      <point x="1151.75" y="421.625" type="curve"/>
      <point x="1156.75" y="421.625" type="line"/>
      <point x="1165.25" y="299.5"/>
      <point x="1246.75" y="220.5"/>
      <point x="1370.5" y="220.5" type="curve" smooth="yes"/>
      <point x="1595.375" y="220.5"/>
      <point x="1703.25" y="454.125"/>
    </contour>
    <contour>
      <point x="623.0" y="588.75" type="curve" smooth="yes"/>
      <point x="623.0" y="806.125"/>
      <point x="747.625" y="966.625"/>
      <point x="963.75" y="966.625" type="curve" smooth="yes"/>
      <point x="1037.625" y="966.625"/>
      <point x="1099.625" y="956.625"/>
      <point x="1150.375" y="939.375" type="curve"/>
      <point x="1135.875" y="651.5" type="line" smooth="yes"/>
      <point x="1123.375" y="420.75"/>
      <point x="1032.0" y="300.0"/>
      <point x="856.625" y="300.0" type="curve" smooth="yes"/>
      <point x="703.25" y="300.0"/>
      <point x="623.0" y="399.625"/>
    </contour>
  </outline>
</glyph>
<glyph name="A" format="2">
  <advance width="1229.625"/>
  <unicode hex="0041"/>
  <anchor x="619.0" y="0.0" name="bottom"/>
  <anchor x="614.125" y="1462.0" name="top"/>
  <anchor x="1111.75" y="1462.0" name="topright"/>
  <outline>
    <contour>
      <point x="1121.0" y="0.0" type="line"/>
      <point x="1228.875" y="0.0" type="line"/>
      <point x="669.5" y="1466.75" type="line"/>
      <point x="575.375" y="1466.75" type="line"/>
      <point x="0.0" y="0.0" type="line"/>
      <point x="105.375" y="0.0" type="line"/>
      <point x="307.5" y="516.75" type="line"/>
      <point x="921.875" y="516.75" type="line"/>
    </contour>
    <contour>
      <point x="888.75" y="609.75" type="line"/>
      <point x="342.625" y="609.75" type="line"/>
      <point x="553.0" y="1155.875" type="line" smooth="yes"/>
      <point x="572.125" y="1208.5"/>
      <point x="599.125" y="1282.125"/>
      <point x="619.125" y="1352.375" type="curve"/>
      <point x="641.625" y="1285.75"/>
      <point x="671.5" y="1199.5"/>
      <point x="686.625" y="1157.75" type="curve" smooth="yes"/>
    </contour>
  </outline>
</glyph>
<glyph name="C" format="2">
  <advance width="1271"/>
  <unicode hex="0043"/>
  <anchor x="756" y="0" name="bottom"/>
  <anchor x="787" y="1462" name="top"/>
  <anchor x="1231" y="1462" name="topright"/>
  <outline>
    <contour>
      <point x="828" y="1390" type="curve" smooth="yes"/>
      <point x="947" y="1390"/>
      <point x="1061" y="1366"/>
      <point x="1168" y="1313" type="curve"/>
      <point x="1208" y="1403" type="line"/>
      <point x="1096" y="1456"/>
      <point x="968" y="1483"/>
      <point x="828" y="1483" type="curve" smooth="yes"/>
      <point x="385" y="1483"/>
      <point x="128" y="1168"/>
      <point x="128" y="736" type="curve" smooth="yes"/>
      <point x="128" y="280"/>
      <point x="353" y="-20"/>
      <point x="793" y="-20" type="curve" smooth="yes"/>
      <point x="954" y="-20"/>
      <point x="1073" y="4"/>
      <point x="1170" y="42" type="curve"/>
      <point x="1170" y="131" type="line"/>
      <point x="1067" y="97"/>
      <point x="949" y="72"/>
      <point x="803" y="72" type="curve" smooth="yes"/>
      <point x="425" y="72"/>
      <point x="235" y="334"/>
      <point x="235" y="735" type="curve" smooth="yes"/>
      <point x="235" y="1122"/>
      <point x="453" y="1390"/>
    </contour>
  </outline>
</glyph>
<glyph name="D" format="2">
  <advance width="1446"/>
  <unicode hex="0044"/>
  <anchor x="706" y="0" name="bottom"/>
  <anchor x="724" y="731" name="center"/>
  <anchor x="720" y="1462" name="top"/>
  <anchor x="1405" y="1462" name="topright"/>
  <outline>
    <contour>
      <point x="1318" y="745" type="curve" smooth="yes"/>
      <point x="1318" y="1212"/>
      <point x="1069" y="1462"/>
      <point x="602" y="1462" type="curve" smooth="yes"/>
      <point x="207" y="1462" type="line"/>
      <point x="207" y="0" type="line"/>
      <point x="556" y="0" type="line" smooth="yes"/>
      <point x="1056" y="0"/>
      <point x="1318" y="255"/>
    </contour>
    <contour>
      <point x="1210" y="742" type="curve" smooth="yes"/>
      <point x="1210" y="307"/>
      <point x="992" y="91"/>
      <point x="551" y="91" type="curve" smooth="yes"/>
      <point x="309" y="91" type="line"/>
      <point x="309" y="1371" type="line"/>
      <point x="579" y="1371" type="line" smooth="yes"/>
      <point x="1008" y="1371"/>
      <point x="1210" y="1159"/>
    </contour>
  </outline>
</glyph>
<glyph name="E" format="2">
  <advance width="1131"/>
  <unicode hex="0045"/>
  <anchor x="608" y="0" name="bottom"/>
  <anchor x="625" y="1462" name="top"/>
  <anchor x="1090" y="1462" name="topright"/>
  <outline>
    <contour>
      <point x="1005" y="0" type="line"/>
      <point x="1005" y="93" type="line"/>
      <point x="309" y="93" type="line"/>
      <point x="309" y="722" type="line"/>
      <point x="966" y="722" type="line"/>
      <point x="966" y="815" type="line"/>
      <point x="309" y="815" type="line"/>
      <point x="309" y="1369" type="line"/>
      <point x="1005" y="1369" type="line"/>
      <point x="1005" y="1462" type="line"/>
      <point x="207" y="1462" type="line"/>
      <point x="207" y="0" type="line"/>
    </contour>
  </outline>
</glyph>
<glyph name="F" format="2">
  <advance width="1028.625"/>
  <unicode hex="0046"/>
  <anchor x="514.5" y="0.0" name="bottom"/>
  <anchor x="607.5" y="1462.0" name="top"/>
  <anchor x="987.625" y="1462.0" name="topright"/>
  <outline>
    <contour>
      <point x="308.625" y="0.0" type="line"/>
      <point x="308.625" y="654.125" type="line"/>
      <point x="968.25" y="654.125" type="line"/>
      <point x="968.25" y="746.375" type="line"/>
      <point x="308.625" y="746.375" type="line"/>
      <point x="308.625" y="1369.375" type="line"/>
      <point x="1006.625" y="1369.375" type="line"/>
      <point x="1006.625" y="1462.0" type="line"/>
      <point x="206.5" y="1462.0" type="line"/>
      <point x="206.5" y="0.0" type="line"/>
    </contour>
  </outline>
</glyph>
<glyph name="G" format="2">
  <advance width="1481.0"/>
  <unicode hex="0047"/>
  <anchor x="820.5" y="0.0" name="bottom"/>
  <anchor x="835.875" y="1462.0" name="top"/>
  <anchor x="1440.0" y="1462.0" name="topright"/>
  <outline>
    <contour>
      <point x="782.75" y="737.625" type="line"/>
      <point x="782.75" y="644.25" type="line"/>
      <point x="1217.5" y="644.25" type="line"/>
      <point x="1217.5" y="129.0" type="line"/>
      <point x="1123.5" y="94.125"/>
      <point x="1008.875" y="71.5"/>
      <point x="861.75" y="71.5" type="curve" smooth="yes"/>
      <point x="458.75" y="71.5"/>
      <point x="233.875" y="288.5"/>
      <point x="233.875" y="729.75" type="curve" smooth="yes"/>
      <point x="233.875" y="1120.375"/>
      <point x="472.0" y="1392.875"/>
      <point x="868.25" y="1392.875" type="curve" smooth="yes"/>
      <point x="1002.625" y="1392.875"/>
      <point x="1134.375" y="1363.875"/>
      <point x="1260.875" y="1305.125" type="curve"/>
      <point x="1302.125" y="1397.0" type="line"/>
      <point x="1174.625" y="1456.25"/>
      <point x="1032.625" y="1485.5"/>
      <point x="873.625" y="1485.5" type="curve" smooth="yes"/>
      <point x="406.125" y="1485.5"/>
      <point x="127.5" y="1169.875"/>
      <point x="127.5" y="728.5" type="curve" smooth="yes"/>
      <point x="127.5" y="255.5"/>
      <point x="377.25" y="-20.0"/>
      <point x="843.125" y="-20.0" type="curve" smooth="yes"/>
      <point x="1021.25" y="-20.0"/>
      <point x="1179.5" y="7.75"/>
      <point x="1320.25" y="66.875" type="curve"/>
      <point x="1320.25" y="737.625" type="line"/>
    </contour>
  </outline>
</glyph>
<glyph name="H" format="2">
  <advance width="1473.0"/>
  <unicode hex="0048"/>
  <anchor x="734.625" y="0.0" name="bottom"/>
  <anchor x="736.875" y="731.0" name="center"/>
  <anchor x="736.875" y="1462.0" name="top"/>
  <anchor x="1432.0" y="1462.0" name="topright"/>
  <outline>
    <contour>
      <point x="1265.75" y="0.0" type="line"/>
      <point x="1265.75" y="1462.0" type="line"/>
      <point x="1163.625" y="1462.0" type="line"/>
      <point x="1163.625" y="813.375" type="line"/>
      <point x="308.625" y="813.375" type="line"/>
      <point x="308.625" y="1462.0" type="line"/>
      <point x="206.5" y="1462.0" type="line"/>
      <point x="206.5" y="0.0" type="line"/>
      <point x="308.625" y="0.0" type="line"/>
      <point x="308.625" y="720.125" type="line"/>
      <point x="1163.625" y="720.125" type="line"/>
      <point x="1163.625" y="0.0" type="line"/>
    </contour>
  </outline>
</glyph>
<glyph name="I" format="2">
  <advance width="515.875"/>
  <unicode hex="0049"/>
  <anchor x="258.625" y="0.0" name="bottom"/>
  <anchor x="258.625" y="1462.0" name="top"/>
  <anchor x="404.0" y="1462.0" name="topright"/>
  <outline>
    <contour>
      <point x="206.5" y="0.0" type="line"/>
      <point x="308.625" y="0.0" type="line"/>
      <point x="308.625" y="1462.0" type="line"/>
      <point x="206.5" y="1462.0" type="line"/>
    </contour>
  </outline>
</glyph>
<glyph name="J" format="2">
  <advance width="505.25"/>
  <unicode hex="004A"/>
  <anchor x="-27.375" y="-340.5" name="bottom"/>
  <anchor x="257.875" y="1462.0" name="top"/>
  <anchor x="464.25" y="1462.0" name="topright"/>
  <outline>
    <contour>
      <point x="-27.375" y="-368.375" type="curve" smooth="yes"/>
      <point x="201.625" y="-368.375"/>
      <point x="308.625" y="-221.875"/>
      <point x="308.625" y="11.125" type="curve" smooth="yes"/>
      <point x="308.625" y="1462.0" type="line"/>
      <point x="206.125" y="1462.0" type="line"/>
      <point x="206.125" y="9.25" type="line" smooth="yes"/>
      <point x="206.125" y="-176.75"/>
      <point x="132.5" y="-274.5"/>
      <point x="-28.875" y="-274.5" type="curve" smooth="yes"/>
      <point x="-89.25" y="-274.5"/>
      <point x="-146.375" y="-264.0"/>
      <point x="-185.625" y="-248.875" type="curve"/>
      <point x="-185.625" y="-343.25" type="line"/>
      <point x="-149.875" y="-357.125"/>
      <point x="-99.625" y="-368.375"/>
    </contour>
  </outline>
</glyph>
<glyph name="K" format="2">
  <advance width="1189.875"/>
  <unicode hex="004B"/>
  <anchor x="610.375" y="0.0" name="bottom"/>
  <anchor x="617.875" y="1462.0" name="top"/>
  <anchor x="1148.875" y="1462.0" name="topright"/>
  <outline>
    <contour>
      <point x="1189.875" y="0.0" type="line"/>
      <point x="574.75" y="843.125" type="line"/>
      <point x="1173.125" y="1462.0" type="line"/>
      <point x="1044.375" y="1462.0" type="line"/>
      <point x="467.5" y="863.75" type="line" smooth="yes"/>
      <point x="412.875" y="805.375"/>
      <point x="358.75" y="749.0"/>
      <point x="308.625" y="692.875" type="curve"/>
      <point x="308.625" y="1462.0" type="line"/>
      <point x="206.5" y="1462.0" type="line"/>
      <point x="206.5" y="0.0" type="line"/>
      <point x="308.625" y="0.0" type="line"/>
      <point x="308.625" y="587.625" type="line"/>
      <point x="498.875" y="771.125" type="line"/>
      <point x="1064.75" y="0.0" type="line"/>
    </contour>
  </outline>
</glyph>
<glyph name="L" format="2">
  <advance width="1049.875"/>
  <unicode hex="004C"/>
  <anchor x="592.75" y="0.0" name="bottom"/>
  <anchor x="525.125" y="731.0" name="center"/>
  <anchor x="256.375" y="1462.0" name="top"/>
  <anchor x="850.0" y="1462.0" name="topright"/>
  <outline>
    <contour>
      <point x="206.5" y="0.0" type="line"/>
      <point x="1005.125" y="0.0" type="line"/>
      <point x="1005.125" y="93.375" type="line"/>
      <point x="308.625" y="93.375" type="line"/>
      <point x="308.625" y="1462.0" type="line"/>
      <point x="206.5" y="1462.0" type="line"/>
    </contour>
  </outline>
</glyph>
<glyph name="M" format="2">
  <advance width="1768.0"/>
  <unicode hex="004D"/>
  <anchor x="880.5" y="0.0" name="bottom"/>
  <anchor x="885.0" y="1462.0" name="top"/>
  <anchor x="1727.0" y="1462.0" name="topright"/>
  <outline>
    <contour>
      <point x="839.0" y="0.0" type="line"/>
      <point x="921.25" y="0.0" type="line"/>
      <point x="1459.875" y="1348.125" type="line"/>
      <point x="1465.375" y="1348.125" type="line"/>
      <point x="1461.875" y="1272.625"/>
      <point x="1458.875" y="1186.25"/>
      <point x="1458.875" y="1107.75" type="curve" smooth="yes"/>
      <point x="1458.875" y="0.0" type="line"/>
      <point x="1560.25" y="0.0" type="line"/>
      <point x="1560.25" y="1462.0" type="line"/>
      <point x="1407.75" y="1462.0" type="line"/>
      <point x="886.25" y="160.25" type="line"/>
      <point x="879.5" y="160.25" type="line"/>
      <point x="362.25" y="1462.0" type="line"/>
      <point x="206.5" y="1462.0" type="line"/>
      <point x="206.5" y="0.0" type="line"/>
      <point x="303.375" y="0.0" type="line"/>
      <point x="303.375" y="1095.75" type="line" smooth="yes"/>
      <point x="303.375" y="1192.0"/>
      <point x="300.75" y="1276.125"/>
      <point x="296.5" y="1350.125" type="curve"/>
      <point x="302.0" y="1350.125" type="line"/>
    </contour>
  </outline>
</glyph>
<glyph name="N" format="2">
  <advance width="1477.25"/>
  <unicode hex="004E"/>
  <anchor x="738.625" y="0.0" name="bottom"/>
  <anchor x="738.625" y="1462.0" name="top"/>
  <anchor x="1436.625" y="1462.0" name="topright"/>
  <outline>
    <contour>
      <point x="1269.875" y="0.0" type="line"/>
      <point x="1269.875" y="1462.0" type="line"/>
      <point x="1171.625" y="1462.0" type="line"/>
      <point x="1171.625" y="508.875" type="line" smooth="yes"/>
      <point x="1171.625" y="400.25"/>
      <point x="1175.375" y="260.75"/>
      <point x="1178.125" y="172.625" type="curve"/>
      <point x="1172.625" y="172.625" type="line"/>
      <point x="312.0" y="1462.0" type="line"/>
      <point x="206.5" y="1462.0" type="line"/>
      <point x="206.5" y="0.0" type="line"/>
      <point x="303.375" y="0.0" type="line"/>
      <point x="303.375" y="948.875" type="line" smooth="yes"/>
      <point x="303.375" y="1073.25"/>
      <point x="299.25" y="1183.625"/>
      <point x="295.75" y="1293.375" type="curve"/>
      <point x="301.25" y="1293.375" type="line"/>
      <point x="1164.875" y="0.0" type="line"/>
    </contour>
  </outline>
</glyph>
<glyph name="O" format="2">
  <advance width="1565"/>
  <unicode hex="004F"/>
  <anchor x="784" y="0" name="bottom"/>
  <anchor x="783" y="731" name="center"/>
  <anchor x="783" y="1462" name="top"/>
  <anchor x="1524" y="1462" name="topright"/>
  <outline>
    <contour>
      <point x="1436" y="733" type="curve" smooth="yes"/>
      <point x="1436" y="1201"/>
      <point x="1207" y="1485"/>
      <point x="790" y="1485" type="curve" smooth="yes"/>
      <point x="355" y="1485"/>
      <point x="128" y="1179"/>
      <point x="128" y="735" type="curve" smooth="yes"/>
      <point x="128" y="289"/>
      <point x="344" y="-20"/>
      <point x="782" y="-20" type="curve" smooth="yes"/>
      <point x="1217" y="-20"/>
      <point x="1436" y="289"/>
    </contour>
    <contour>
      <point x="235" y="734" type="curve" smooth="yes"/>
      <point x="235" y="1125"/>
      <point x="415" y="1392"/>
      <point x="790" y="1392" type="curve" smooth="yes"/>
      <point x="1144" y="1392"/>
      <point x="1329" y="1150"/>
      <point x="1329" y="733" type="curve" smooth="yes"/>
      <point x="1329" y="336"/>
      <point x="1159" y="72"/>
      <point x="783" y="72" type="curve" smooth="yes"/>
      <point x="410" y="72"/>
      <point x="235" y="341"/>
    </contour>
  </outline>
</glyph>
<glyph name="P" format="2">
  <advance width="1198.375"/>
  <unicode hex="0050"/>
  <anchor x="600.375" y="0.0" name="bottom"/>
  <anchor x="610.875" y="1462.0" name="top"/>
  <anchor x="1157.375" y="1462.0" name="topright"/>
  <outline>
    <contour>
      <point x="565.375" y="1462.0" type="curve" smooth="yes"/>
      <point x="206.5" y="1462.0" type="line"/>
      <point x="206.5" y="0.0" type="line"/>
      <point x="308.625" y="0.0" type="line"/>
      <point x="308.625" y="604.0" type="line"/>
      <point x="534.125" y="604.0" type="line" smooth="yes"/>
      <point x="900.875" y="604.0"/>
      <point x="1086.25" y="762.25"/>
      <point x="1086.25" y="1051.375" type="curve" smooth="yes"/>
      <point x="1086.25" y="1331.875"/>
      <point x="912.75" y="1462.0"/>
    </contour>
    <contour>
      <point x="554.0" y="1371.25" type="line" smooth="yes"/>
      <point x="845.125" y="1371.25"/>
      <point x="979.625" y="1272.625"/>
      <point x="979.625" y="1047.125" type="curve" smooth="yes"/>
      <point x="979.625" y="779.625"/>
      <point x="807.75" y="695.125"/>
      <point x="523.75" y="695.125" type="curve" smooth="yes"/>
      <point x="308.625" y="695.125" type="line"/>
      <point x="308.625" y="1371.25" type="line"/>
    </contour>
  </outline>
</glyph>
<glyph name="Q" format="2">
  <advance width="1564.625"/>
  <unicode hex="0051"/>
  <anchor x="782.875" y="-348.0" name="bottom"/>
  <anchor x="782.875" y="1462.0" name="top"/>
  <anchor x="1524.0" y="1462.0" name="topright"/>
  <outline>
    <contour>
      <point x="1436.25" y="733.0" type="curve" smooth="yes"/>
      <point x="1436.25" y="1200.5"/>
      <point x="1206.625" y="1485.0"/>
      <point x="789.875" y="1485.0" type="curve" smooth="yes"/>
      <point x="355.25" y="1485.0"/>
      <point x="127.5" y="1179.0"/>
      <point x="127.5" y="735.0" type="curve" smooth="yes"/>
      <point x="127.5" y="289.25"/>
      <point x="344.0" y="-20.0"/>
      <point x="781.625" y="-20.0" type="curve" smooth="yes"/>
      <point x="804.5" y="-20.0"/>
      <point x="826.625" y="-18.0"/>
      <point x="848.25" y="-16.75" type="curve"/>
      <point x="1128.125" y="-348.0" type="line"/>
      <point x="1273.375" y="-348.0" type="line"/>
      <point x="960.25" y="0.9999999999999982" type="line"/>
      <point x="1276.5" y="71.0"/>
      <point x="1436.25" y="355.625"/>
    </contour>
    <contour>
      <point x="234.625" y="734.25" type="curve" smooth="yes"/>
      <point x="234.625" y="1125.125"/>
      <point x="414.75" y="1392.375"/>
      <point x="789.875" y="1392.375" type="curve" smooth="yes"/>
      <point x="1144.25" y="1392.375"/>
      <point x="1328.75" y="1149.5"/>
      <point x="1328.75" y="733.0" type="curve" smooth="yes"/>
      <point x="1328.75" y="336.25"/>
      <point x="1158.625" y="71.5"/>
      <point x="782.875" y="71.5" type="curve" smooth="yes"/>
      <point x="409.75" y="71.5"/>
      <point x="234.625" y="340.625"/>
    </contour>
  </outline>
</glyph>
<glyph name="R" format="2">
  <advance width="1216.5"/>
  <unicode hex="0052"/>
  <anchor x="632.0" y="0.0" name="bottom"/>
  <anchor x="608.875" y="1462.0" name="top"/>
  <anchor x="1175.5" y="1462.0" name="topright"/>
  <outline>
    <contour>
      <point x="561.375" y="1462.0" type="curve" smooth="yes"/>
      <point x="206.5" y="1462.0" type="line"/>
      <point x="206.5" y="0.0" type="line"/>
      <point x="308.625" y="0.0" type="line"/>
      <point x="308.625" y="635.875" type="line"/>
      <point x="671.5" y="635.875" type="line"/>
      <point x="1048.625" y="0.0" type="line"/>
      <point x="1171.125" y="0.0" type="line"/>
      <point x="770.125" y="664.375" type="line"/>
      <point x="954.625" y="718.25"/>
      <point x="1086.25" y="841.125"/>
      <point x="1086.25" y="1064.5" type="curve" smooth="yes"/>
      <point x="1086.25" y="1358.125"/>
      <point x="908.125" y="1462.0"/>
    </contour>
    <contour>
      <point x="550.75" y="1370.5" type="line" smooth="yes"/>
      <point x="840.375" y="1370.5"/>
      <point x="979.625" y="1295.25"/>
      <point x="979.625" y="1059.875" type="curve" smooth="yes"/>
      <point x="979.625" y="845.25"/>
      <point x="837.5" y="726.875"/>
      <point x="599.5" y="726.875" type="curve" smooth="yes"/>
      <point x="308.625" y="726.875" type="line"/>
      <point x="308.625" y="1370.5" type="line"/>
    </contour>
  </outline>
</glyph>
<glyph name="S" format="2">
  <advance width="1116.5"/>
  <unicode hex="0053"/>
  <anchor x="545.375" y="0.0" name="bottom"/>
  <anchor x="567.125" y="1462.0" name="top"/>
  <anchor x="1075.5" y="1462.0" name="topright"/>
  <outline>
    <contour>
      <point x="1011.125" y="377.25" type="curve" smooth="yes"/>
      <point x="1011.125" y="614.125"/>
      <point x="849.5" y="697.625"/>
      <point x="590.25" y="784.875" type="curve" smooth="yes"/>
      <point x="369.125" y="859.125"/>
      <point x="232.125" y="919.75"/>
      <point x="232.125" y="1114.25" type="curve" smooth="yes"/>
      <point x="232.125" y="1298.75"/>
      <point x="385.5" y="1390.375"/>
      <point x="589.75" y="1390.375" type="curve" smooth="yes"/>
      <point x="704.875" y="1390.375"/>
      <point x="822.125" y="1366.625"/>
      <point x="939.75" y="1316.125" type="curve"/>
      <point x="975.5" y="1404.75" type="line"/>
      <point x="858.625" y="1456.25"/>
      <point x="734.375" y="1483.0"/>
      <point x="593.75" y="1483.0" type="curve" smooth="yes"/>
      <point x="328.625" y="1483.0"/>
      <point x="128.0" y="1352.875"/>
      <point x="128.0" y="1112.5" type="curve" smooth="yes"/>
      <point x="128.0" y="874.875"/>
      <point x="281.875" y="785.375"/>
      <point x="524.375" y="704.125" type="curve" smooth="yes"/>
      <point x="780.875" y="618.125"/>
      <point x="907.75" y="552.375"/>
      <point x="907.75" y="372.5" type="curve" smooth="yes"/>
      <point x="907.75" y="169.0"/>
      <point x="741.625" y="71.5"/>
      <point x="515.25" y="71.5" type="curve" smooth="yes"/>
      <point x="353.0" y="71.5"/>
      <point x="215.5" y="105.125"/>
      <point x="110.875" y="145.625" type="curve"/>
      <point x="110.875" y="42.75" type="line"/>
      <point x="207.0" y="7.75"/>
      <point x="330.75" y="-20.0"/>
      <point x="509.75" y="-20.0" type="curve" smooth="yes"/>
      <point x="795.625" y="-20.0"/>
      <point x="1011.125" y="114.125"/>
    </contour>
  </outline>
</glyph>
<glyph name="T" format="2">
  <advance width="1073"/>
  <unicode hex="0054"/>
  <anchor x="537" y="0" name="bottom"/>
  <anchor x="537" y="731" name="center"/>
  <anchor x="537" y="1462" name="top"/>
  <anchor x="1032" y="1462" name="topright"/>
  <outline>
    <contour>
      <point x="588" y="0" type="line"/>
      <point x="588" y="1369" type="line"/>
      <point x="1062" y="1369" type="line"/>
      <point x="1062" y="1462" type="line"/>
      <point x="10" y="1462" type="line"/>
      <point x="10" y="1369" type="line"/>
      <point x="485" y="1369" type="line"/>
      <point x="485" y="0" type="line"/>
    </contour>
  </outline>
</glyph>
<glyph name="U" format="2">
  <advance width="1472.625"/>
  <unicode hex="0055"/>
  <anchor x="735.0" y="0.0" name="bottom"/>
  <anchor x="736.875" y="1462.0" name="top"/>
  <anchor x="1431.625" y="1462.0" name="topright"/>
  <outline>
    <contour>
      <point x="1282.875" y="1462.0" type="line"/>
      <point x="1180.5" y="1462.0" type="line"/>
      <point x="1180.5" y="506.0" type="line" smooth="yes"/>
      <point x="1180.5" y="228.125"/>
      <point x="1018.5" y="71.5"/>
      <point x="737.625" y="71.5" type="curve" smooth="yes"/>
      <point x="451.0" y="71.5"/>
      <point x="293.375" y="226.625"/>
      <point x="293.375" y="520.25" type="curve" smooth="yes"/>
      <point x="293.375" y="1462.0" type="line"/>
      <point x="190.875" y="1462.0" type="line"/>
      <point x="190.875" y="520.0" type="line" smooth="yes"/>
      <point x="190.875" y="176.875"/>
      <point x="384.5" y="-20.0"/>
      <point x="732.25" y="-20.0" type="curve" smooth="yes"/>
      <point x="1075.5" y="-20.0"/>
      <point x="1282.875" y="174.875"/>
      <point x="1282.875" y="516.0" type="curve" smooth="yes"/>
    </contour>
  </outline>
</glyph>
<glyph name="V" format="2">
  <advance width="1181.5"/>
  <unicode hex="0056"/>
  <anchor x="590.75" y="0.0" name="bottom"/>
  <anchor x="594.125" y="1462.0" name="top"/>
  <anchor x="1140.5" y="1462.0" name="topright"/>
  <outline>
    <contour>
      <point x="1181.5" y="1462.0" type="line"/>
      <point x="1072.75" y="1462.0" type="line"/>
      <point x="674.5" y="381.125" type="line" smooth="yes"/>
      <point x="637.125" y="277.875"/>
      <point x="611.125" y="198.5"/>
      <point x="591.5" y="124.375" type="curve"/>
      <point x="570.875" y="198.5"/>
      <point x="541.875" y="285.5"/>
      <point x="508.25" y="379.625" type="curve" smooth="yes"/>
      <point x="108.0" y="1462.0" type="line"/>
      <point x="0.0" y="1462.0" type="line"/>
      <point x="540.125" y="0.0" type="line"/>
      <point x="641.375" y="0.0" type="line"/>
    </contour>
  </outline>
</glyph>
<glyph name="W" format="2">
  <advance width="1826.875"/>
  <unicode hex="0057"/>
  <anchor x="908.625" y="0.0" name="bottom"/>
  <anchor x="913.875" y="1462.0" name="top"/>
  <anchor x="1785.875" y="1462.0" name="topright"/>
  <outline>
    <contour>
      <point x="1778.0" y="1462.0" type="line"/>
      <point x="1671.625" y="1462.0" type="line"/>
      <point x="1390.0" y="429.125" type="line" smooth="yes"/>
      <point x="1358.25" y="314.5"/>
      <point x="1341.0" y="233.25"/>
      <point x="1325.875" y="144.125" type="curve"/>
      <point x="1309.0" y="230.625"/>
      <point x="1289.875" y="316.0"/>
      <point x="1256.5" y="429.875" type="curve" smooth="yes"/>
      <point x="959.375" y="1462.0" type="line"/>
      <point x="856.25" y="1462.0" type="line"/>
      <point x="568.875" y="436.25" type="line" smooth="yes"/>
      <point x="537.625" y="327.125"/>
      <point x="516.75" y="238.0"/>
      <point x="500.25" y="149.125" type="curve"/>
      <point x="483.125" y="236.5"/>
      <point x="462.0" y="320.75"/>
      <point x="432.75" y="430.875" type="curve" smooth="yes"/>
      <point x="158.25" y="1462.0" type="line"/>
      <point x="51.875" y="1462.0" type="line"/>
      <point x="446.375" y="0.0" type="line"/>
      <point x="546.75" y="0.0" type="line"/>
      <point x="859.0" y="1130.125" type="line" smooth="yes"/>
      <point x="880.375" y="1206.375"/>
      <point x="896.25" y="1274.375"/>
      <point x="905.875" y="1331.375" type="curve"/>
      <point x="918.125" y="1271.875"/>
      <point x="939.25" y="1196.875"/>
      <point x="965.5" y="1104.25" type="curve" smooth="yes"/>
      <point x="1278.625" y="0.0" type="line"/>
      <point x="1379.0" y="0.0" type="line"/>
    </contour>
  </outline>
</glyph>
<glyph name="X" format="2">
  <advance width="1101.25"/>
  <unicode hex="0058"/>
  <anchor x="551.25" y="0.0" name="bottom"/>
  <anchor x="550.5" y="1462.0" name="top"/>
  <anchor x="1060.25" y="1462.0" name="topright"/>
  <outline>
    <contour>
      <point x="1102.625" y="0.0" type="line"/>
      <point x="615.0" y="761.0" type="line"/>
      <point x="1066.375" y="1462.0" type="line"/>
      <point x="953.625" y="1462.0" type="line"/>
      <point x="554.5" y="832.75" type="line"/>
      <point x="159.625" y="1462.0" type="line"/>
      <point x="42.75" y="1462.0" type="line"/>
      <point x="490.875" y="759.5" type="line"/>
      <point x="-0.7500000000000009" y="0.0" type="line"/>
      <point x="111.75" y="0.0" type="line"/>
      <point x="551.0" y="686.25" type="line"/>
      <point x="984.25" y="0.0" type="line"/>
    </contour>
  </outline>
</glyph>
<glyph name="Y" format="2">
  <advance width="1080.875"/>
  <unicode hex="0059"/>
  <anchor x="541.25" y="0.0" name="bottom"/>
  <anchor x="541.25" y="1462.0" name="top"/>
  <anchor x="1039.875" y="1462.0" name="topright"/>
  <outline>
    <contour>
      <point x="541.25" y="663.625" type="line"/>
      <point x="113.5" y="1462.0" type="line"/>
      <point x="0.0" y="1462.0" type="line"/>
      <point x="491.375" y="556.5" type="line"/>
      <point x="491.375" y="0.0" type="line"/>
      <point x="593.875" y="0.0" type="line"/>
      <point x="593.875" y="564.5" type="line"/>
      <point x="1080.875" y="1462.0" type="line"/>
      <point x="968.5" y="1462.0" type="line"/>
    </contour>
  </outline>
</glyph>
<glyph name="Z" format="2">
  <advance width="1179.125"/>
  <unicode hex="005A"/>
  <anchor x="598.0" y="0.0" name="bottom"/>
  <anchor x="592.75" y="1462.0" name="top"/>
  <anchor x="1138.125" y="1462.0" name="topright"/>
  <outline>
    <contour>
      <point x="1098.25" y="0.0" type="line"/>
      <point x="1098.25" y="93.375" type="line"/>
      <point x="206.625" y="93.375" type="line"/>
      <point x="1074.75" y="1386.75" type="line"/>
      <point x="1074.75" y="1462.0" type="line"/>
      <point x="120.125" y="1462.0" type="line"/>
      <point x="120.125" y="1368.625" type="line"/>
      <point x="943.625" y="1368.625" type="line"/>
      <point x="75.5" y="75.25" type="line"/>
      <point x="75.5" y="0.0" type="line"/>
    </contour>
  </outline>
</glyph>
<glyph name="bracketleft" format="2">
  <advance width="653"/>
  <unicode hex="005B"/>
  <outline>
    <contour>
      <point x="602" y="-324" type="line"/>
      <point x="602" y="-236" type="line"/>
      <point x="272" y="-236" type="line"/>
      <point x="272" y="1375" type="line"/>
      <point x="602" y="1375" type="line"/>
      <point x="602" y="1462" type="line"/>
      <point x="174" y="1462" type="line"/>
      <point x="174" y="-324" type="line"/>
    </contour>
  </outline>
</glyph>
<glyph name="bracketright" format="2">
  <advance width="653.375"/>
  <unicode hex="005D"/>
  <outline>
    <contour>
      <point x="51.0" y="-236.0" type="line"/>
      <point x="51.0" y="-324.0" type="line"/>
      <point x="479.375" y="-324.0" type="line"/>
      <point x="479.375" y="1462.0" type="line"/>
      <point x="51.0" y="1462.0" type="line"/>
      <point x="51.0" y="1375.0" type="line"/>
      <point x="381.5" y="1375.0" type="line"/>
      <point x="381.5" y="-236.0" type="line"/>
    </contour>
  </outline>
</glyph>
<glyph name="asciicircum" format="2">
  <advance width="1169"/>
  <unicode hex="005E"/>
  <outline>
    <contour>
      <point x="88" y="561" type="line"/>
      <point x="186" y="561" type="line"/>
      <point x="586" y="1359" type="line"/>
      <point x="984" y="561" type="line"/>
      <point x="1081" y="561" type="line"/>
      <point x="621" y="1473" type="line"/>
      <point x="553" y="1473" type="line"/>
    </contour>
  </outline>
</glyph>
<glyph name="grave" format="2">
  <advance width="534.375"/>
  <unicode hex="0060"/>
  <outline>
    <contour>
      <point x="200.75" y="1569.0" type="curve"/>
      <point x="82.0" y="1569.0" type="line"/>
      <point x="82.0" y="1551.75" type="line"/>
      <point x="144.625" y="1466.125"/>
      <point x="277.125" y="1325.0"/>
      <point x="380.5" y="1241.0" type="curve"/>
      <point x="452.75" y="1241.0" type="line"/>
      <point x="452.75" y="1257.875" type="line"/>
      <point x="371.25" y="1337.25"/>
      <point x="255.125" y="1479.5"/>
    </contour>
  </outline>
</glyph>
<glyph name="a" format="2">
  <advance width="1085.25"/>
  <unicode hex="0061"/>
  <anchor x="543.125" y="0.0" name="bottom"/>
  <anchor x="543.125" y="1087.375" name="top"/>
  <anchor x="1021.375" y="1087.375" name="topright"/>
  <outline>
    <contour>
      <point x="559.375" y="1106.0" type="curve" smooth="yes"/>
      <point x="429.75" y="1106.0"/>
      <point x="308.5" y="1070.5"/>
      <point x="205.0" y="1020.75" type="curve"/>
      <point x="236.875" y="937.0" type="line"/>
      <point x="343.75" y="990.0"/>
      <point x="444.375" y="1019.75"/>
      <point x="555.625" y="1019.75" type="curve" smooth="yes"/>
      <point x="728.0" y="1019.75"/>
      <point x="817.0" y="933.375"/>
      <point x="817.0" y="711.375" type="curve" smooth="yes"/>
      <point x="817.0" y="632.0" type="line"/>
      <point x="615.375" y="621.875" type="line" smooth="yes"/>
      <point x="280.125" y="606.875"/>
      <point x="96.5" y="495.875"/>
      <point x="96.5" y="279.375" type="curve" smooth="yes"/>
      <point x="96.5" y="88.25"/>
      <point x="221.375" y="-20.0"/>
      <point x="431.25" y="-20.0" type="curve" smooth="yes"/>
      <point x="638.75" y="-20.0"/>
      <point x="743.625" y="66.875"/>
      <point x="815.25" y="190.375" type="curve"/>
      <point x="820.75" y="190.375" type="line"/>
      <point x="838.875" y="0.0" type="line"/>
      <point x="916.75" y="0.0" type="line"/>
      <point x="916.75" y="728.625" type="line" smooth="yes"/>
      <point x="916.75" y="990.875"/>
      <point x="798.5" y="1106.0"/>
    </contour>
    <contour>
      <point x="816.25" y="553.25" type="line"/>
      <point x="816.25" y="446.125" type="line" smooth="yes"/>
      <point x="813.75" y="211.25"/>
      <point x="686.0" y="66.25"/>
      <point x="446.625" y="66.25" type="curve" smooth="yes"/>
      <point x="293.25" y="66.25"/>
      <point x="202.875" y="141.875"/>
      <point x="202.875" y="278.625" type="curve" smooth="yes"/>
      <point x="202.875" y="450.125"/>
      <point x="349.625" y="531.875"/>
      <point x="626.125" y="544.375" type="curve" smooth="yes"/>
    </contour>
  </outline>
</glyph>
<glyph name="b" format="2">
  <advance width="1219"/>
  <unicode hex="0062"/>
  <anchor x="621" y="0" name="bottom"/>
  <anchor x="633" y="1556" name="top"/>
  <anchor x="1078" y="1556" name="topright"/>
  <outline>
    <contour>
      <point x="280" y="1556" type="line"/>
      <point x="179" y="1556" type="line"/>
      <point x="179" y="0" type="line"/>
      <point x="256" y="0" type="line"/>
      <point x="275" y="185" type="line"/>
      <point x="283" y="185" type="line"/>
      <point x="337" y="68"/>
      <point x="452" y="-20"/>
      <point x="638" y="-20" type="curve" smooth="yes"/>
      <point x="946" y="-20"/>
      <point x="1101" y="210"/>
      <point x="1101" y="547" type="curve" smooth="yes"/>
      <point x="1101" y="915"/>
      <point x="940" y="1109"/>
      <point x="658" y="1109" type="curve" smooth="yes"/>
      <point x="465" y="1109"/>
      <point x="332" y="1010"/>
      <point x="280" y="876" type="curve"/>
      <point x="273" y="876" type="line"/>
      <point x="276" y="936"/>
      <point x="280" y="1038"/>
      <point x="280" y="1114" type="curve" smooth="yes"/>
    </contour>
    <contour>
      <point x="647" y="1021" type="curve" smooth="yes"/>
      <point x="881" y="1021"/>
      <point x="997" y="861"/>
      <point x="997" y="547" type="curve" smooth="yes"/>
      <point x="997" y="240"/>
      <point x="870" y="68"/>
      <point x="628" y="68" type="curve" smooth="yes"/>
      <point x="382" y="68"/>
      <point x="280" y="229"/>
      <point x="280" y="529" type="curve" smooth="yes"/>
      <point x="280" y="545" type="line" smooth="yes"/>
      <point x="280" y="850"/>
      <point x="389" y="1021"/>
    </contour>
  </outline>
</glyph>
<glyph name="c" format="2">
  <advance width="973.0"/>
  <unicode hex="0063"/>
  <anchor x="594.375" y="0.0" name="bottom"/>
  <anchor x="610.125" y="1087.375" name="top"/>
  <anchor x="932.0" y="1087.375" name="topright"/>
  <outline>
    <contour>
      <point x="616.5" y="-20.0" type="curve" smooth="yes"/>
      <point x="734.0" y="-20.0"/>
      <point x="826.75" y="2.5"/>
      <point x="897.0" y="35.25" type="curve"/>
      <point x="897.0" y="127.125" type="line"/>
      <point x="818.5" y="93.375"/>
      <point x="722.25" y="70.0"/>
      <point x="615.75" y="70.0" type="curve" smooth="yes"/>
      <point x="344.125" y="70.0"/>
      <point x="222.125" y="265.375"/>
      <point x="222.125" y="538.75" type="curve" smooth="yes"/>
      <point x="222.125" y="830.875"/>
      <point x="374.875" y="1017.25"/>
      <point x="641.75" y="1017.25" type="curve" smooth="yes"/>
      <point x="718.625" y="1017.25"/>
      <point x="806.25" y="999.0"/>
      <point x="881.875" y="966.5" type="curve"/>
      <point x="908.75" y="1055.25" type="line"/>
      <point x="836.875" y="1087.625"/>
      <point x="746.375" y="1108.0"/>
      <point x="643.25" y="1108.0" type="curve" smooth="yes"/>
      <point x="325.75" y="1108.0"/>
      <point x="118.0" y="895.5"/>
      <point x="118.0" y="538.0" type="curve" smooth="yes"/>
      <point x="118.0" y="193.375"/>
      <point x="290.75" y="-20.0"/>
    </contour>
  </outline>
</glyph>
<glyph name="e" format="2">
  <advance width="1124"/>
  <unicode hex="0065"/>
  <anchor x="577" y="0" name="bottom"/>
  <anchor x="565" y="1087" name="top"/>
  <anchor x="1083" y="1087" name="topright"/>
  <outline>
    <contour>
      <point x="592" y="1108" type="curve" smooth="yes"/>
      <point x="285" y="1108"/>
      <point x="118" y="860"/>
      <point x="118" y="534" type="curve" smooth="yes"/>
      <point x="118" y="198"/>
      <point x="289" y="-20"/>
      <point x="619" y="-20" type="curve" smooth="yes"/>
      <point x="757" y="-20"/>
      <point x="856" y="1"/>
      <point x="963" y="49" type="curve"/>
      <point x="963" y="142" type="line"/>
      <point x="841" y="88"/>
      <point x="756" y="69"/>
      <point x="622" y="69" type="curve" smooth="yes"/>
      <point x="365" y="69"/>
      <point x="222" y="234"/>
      <point x="222" y="533" type="curve"/>
      <point x="1007" y="533" type="line"/>
      <point x="1007" y="606" type="line" smooth="yes"/>
      <point x="1007" y="896"/>
      <point x="870" y="1108"/>
    </contour>
    <contour>
      <point x="591" y="1021" type="curve" smooth="yes"/>
      <point x="802" y="1021"/>
      <point x="903" y="858"/>
      <point x="902" y="619" type="curve"/>
      <point x="225" y="619" type="line"/>
      <point x="248" y="878"/>
      <point x="383" y="1021"/>
    </contour>
  </outline>
</glyph>
<glyph name="g" format="2">
  <advance width="1064"/>
  <unicode hex="0067"/>
  <anchor x="522" y="-492" name="bottom"/>
  <anchor x="507" y="1087" name="top"/>
  <anchor x="1053" y="1091" name="topright"/>
  <outline>
    <contour>
      <point x="468" y="-492" type="curve" smooth="yes"/>
      <point x="811" y="-492"/>
      <point x="1007" y="-361"/>
      <point x="1007" y="-133" type="curve" smooth="yes"/>
      <point x="1007" y="54"/>
      <point x="878" y="152"/>
      <point x="642" y="152" type="curve"/>
      <point x="451" y="152" type="line"/>
      <point x="341" y="152"/>
      <point x="280" y="184"/>
      <point x="280" y="251" type="curve" smooth="yes"/>
      <point x="280" y="323"/>
      <point x="324" y="366"/>
      <point x="405" y="414" type="curve"/>
      <point x="436" y="408"/>
      <point x="470" y="405"/>
      <point x="503" y="405" type="curve" smooth="yes"/>
      <point x="746" y="405"/>
      <point x="889" y="542"/>
      <point x="889" y="757" type="curve" smooth="yes"/>
      <point x="889" y="846"/>
      <point x="859" y="930"/>
      <point x="801" y="1001" type="curve"/>
      <point x="1025" y="1016" type="line"/>
      <point x="1025" y="1088" type="line"/>
      <point x="674" y="1088" type="line"/>
      <point x="634" y="1101"/>
      <point x="580" y="1108"/>
      <point x="509" y="1108" type="curve" smooth="yes"/>
      <point x="272" y="1108"/>
      <point x="124" y="967"/>
      <point x="124" y="747" type="curve" smooth="yes"/>
      <point x="124" y="594"/>
      <point x="201" y="481"/>
      <point x="326" y="435" type="curve"/>
      <point x="233" y="380"/>
      <point x="186" y="315"/>
      <point x="186" y="242" type="curve" smooth="yes"/>
      <point x="186" y="174"/>
      <point x="229" y="121"/>
      <point x="293" y="94" type="curve"/>
      <point x="134" y="72"/>
      <point x="36" y="-45"/>
      <point x="36" y="-192" type="curve" smooth="yes"/>
      <point x="36" y="-381"/>
      <point x="194" y="-492"/>
    </contour>
    <contour>
      <point x="475" y="-406" type="curve" smooth="yes"/>
      <point x="256" y="-406"/>
      <point x="140" y="-331"/>
      <point x="140" y="-185" type="curve" smooth="yes"/>
      <point x="140" y="-15"/>
      <point x="263" y="49"/>
      <point x="438" y="49" type="curve"/>
      <point x="620" y="49" type="line"/>
      <point x="794" y="49"/>
      <point x="905" y="11"/>
      <point x="905" y="-135" type="curve" smooth="yes"/>
      <point x="905" y="-313"/>
      <point x="760" y="-406"/>
    </contour>
    <contour>
      <point x="507" y="486" type="curve" smooth="yes"/>
      <point x="323" y="486"/>
      <point x="229" y="581"/>
      <point x="229" y="747" type="curve" smooth="yes"/>
      <point x="229" y="924"/>
      <point x="333" y="1027"/>
      <point x="505" y="1027" type="curve" smooth="yes"/>
      <point x="683" y="1027"/>
      <point x="786" y="935"/>
      <point x="786" y="752" type="curve" smooth="yes"/>
      <point x="786" y="578"/>
      <point x="687" y="486"/>
    </contour>
  </outline>
</glyph>
<glyph name="h" format="2">
  <advance width="1208.5"/>
  <unicode hex="0068"/>
  <anchor x="605.625" y="0.0" name="bottom"/>
  <anchor x="604.875" y="544.0" name="center"/>
  <anchor x="231.625" y="1556.0" name="top"/>
  <anchor x="1119.125" y="1556.0" name="topright"/>
  <outline>
    <contour>
      <point x="281.5" y="1556.0" type="line"/>
      <point x="180.25" y="1556.0" type="line"/>
      <point x="180.25" y="0.0" type="line"/>
      <point x="281.5" y="0.0" type="line"/>
      <point x="281.5" y="598.875" type="line" smooth="yes"/>
      <point x="281.5" y="879.25"/>
      <point x="409.375" y="1019.5"/>
      <point x="649.125" y="1019.5" type="curve" smooth="yes"/>
      <point x="835.875" y="1019.5"/>
      <point x="938.25" y="920.875"/>
      <point x="938.25" y="705.125" type="curve" smooth="yes"/>
      <point x="938.25" y="0.0" type="line"/>
      <point x="1038.125" y="0.0" type="line"/>
      <point x="1038.125" y="711.25" type="line" smooth="yes"/>
      <point x="1038.125" y="983.75"/>
      <point x="903.125" y="1107.25"/>
      <point x="657.375" y="1107.25" type="curve" smooth="yes"/>
      <point x="460.75" y="1107.25"/>
      <point x="335.375" y="1011.5"/>
      <point x="282.25" y="888.5" type="curve"/>
      <point x="274.625" y="888.5" type="line"/>
      <point x="278.75" y="941.5"/>
      <point x="281.5" y="988.875"/>
      <point x="281.5" y="1047.5" type="curve" smooth="yes"/>
    </contour>
  </outline>
</glyph>
<glyph name="i" format="2">
  <advance width="463.0"/>
  <unicode hex="0069"/>
  <anchor x="233.625" y="0.0" name="bottom"/>
  <anchor x="232.125" y="1489.0" name="top"/>
  <anchor x="422.0" y="1489.0" name="topright"/>
  <outline>
    <contour>
      <point x="281.5" y="1087.375" type="line"/>
      <point x="180.25" y="1087.375" type="line"/>
      <point x="180.25" y="0.0" type="line"/>
      <point x="281.5" y="0.0" type="line"/>
    </contour>
    <contour>
      <point x="231.625" y="1489.0" type="curve" smooth="yes"/>
      <point x="183.875" y="1489.0"/>
      <point x="160.0" y="1456.875"/>
      <point x="160.0" y="1406.25" type="curve" smooth="yes"/>
      <point x="160.0" y="1355.125"/>
      <point x="183.875" y="1323.75"/>
      <point x="231.625" y="1323.75" type="curve" smooth="yes"/>
      <point x="283.25" y="1323.75"/>
      <point x="305.375" y="1355.125"/>
      <point x="305.375" y="1406.25" type="curve" smooth="yes"/>
      <point x="305.375" y="1456.875"/>
      <point x="283.25" y="1489.0"/>
    </contour>
  </outline>
</glyph>
<glyph name="j" format="2">
  <advance width="463"/>
  <unicode hex="006A"/>
  <anchor x="31" y="-492" name="bottom"/>
  <anchor x="232" y="1489" name="top"/>
  <anchor x="422" y="1489" name="topright"/>
  <outline>
    <contour>
      <point x="31" y="-492" type="curve" smooth="yes"/>
      <point x="184" y="-492"/>
      <point x="282" y="-396"/>
      <point x="282" y="-215" type="curve" smooth="yes"/>
      <point x="282" y="1087" type="line"/>
      <point x="180" y="1087" type="line"/>
      <point x="180" y="-212" type="line" smooth="yes"/>
      <point x="180" y="-342"/>
      <point x="124" y="-403"/>
      <point x="23" y="-403" type="curve" smooth="yes"/>
      <point x="-23" y="-403"/>
      <point x="-65" y="-398"/>
      <point x="-106" y="-382" type="curve"/>
      <point x="-106" y="-469" type="line"/>
      <point x="-72" y="-482"/>
      <point x="-27" y="-492"/>
    </contour>
    <contour>
      <point x="160" y="1406" type="curve" smooth="yes"/>
      <point x="160" y="1355"/>
      <point x="184" y="1324"/>
      <point x="232" y="1324" type="curve" smooth="yes"/>
      <point x="283" y="1324"/>
      <point x="305" y="1355"/>
      <point x="305" y="1406" type="curve" smooth="yes"/>
      <point x="305" y="1457"/>
      <point x="283" y="1489"/>
      <point x="232" y="1489" type="curve" smooth="yes"/>
      <point x="184" y="1489"/>
      <point x="160" y="1457"/>
    </contour>
  </outline>
</glyph>
<glyph name="k" format="2">
  <advance width="991.5"/>
  <unicode hex="006B"/>
  <anchor x="495.75" y="0.0" name="bottom"/>
  <anchor x="232.125" y="1556.0" name="top"/>
  <anchor x="961.75" y="1556.0" name="topright"/>
  <outline>
    <contour>
      <point x="280.75" y="1556.0" type="line"/>
      <point x="180.25" y="1556.0" type="line"/>
      <point x="180.25" y="0.0" type="line"/>
      <point x="280.75" y="0.0" type="line"/>
      <point x="280.75" y="371.125" type="line"/>
      <point x="455.125" y="554.5" type="line"/>
      <point x="869.875" y="0.0" type="line"/>
      <point x="990.625" y="0.0" type="line"/>
      <point x="524.375" y="620.875" type="line"/>
      <point x="953.375" y="1087.375" type="line"/>
      <point x="830.875" y="1087.375" type="line"/>
      <point x="401.125" y="615.75" type="line" smooth="yes"/>
      <point x="359.125" y="569.75"/>
      <point x="317.0" y="517.375"/>
      <point x="277.625" y="471.875" type="curve"/>
      <point x="276.5" y="471.875" type="line"/>
      <point x="278.5" y="572.875"/>
      <point x="280.75" y="673.125"/>
      <point x="280.75" y="771.125" type="curve" smooth="yes"/>
    </contour>
  </outline>
</glyph>
<glyph name="l" format="2">
  <advance width="463.0"/>
  <unicode hex="006C"/>
  <anchor x="232.125" y="0.0" name="bottom"/>
  <anchor x="232.125" y="544.0" name="center"/>
  <anchor x="232.125" y="1556.0" name="top"/>
  <anchor x="394.625" y="1556.0" name="topright"/>
  <outline>
    <contour>
      <point x="282.75" y="0.0" type="line"/>
      <point x="282.75" y="1556.0" type="line"/>
      <point x="181.5" y="1556.0" type="line"/>
      <point x="181.5" y="0.0" type="line"/>
    </contour>
  </outline>
</glyph>
<glyph name="m" format="2">
  <advance width="1809"/>
  <unicode hex="006D"/>
  <anchor x="913" y="0" name="bottom"/>
  <anchor x="913" y="1087" name="top"/>
  <anchor x="1745" y="1087" name="topright"/>
  <outline>
    <contour>
      <point x="1302" y="1108" type="curve" smooth="yes"/>
      <point x="1128" y="1108"/>
      <point x="1001" y="1030"/>
      <point x="942" y="900" type="curve"/>
      <point x="935" y="900" type="line"/>
      <point x="892" y="1037"/>
      <point x="779" y="1108"/>
      <point x="623" y="1108" type="curve" smooth="yes"/>
      <point x="443" y="1108"/>
      <point x="336" y="1014"/>
      <point x="284" y="909" type="curve"/>
      <point x="277" y="909" type="line"/>
      <point x="262" y="1087" type="line"/>
      <point x="180" y="1087" type="line"/>
      <point x="180" y="0" type="line"/>
      <point x="282" y="0" type="line"/>
      <point x="282" y="630" type="line" smooth="yes"/>
      <point x="282" y="897"/>
      <point x="408" y="1020"/>
      <point x="610" y="1020" type="curve" smooth="yes"/>
      <point x="761" y="1020"/>
      <point x="861" y="927"/>
      <point x="861" y="726" type="curve" smooth="yes"/>
      <point x="861" y="0" type="line"/>
      <point x="961" y="0" type="line"/>
      <point x="961" y="644" type="line" smooth="yes"/>
      <point x="961" y="903"/>
      <point x="1084" y="1020"/>
      <point x="1291" y="1020" type="curve" smooth="yes"/>
      <point x="1442" y="1020"/>
      <point x="1542" y="927"/>
      <point x="1542" y="726" type="curve" smooth="yes"/>
      <point x="1542" y="0" type="line"/>
      <point x="1642" y="0" type="line"/>
      <point x="1642" y="730" type="line" smooth="yes"/>
      <point x="1642" y="991"/>
      <point x="1511" y="1108"/>
    </contour>
  </outline>
</glyph>
<glyph name="n" format="2">
  <advance width="1209"/>
  <unicode hex="006E"/>
  <anchor x="605" y="0" name="bottom"/>
  <anchor x="605" y="1087" name="top"/>
  <anchor x="1140" y="1087" name="topright"/>
  <outline>
    <contour>
      <point x="659" y="1108" type="curve" smooth="yes"/>
      <point x="463" y="1108"/>
      <point x="340" y="1011"/>
      <point x="284" y="889" type="curve"/>
      <point x="277" y="889" type="line"/>
      <point x="262" y="1087" type="line"/>
      <point x="180" y="1087" type="line"/>
      <point x="180" y="0" type="line"/>
      <point x="282" y="0" type="line"/>
      <point x="282" y="600" type="line" smooth="yes"/>
      <point x="282" y="880"/>
      <point x="410" y="1020"/>
      <point x="649" y="1020" type="curve" smooth="yes"/>
      <point x="836" y="1020"/>
      <point x="938" y="921"/>
      <point x="938" y="705" type="curve" smooth="yes"/>
      <point x="938" y="0" type="line"/>
      <point x="1038" y="0" type="line"/>
      <point x="1038" y="711" type="line" smooth="yes"/>
      <point x="1038" y="985"/>
      <point x="903" y="1108"/>
    </contour>
  </outline>
</glyph>
<glyph name="o" format="2">
  <advance width="1200.875"/>
  <unicode hex="006F"/>
  <anchor x="599.75" y="0.0" name="bottom"/>
  <anchor x="601.625" y="544.0" name="center"/>
  <anchor x="601.625" y="1087.375" name="top"/>
  <anchor x="1152.375" y="1087.375" name="topright"/>
  <outline>
    <contour>
      <point x="1082.375" y="544.75" type="curve" smooth="yes"/>
      <point x="1082.375" y="876.125"/>
      <point x="922.5" y="1108.0"/>
      <point x="607.375" y="1108.0" type="curve" smooth="yes"/>
      <point x="300.75" y="1108.0"/>
      <point x="118.0" y="895.5"/>
      <point x="118.0" y="544.75" type="curve" smooth="yes"/>
      <point x="118.0" y="206.625"/>
      <point x="293.5" y="-20.0"/>
      <point x="597.25" y="-20.0" type="curve" smooth="yes"/>
      <point x="915.625" y="-20.0"/>
      <point x="1082.375" y="209.125"/>
    </contour>
    <contour>
      <point x="222.125" y="544.75" type="curve" smooth="yes"/>
      <point x="222.125" y="841.625"/>
      <point x="353.125" y="1019.5"/>
      <point x="605.5" y="1019.5" type="curve" smooth="yes"/>
      <point x="870.125" y="1019.5"/>
      <point x="977.625" y="818.5"/>
      <point x="977.625" y="544.75" type="curve" smooth="yes"/>
      <point x="977.625" y="261.625"/>
      <point x="860.75" y="67.75"/>
      <point x="599.125" y="67.75" type="curve" smooth="yes"/>
      <point x="342.0" y="67.75"/>
      <point x="222.125" y="259.125"/>
    </contour>
  </outline>
</glyph>
<glyph name="p" format="2">
  <advance width="1218.75"/>
  <unicode hex="0070"/>
  <anchor x="232.125" y="-481.375" name="bottom"/>
  <anchor x="628.75" y="1087.375" name="top"/>
  <anchor x="1169.875" y="1087.375" name="topright"/>
  <outline>
    <contour>
      <point x="661.625" y="1108.0" type="curve" smooth="yes"/>
      <point x="454.25" y="1108.0"/>
      <point x="335.625" y="995.125"/>
      <point x="282.75" y="869.875" type="curve"/>
      <point x="277.25" y="869.875" type="line"/>
      <point x="265.125" y="1087.375" type="line"/>
      <point x="181.5" y="1087.375" type="line"/>
      <point x="181.5" y="-481.375" type="line"/>
      <point x="282.75" y="-481.375" type="line"/>
      <point x="282.75" y="-34.75" type="line" smooth="yes"/>
      <point x="282.75" y="38.125"/>
      <point x="279.75" y="125.125"/>
      <point x="275.75" y="200.875" type="curve"/>
      <point x="282.75" y="200.875" type="line"/>
      <point x="334.875" y="78.625"/>
      <point x="450.25" y="-20.0"/>
      <point x="648.375" y="-20.0" type="curve" smooth="yes"/>
      <point x="930.75" y="-20.0"/>
      <point x="1103.25" y="182.25"/>
      <point x="1103.25" y="551.0" type="curve" smooth="yes"/>
      <point x="1103.25" y="918.125"/>
      <point x="942.625" y="1108.0"/>
    </contour>
    <contour>
      <point x="649.625" y="1019.5" type="curve" smooth="yes"/>
      <point x="881.625" y="1019.5"/>
      <point x="999.125" y="856.75"/>
      <point x="999.125" y="551.75" type="curve" smooth="yes"/>
      <point x="999.125" y="244.5"/>
      <point x="869.75" y="67.75"/>
      <point x="638.625" y="67.75" type="curve" smooth="yes"/>
      <point x="402.375" y="67.75"/>
      <point x="282.75" y="222.875"/>
      <point x="282.75" y="542.25" type="curve" smooth="yes"/>
      <point x="282.75" y="559.125" type="line" smooth="yes"/>
      <point x="284.25" y="854.5"/>
      <point x="401.875" y="1019.5"/>
    </contour>
  </outline>
</glyph>
<glyph name="q" format="2">
  <advance width="1218.75"/>
  <unicode hex="0071"/>
  <anchor x="985.0" y="-481.375" name="bottom"/>
  <anchor x="610.375" y="1087.375" name="top"/>
  <anchor x="1147.0" y="1087.375" name="topright"/>
  <outline>
    <contour>
      <point x="934.375" y="-481.375" type="line"/>
      <point x="1035.625" y="-481.375" type="line"/>
      <point x="1035.625" y="1087.375" type="line"/>
      <point x="953.875" y="1087.375" type="line"/>
      <point x="938.125" y="898.0" type="line"/>
      <point x="932.625" y="898.0" type="line"/>
      <point x="878.875" y="1013.875"/>
      <point x="762.625" y="1108.0"/>
      <point x="576.875" y="1108.0" type="curve" smooth="yes"/>
      <point x="270.125" y="1108.0"/>
      <point x="114.25" y="876.5"/>
      <point x="114.25" y="540.75" type="curve" smooth="yes"/>
      <point x="114.25" y="171.25"/>
      <point x="274.875" y="-21.875"/>
      <point x="554.0" y="-21.875" type="curve" smooth="yes"/>
      <point x="748.625" y="-21.875"/>
      <point x="881.875" y="77.375"/>
      <point x="933.625" y="211.375" type="curve"/>
      <point x="940.625" y="211.375" type="line"/>
      <point x="936.375" y="151.25"/>
      <point x="934.375" y="55.125"/>
      <point x="934.375" y="-4.874999999999998" type="curve" smooth="yes"/>
    </contour>
    <contour>
      <point x="567.125" y="66.5" type="curve" smooth="yes"/>
      <point x="333.0" y="66.5"/>
      <point x="218.375" y="231.75"/>
      <point x="218.375" y="539.25" type="curve" smooth="yes"/>
      <point x="218.375" y="841.125"/>
      <point x="343.0" y="1020.25"/>
      <point x="586.25" y="1020.25" type="curve" smooth="yes"/>
      <point x="829.5" y="1020.25"/>
      <point x="935.125" y="859.25"/>
      <point x="935.125" y="556.25" type="curve" smooth="yes"/>
      <point x="935.125" y="529.875" type="line" smooth="yes"/>
      <point x="933.625" y="233.875"/>
      <point x="824.0" y="66.5"/>
    </contour>
  </outline>
</glyph>
<glyph name="r" format="2">
  <advance width="797.25"/>
  <unicode hex="0072"/>
  <anchor x="229.875" y="0.0" name="bottom"/>
  <anchor x="425.125" y="1087.375" name="top"/>
  <anchor x="756.25" y="1087.375" name="topright"/>
  <outline>
    <contour>
      <point x="612.875" y="1105.5" type="curve" smooth="yes"/>
      <point x="446.375" y="1105.5"/>
      <point x="334.375" y="1006.125"/>
      <point x="283.75" y="882.625" type="curve"/>
      <point x="278.25" y="882.625" type="line"/>
      <point x="268.25" y="1087.375" type="line"/>
      <point x="181.5" y="1087.375" type="line"/>
      <point x="181.5" y="0.0" type="line"/>
      <point x="282.75" y="0.0" type="line"/>
      <point x="282.75" y="599.75" type="line" smooth="yes"/>
      <point x="282.75" y="850.75"/>
      <point x="402.75" y="1012.125"/>
      <point x="608.375" y="1012.125" type="curve" smooth="yes"/>
      <point x="661.0" y="1012.125"/>
      <point x="704.25" y="1005.5"/>
      <point x="749.25" y="993.75" type="curve"/>
      <point x="765.0" y="1086.625" type="line"/>
      <point x="720.5" y="1099.0"/>
      <point x="669.5" y="1105.5"/>
    </contour>
  </outline>
</glyph>
<glyph name="s" format="2">
  <advance width="954.125"/>
  <unicode hex="0073"/>
  <anchor x="477.625" y="0.0" name="bottom"/>
  <anchor x="477.625" y="1087.375" name="top"/>
  <anchor x="897.75" y="1087.375" name="topright"/>
  <outline>
    <contour>
      <point x="859.625" y="284.875" type="curve" smooth="yes"/>
      <point x="859.625" y="480.25"/>
      <point x="698.625" y="536.625"/>
      <point x="507.75" y="602.125" type="curve" smooth="yes"/>
      <point x="324.875" y="665.25"/>
      <point x="209.75" y="695.625"/>
      <point x="209.75" y="835.5" type="curve" smooth="yes"/>
      <point x="209.75" y="956.875"/>
      <point x="315.375" y="1021.0"/>
      <point x="493.375" y="1021.0" type="curve" smooth="yes"/>
      <point x="601.25" y="1021.0"/>
      <point x="715.5" y="993.75"/>
      <point x="797.5" y="956.0" type="curve"/>
      <point x="834.125" y="1041.5" type="line"/>
      <point x="742.125" y="1080.625"/>
      <point x="628.375" y="1108.0"/>
      <point x="497.875" y="1108.0" type="curve" smooth="yes"/>
      <point x="262.5" y="1108.0"/>
      <point x="110.875" y="1005.875"/>
      <point x="110.875" y="831.375" type="curve" smooth="yes"/>
      <point x="110.875" y="638.25"/>
      <point x="254.125" y="589.5"/>
      <point x="453.375" y="523.125" type="curve" smooth="yes"/>
      <point x="646.5" y="458.625"/>
      <point x="759.375" y="409.625"/>
      <point x="759.375" y="278.875" type="curve" smooth="yes"/>
      <point x="759.375" y="147.375"/>
      <point x="666.375" y="66.25"/>
      <point x="443.125" y="66.25" type="curve" smooth="yes"/>
      <point x="315.375" y="66.25"/>
      <point x="189.875" y="99.375"/>
      <point x="89.75" y="149.25" type="curve"/>
      <point x="89.75" y="49.0" type="line"/>
      <point x="170.0" y="10.25"/>
      <point x="290.75" y="-20.0"/>
      <point x="441.625" y="-20.0" type="curve" smooth="yes"/>
      <point x="711.5" y="-20.0"/>
      <point x="859.625" y="91.25"/>
    </contour>
  </outline>
</glyph>
<glyph name="t" format="2">
  <advance width="685"/>
  <unicode hex="0074"/>
  <anchor x="409" y="0" name="bottom"/>
  <anchor x="344" y="544" name="center"/>
  <anchor x="258" y="1350" name="top"/>
  <anchor x="640" y="1350" name="topright"/>
  <outline>
    <contour>
      <point x="474" y="67" type="curve" smooth="yes"/>
      <point x="342" y="67"/>
      <point x="288" y="149"/>
      <point x="288" y="305" type="curve" smooth="yes"/>
      <point x="288" y="1003" type="line"/>
      <point x="627" y="1003" type="line"/>
      <point x="627" y="1087" type="line"/>
      <point x="288" y="1087" type="line"/>
      <point x="288" y="1350" type="line"/>
      <point x="221" y="1350" type="line"/>
      <point x="186" y="1094" type="line"/>
      <point x="25" y="1063" type="line"/>
      <point x="25" y="1003" type="line"/>
      <point x="187" y="1003" type="line"/>
      <point x="187" y="299" type="line" smooth="yes"/>
      <point x="187" y="80"/>
      <point x="279" y="-20"/>
      <point x="463" y="-20" type="curve" smooth="yes"/>
      <point x="532" y="-20"/>
      <point x="590" y="-7"/>
      <point x="633" y="8" type="curve"/>
      <point x="633" y="92" type="line"/>
      <point x="592" y="77"/>
      <point x="537" y="67"/>
    </contour>
  </outline>
</glyph>
<glyph name="u" format="2">
  <advance width="1208.5"/>
  <unicode hex="0075"/>
  <anchor x="593.25" y="0.0" name="bottom"/>
  <anchor x="604.875" y="1087.375" name="top"/>
  <anchor x="1139.75" y="1087.375" name="topright"/>
  <outline>
    <contour>
      <point x="1025.125" y="1087.375" type="line"/>
      <point x="924.125" y="1087.375" type="line"/>
      <point x="924.125" y="486.625" type="line" smooth="yes"/>
      <point x="924.125" y="206.25"/>
      <point x="794.125" y="67.75"/>
      <point x="556.125" y="67.75" type="curve" smooth="yes"/>
      <point x="367.0" y="67.75"/>
      <point x="267.125" y="167.5"/>
      <point x="267.125" y="384.75" type="curve" smooth="yes"/>
      <point x="267.125" y="1087.375" type="line"/>
      <point x="165.75" y="1087.375" type="line"/>
      <point x="165.75" y="375.25" type="line" smooth="yes"/>
      <point x="165.75" y="110.625"/>
      <point x="295.75" y="-20.0"/>
      <point x="546.0" y="-20.0" type="curve" smooth="yes"/>
      <point x="742.0" y="-20.0"/>
      <point x="866.125" y="75.375"/>
      <point x="922.125" y="196.25" type="curve"/>
      <point x="928.0" y="196.25" type="line"/>
      <point x="942.75" y="0.0" type="line"/>
      <point x="1025.125" y="0.0" type="line"/>
    </contour>
  </outline>
</glyph>
<glyph name="v" format="2">
  <advance width="940.625"/>
  <unicode hex="0076"/>
  <anchor x="468.5" y="0.0" name="bottom"/>
  <anchor x="468.5" y="1087.375" name="top"/>
  <anchor x="899.625" y="1087.375" name="topright"/>
  <outline>
    <contour>
      <point x="417.25" y="0.0" type="line"/>
      <point x="523.0" y="0.0" type="line"/>
      <point x="940.625" y="1087.375" type="line"/>
      <point x="833.625" y="1087.375" type="line"/>
      <point x="554.0" y="346.0" type="line" smooth="yes"/>
      <point x="520.875" y="257.625"/>
      <point x="493.25" y="173.25"/>
      <point x="472.0" y="106.25" type="curve"/>
      <point x="466.5" y="106.25" type="line"/>
      <point x="448.25" y="173.25"/>
      <point x="420.25" y="256.875"/>
      <point x="386.0" y="346.0" type="curve" smooth="yes"/>
      <point x="106.75" y="1087.375" type="line"/>
      <point x="0.0" y="1087.375" type="line"/>
    </contour>
  </outline>
</glyph>
<glyph name="w" format="2">
  <advance width="1480.625"/>
  <unicode hex="0077"/>
  <anchor x="739.125" y="0.0" name="bottom"/>
  <anchor x="740.625" y="1087.375" name="top"/>
  <anchor x="1439.625" y="1087.375" name="topright"/>
  <outline>
    <contour>
      <point x="1049.125" y="-0.5000000000000002" type="line"/>
      <point x="1156.375" y="-0.5000000000000002" type="line"/>
      <point x="1451.375" y="1086.875" type="line"/>
      <point x="1349.25" y="1086.875" type="line"/>
      <point x="1164.625" y="392.125" type="line" smooth="yes"/>
      <point x="1133.25" y="272.75"/>
      <point x="1110.875" y="187.875"/>
      <point x="1102.875" y="123.0" type="curve"/>
      <point x="1097.0" y="123.0" type="line"/>
      <point x="1082.625" y="191.625"/>
      <point x="1057.0" y="280.75"/>
      <point x="1025.875" y="381.625" type="curve" smooth="yes"/>
      <point x="802.5" y="1086.875" type="line"/>
      <point x="702.125" y="1086.875" type="line"/>
      <point x="469.0" y="379.75" type="line" smooth="yes"/>
      <point x="432.5" y="268.5"/>
      <point x="413.75" y="187.125"/>
      <point x="398.125" y="122.25" type="curve"/>
      <point x="392.625" y="122.25" type="line"/>
      <point x="379.5" y="190.875"/>
      <point x="360.375" y="270.0"/>
      <point x="326.875" y="392.125" type="curve" smooth="yes"/>
      <point x="135.875" y="1086.875" type="line"/>
      <point x="29.25" y="1086.875" type="line"/>
      <point x="337.75" y="-0.5000000000000002" type="line"/>
      <point x="442.375" y="-0.5000000000000002" type="line"/>
      <point x="681.25" y="728.625" type="line" smooth="yes"/>
      <point x="709.5" y="812.375"/>
      <point x="729.25" y="889.375"/>
      <point x="746.5" y="958.5" type="curve"/>
      <point x="752.0" y="958.5" type="line"/>
      <point x="769.0" y="889.375"/>
      <point x="790.5" y="816.125"/>
      <point x="817.375" y="729.75" type="curve" smooth="yes"/>
    </contour>
  </outline>
</glyph>
<glyph name="x" format="2">
  <advance width="1019.25"/>
  <unicode hex="0078"/>
  <anchor x="511.125" y="0.0" name="bottom"/>
  <anchor x="509.625" y="1087.375" name="top"/>
  <anchor x="978.25" y="1087.375" name="topright"/>
  <outline>
    <contour>
      <point x="443.375" y="558.5" type="line"/>
      <point x="47.0" y="0.0" type="line"/>
      <point x="163.125" y="0.0" type="line"/>
      <point x="505.5" y="488.0" type="line"/>
      <point x="849.5" y="0.0" type="line"/>
      <point x="967.625" y="0.0" type="line"/>
      <point x="567.625" y="558.5" type="line"/>
      <point x="944.125" y="1087.375" type="line"/>
      <point x="826.75" y="1087.375" type="line"/>
      <point x="505.5" y="627.75" type="line"/>
      <point x="183.125" y="1087.375" type="line"/>
      <point x="64.375" y="1087.375" type="line"/>
    </contour>
  </outline>
</glyph>
<glyph name="y" format="2">
  <advance width="939.625"/>
  <unicode hex="0079"/>
  <anchor x="136.125" y="-495.75" name="bottom"/>
  <anchor x="469.5" y="1087.375" name="top"/>
  <anchor x="899.0" y="1087.375" name="topright"/>
  <outline>
    <contour>
      <point x="0.7499999999999999" y="1087.375" type="line"/>
      <point x="424.0" y="6.000000000000001" type="line"/>
      <point x="350.125" y="-186.875" type="line" smooth="yes"/>
      <point x="290.75" y="-339.875"/>
      <point x="227.375" y="-407.75"/>
      <point x="114.875" y="-407.75" type="curve" smooth="yes"/>
      <point x="70.375" y="-407.75"/>
      <point x="36.0" y="-400.5"/>
      <point x="1.1249999999999982" y="-389.5" type="curve"/>
      <point x="1.1249999999999982" y="-476.25" type="line"/>
      <point x="38.25" y="-488.625"/>
      <point x="76.625" y="-495.75"/>
      <point x="125.75" y="-495.75" type="curve" smooth="yes"/>
      <point x="288.75" y="-495.75"/>
      <point x="374.625" y="-393.0"/>
      <point x="446.0" y="-204.5" type="curve" smooth="yes"/>
      <point x="942.125" y="1087.375" type="line"/>
      <point x="834.375" y="1087.375" type="line"/>
      <point x="573.25" y="393.125" type="line" smooth="yes"/>
      <point x="529.25" y="273.875"/>
      <point x="495.25" y="175.125"/>
      <point x="475.75" y="112.75" type="curve"/>
      <point x="470.25" y="112.75" type="line"/>
      <point x="451.75" y="182.125"/>
      <point x="418.0" y="273.875"/>
      <point x="372.0" y="397.375" type="curve" smooth="yes"/>
      <point x="107.5" y="1087.375" type="line"/>
    </contour>
  </outline>
</glyph>
<glyph name="z" format="2">
  <advance width="944.875"/>
  <unicode hex="007A"/>
  <anchor x="477.875" y="0.0" name="bottom"/>
  <anchor x="472.25" y="1087.375" name="top"/>
  <anchor x="888.5" y="1087.375" name="topright"/>
  <outline>
    <contour>
      <point x="858.625" y="0.0" type="line"/>
      <point x="858.625" y="84.0" type="line"/>
      <point x="206.375" y="84.0" type="line"/>
      <point x="856.75" y="1018.0" type="line"/>
      <point x="856.75" y="1087.375" type="line"/>
      <point x="130.0" y="1087.375" type="line"/>
      <point x="130.0" y="1003.0" type="line"/>
      <point x="733.75" y="1003.0" type="line"/>
      <point x="82.5" y="66.5" type="line"/>
      <point x="82.5" y="0.0" type="line"/>
    </contour>
  </outline>
</glyph>
<glyph name="braceleft" format="2">
  <advance width="723.0"/>
  <unicode hex="007B"/>
  <outline>
    <contour>
      <point x="651.125" y="-324.0" type="curve"/>
      <point x="651.125" y="-236.0" type="line"/>
      <point x="475.125" y="-235.25"/>
      <point x="390.625" y="-170.25"/>
      <point x="390.625" y="-20.375000000000004" type="curve" smooth="yes"/>
      <point x="390.625" y="312.5" type="line" smooth="yes"/>
      <point x="390.625" y="452.5"/>
      <point x="338.375" y="542.75"/>
      <point x="205.75" y="566.25" type="curve"/>
      <point x="205.75" y="573.625" type="line"/>
      <point x="337.625" y="597.75"/>
      <point x="390.625" y="688.0"/>
      <point x="390.625" y="827.0" type="curve" smooth="yes"/>
      <point x="390.625" y="1154.5" type="line" smooth="yes"/>
      <point x="390.625" y="1307.5"/>
      <point x="476.625" y="1373.5"/>
      <point x="651.125" y="1375.0" type="curve"/>
      <point x="651.125" y="1462.0" type="line"/>
      <point x="421.75" y="1462.0"/>
      <point x="289.5" y="1361.0"/>
      <point x="289.5" y="1168.375" type="curve" smooth="yes"/>
      <point x="289.5" y="836.0" type="line" smooth="yes"/>
      <point x="289.5" y="673.625"/>
      <point x="217.75" y="613.875"/>
      <point x="54.5" y="613.125" type="curve"/>
      <point x="54.5" y="526.625" type="line"/>
      <point x="217.75" y="526.625"/>
      <point x="289.5" y="461.375"/>
      <point x="289.5" y="303.0" type="curve" smooth="yes"/>
      <point x="289.5" y="-28.625000000000004" type="line" smooth="yes"/>
      <point x="289.5" y="-222.0"/>
      <point x="417.25" y="-323.25"/>
    </contour>
  </outline>
</glyph>
<glyph name="bar" format="2">
  <advance width="1108"/>
  <unicode hex="007C"/>
  <outline>
    <contour>
      <point x="507" y="1560" type="line"/>
      <point x="507" y="-506" type="line"/>
      <point x="595" y="-506" type="line"/>
      <point x="595" y="1560" type="line"/>
    </contour>
  </outline>
</glyph>
<glyph name="braceright" format="2">
  <advance width="723.0"/>
  <unicode hex="007D"/>
  <outline>
    <contour>
      <point x="71.0" y="-324.0" type="line"/>
      <point x="300.0" y="-324.0"/>
      <point x="432.875" y="-222.0"/>
      <point x="432.875" y="-29.375000000000004" type="curve" smooth="yes"/>
      <point x="432.875" y="303.75" type="line" smooth="yes"/>
      <point x="432.875" y="461.375"/>
      <point x="504.0" y="525.875"/>
      <point x="667.25" y="526.625" type="curve"/>
      <point x="667.25" y="613.125" type="line"/>
      <point x="504.0" y="613.125"/>
      <point x="432.875" y="673.625"/>
      <point x="432.875" y="836.75" type="curve" smooth="yes"/>
      <point x="432.875" y="1167.625" type="line" smooth="yes"/>
      <point x="432.875" y="1361.0"/>
      <point x="304.5" y="1461.25"/>
      <point x="71.0" y="1462.0" type="curve"/>
      <point x="71.0" y="1375.0" type="line"/>
      <point x="246.625" y="1374.25"/>
      <point x="331.125" y="1308.25"/>
      <point x="331.125" y="1155.25" type="curve" smooth="yes"/>
      <point x="331.125" y="826.25" type="line" smooth="yes"/>
      <point x="331.125" y="687.25"/>
      <point x="383.75" y="597.0"/>
      <point x="516.0" y="572.5" type="curve"/>
      <point x="516.0" y="565.5" type="line"/>
      <point x="384.5" y="542.0"/>
      <point x="331.125" y="451.75"/>
      <point x="331.125" y="311.75" type="curve" smooth="yes"/>
      <point x="331.125" y="-19.625000000000004" type="line" smooth="yes"/>
      <point x="331.125" y="-169.5"/>
      <point x="245.125" y="-234.5"/>
      <point x="71.0" y="-236.0" type="curve"/>
    </contour>
  </outline>
</glyph>
<glyph name="asciitilde" format="2">
  <advance width="1168.5"/>
  <unicode hex="007E"/>
  <outline>
    <contour>
      <point x="567.875" y="682.375" type="curve" smooth="yes"/>
      <point x="664.625" y="636.875"/>
      <point x="729.25" y="616.125"/>
      <point x="819.75" y="616.125" type="curve" smooth="yes"/>
      <point x="918.75" y="616.125"/>
      <point x="1001.0" y="658.875"/>
      <point x="1058.25" y="719.875" type="curve"/>
      <point x="1058.25" y="816.625" type="line"/>
      <point x="982.25" y="737.375"/>
      <point x="899.75" y="701.875"/>
      <point x="823.5" y="701.875" type="curve" smooth="yes"/>
      <point x="749.625" y="701.875"/>
      <point x="692.625" y="723.625"/>
      <point x="609.25" y="762.25" type="curve" smooth="yes"/>
      <point x="514.0" y="806.5"/>
      <point x="452.875" y="829.125"/>
      <point x="351.75" y="829.125" type="curve" smooth="yes"/>
      <point x="258.75" y="829.125"/>
      <point x="173.0" y="790.875"/>
      <point x="110.125" y="727.375" type="curve"/>
      <point x="110.125" y="627.375" type="line"/>
      <point x="183.625" y="703.75"/>
      <point x="268.75" y="743.375"/>
      <point x="347.25" y="743.375" type="curve" smooth="yes"/>
      <point x="430.0" y="743.375"/>
      <point x="484.875" y="721.625"/>
    </contour>
  </outline>
</glyph>
<glyph name="exclamdown" format="2">
  <advance width="492.25"/>
  <unicode hex="00A1"/>
  <outline>
    <contour>
      <point x="205.5" y="706.625" type="line"/>
      <point x="183.875" y="-378.0" type="line"/>
      <point x="302.375" y="-378.0" type="line"/>
      <point x="280.75" y="706.625" type="line"/>
    </contour>
    <contour>
      <point x="326.0" y="1013.375" type="curve" smooth="yes"/>
      <point x="326.0" y="1072.0"/>
      <point x="297.75" y="1105.5"/>
      <point x="245.875" y="1105.5" type="curve" smooth="yes"/>
      <point x="189.375" y="1105.5"/>
      <point x="163.875" y="1072.0"/>
      <point x="163.875" y="1013.375" type="curve" smooth="yes"/>
      <point x="163.875" y="954.5"/>
      <point x="189.375" y="922.625"/>
      <point x="245.875" y="922.625" type="curve" smooth="yes"/>
      <point x="297.75" y="922.625"/>
      <point x="326.0" y="954.5"/>
    </contour>
  </outline>
</glyph>
<glyph name="cent" format="2">
  <advance width="1168.5"/>
  <unicode hex="00A2"/>
  <outline>
    <contour>
      <point x="703.625" y="1483.0" type="line"/>
      <point x="619.625" y="1483.0" type="line"/>
      <point x="619.625" y="1306.0" type="line"/>
      <point x="346.5" y="1274.0"/>
      <point x="178.5" y="1072.125"/>
      <point x="178.5" y="739.75" type="curve" smooth="yes"/>
      <point x="178.5" y="410.625"/>
      <point x="326.375" y="207.25"/>
      <point x="619.625" y="184.0" type="curve"/>
      <point x="619.625" y="-20.0" type="line"/>
      <point x="702.875" y="-20.0" type="line"/>
      <point x="702.875" y="181.75" type="line"/>
      <point x="808.25" y="184.5"/>
      <point x="892.25" y="208.0"/>
      <point x="959.375" y="238.75" type="curve"/>
      <point x="959.375" y="329.5" type="line"/>
      <point x="877.875" y="295.75"/>
      <point x="783.875" y="273.5"/>
      <point x="678.0" y="273.5" type="curve" smooth="yes"/>
      <point x="404.625" y="273.5"/>
      <point x="282.25" y="460.25"/>
      <point x="282.25" y="740.5" type="curve" smooth="yes"/>
      <point x="282.25" y="1036.0"/>
      <point x="434.875" y="1220.5"/>
      <point x="702.875" y="1220.5" type="curve" smooth="yes"/>
      <point x="778.75" y="1220.5"/>
      <point x="866.75" y="1203.25"/>
      <point x="945.0" y="1170.0" type="curve"/>
      <point x="971.125" y="1258.125" type="line"/>
      <point x="895.375" y="1291.25"/>
      <point x="810.0" y="1310.0"/>
      <point x="703.625" y="1311.5" type="curve"/>
    </contour>
  </outline>
</glyph>
<glyph name="sterling" format="2">
  <advance width="1168.5"/>
  <unicode hex="00A3"/>
  <outline>
    <contour>
      <point x="697.125" y="1481.0" type="curve" smooth="yes"/>
      <point x="453.875" y="1481.0"/>
      <point x="311.75" y="1338.25"/>
      <point x="311.75" y="1070.875" type="curve" smooth="yes"/>
      <point x="311.75" y="757.25" type="line"/>
      <point x="101.375" y="757.25" type="line"/>
      <point x="101.375" y="674.375" type="line"/>
      <point x="311.75" y="674.375" type="line"/>
      <point x="311.75" y="404.375" type="line" smooth="yes"/>
      <point x="311.75" y="211.25"/>
      <point x="225.75" y="115.0"/>
      <point x="78.5" y="86.375" type="curve"/>
      <point x="78.5" y="0.0" type="line"/>
      <point x="1074.125" y="0.0" type="line"/>
      <point x="1074.125" y="93.375" type="line"/>
      <point x="257.75" y="93.375" type="line"/>
      <point x="344.125" y="138.875"/>
      <point x="412.75" y="225.375"/>
      <point x="412.75" y="406.375" type="curve" smooth="yes"/>
      <point x="412.75" y="674.375" type="line"/>
      <point x="824.125" y="674.375" type="line"/>
      <point x="824.125" y="757.25" type="line"/>
      <point x="412.75" y="757.25" type="line"/>
      <point x="412.75" y="1058.75" type="line" smooth="yes"/>
      <point x="412.75" y="1288.75"/>
      <point x="508.25" y="1392.875"/>
      <point x="698.625" y="1392.875" type="curve" smooth="yes"/>
      <point x="811.5" y="1392.875"/>
      <point x="898.5" y="1363.875"/>
      <point x="985.5" y="1326.125" type="curve"/>
      <point x="1021.375" y="1412.0" type="line"/>
      <point x="935.75" y="1450.25"/>
      <point x="834.0" y="1481.0"/>
    </contour>
  </outline>
</glyph>
<glyph name="currency" format="2">
  <advance width="1169"/>
  <unicode hex="00A4"/>
  <outline>
    <contour>
      <point x="177" y="724" type="curve" smooth="yes"/>
      <point x="177" y="632"/>
      <point x="209" y="540"/>
      <point x="267" y="468" type="curve"/>
      <point x="119" y="317" type="line"/>
      <point x="175" y="260" type="line"/>
      <point x="325" y="409" type="line"/>
      <point x="397" y="349"/>
      <point x="489" y="317"/>
      <point x="584" y="317" type="curve" smooth="yes"/>
      <point x="676" y="317"/>
      <point x="768" y="349"/>
      <point x="840" y="409" type="curve"/>
      <point x="991" y="260" type="line"/>
      <point x="1047" y="316" type="line"/>
      <point x="899" y="467" type="line"/>
      <point x="959" y="539"/>
      <point x="991" y="632"/>
      <point x="991" y="724" type="curve" smooth="yes"/>
      <point x="991" y="817"/>
      <point x="957" y="909"/>
      <point x="899" y="981" type="curve"/>
      <point x="1047" y="1131" type="line"/>
      <point x="991" y="1188" type="line"/>
      <point x="840" y="1040" type="line"/>
      <point x="767" y="1101"/>
      <point x="676" y="1132"/>
      <point x="584" y="1132" type="curve" smooth="yes"/>
      <point x="489" y="1132"/>
      <point x="398" y="1101"/>
      <point x="325" y="1040" type="curve"/>
      <point x="175" y="1189" type="line"/>
      <point x="119" y="1132" type="line"/>
      <point x="267" y="980" type="line"/>
      <point x="209" y="908"/>
      <point x="177" y="816"/>
    </contour>
    <contour>
      <point x="256" y="724" type="curve" smooth="yes"/>
      <point x="256" y="907"/>
      <point x="404" y="1054"/>
      <point x="585" y="1054" type="curve" smooth="yes"/>
      <point x="764" y="1054"/>
      <point x="912" y="906"/>
      <point x="912" y="726" type="curve" smooth="yes"/>
      <point x="912" y="544"/>
      <point x="764" y="396"/>
      <point x="582" y="396" type="curve" smooth="yes"/>
      <point x="405" y="396"/>
      <point x="256" y="538"/>
    </contour>
  </outline>
</glyph>
<glyph name="yen" format="2">
  <advance width="1168.5"/>
  <unicode hex="00A5"/>
  <outline>
    <contour>
      <point x="585.25" y="710.5" type="line"/>
      <point x="154.0" y="1462.0" type="line"/>
      <point x="42.75" y="1462.0" type="line"/>
      <point x="501.625" y="674.0" type="line"/>
      <point x="194.125" y="674.0" type="line"/>
      <point x="194.125" y="592.375" type="line"/>
      <point x="535.375" y="592.375" type="line"/>
      <point x="535.375" y="387.5" type="line"/>
      <point x="194.125" y="387.5" type="line"/>
      <point x="194.125" y="306.5" type="line"/>
      <point x="535.375" y="306.5" type="line"/>
      <point x="535.375" y="0.0" type="line"/>
      <point x="634.5" y="0.0" type="line"/>
      <point x="634.5" y="306.5" type="line"/>
      <point x="974.75" y="306.5" type="line"/>
      <point x="974.75" y="387.5" type="line"/>
      <point x="634.5" y="387.5" type="line"/>
      <point x="634.5" y="592.375" type="line"/>
      <point x="974.75" y="592.375" type="line"/>
      <point x="974.75" y="674.0" type="line"/>
      <point x="664.5" y="674.0" type="line"/>
      <point x="1124.625" y="1462.0" type="line"/>
      <point x="1014.375" y="1462.0" type="line"/>
    </contour>
  </outline>
</glyph>
<glyph name="brokenbar" format="2">
  <advance width="1108.0"/>
  <unicode hex="00A6"/>
  <outline>
    <contour>
      <point x="507.125" y="1560.375" type="line"/>
      <point x="507.125" y="796.625" type="line"/>
      <point x="595.25" y="796.625" type="line"/>
      <point x="595.25" y="1560.375" type="line"/>
    </contour>
    <contour>
      <point x="507.125" y="258.875" type="line"/>
      <point x="507.125" y="-506.5" type="line"/>
      <point x="595.25" y="-506.5" type="line"/>
      <point x="595.25" y="258.875" type="line"/>
    </contour>
  </outline>
</glyph>
<glyph name="section" format="2">
  <advance width="1057.25"/>
  <unicode hex="00A7"/>
  <outline>
    <contour>
      <point x="156.375" y="809.0" type="curve" smooth="yes"/>
      <point x="156.375" y="620.875"/>
      <point x="295.125" y="563.0"/>
      <point x="490.125" y="498.625" type="curve" smooth="yes"/>
      <point x="682.5" y="435.25"/>
      <point x="786.0" y="390.5"/>
      <point x="786.0" y="272.0" type="curve" smooth="yes"/>
      <point x="786.0" y="158.75"/>
      <point x="701.125" y="77.0"/>
      <point x="476.25" y="77.0" type="curve" smooth="yes"/>
      <point x="351.0" y="77.0"/>
      <point x="227.125" y="110.0"/>
      <point x="128.5" y="157.25" type="curve"/>
      <point x="128.5" y="62.625" type="line"/>
      <point x="208.25" y="25.875"/>
      <point x="326.875" y="-5.0"/>
      <point x="473.25" y="-5.0" type="curve" smooth="yes"/>
      <point x="741.125" y="-5.0"/>
      <point x="883.625" y="103.0"/>
      <point x="883.625" y="277.625" type="curve" smooth="yes"/>
      <point x="883.625" y="393.5"/>
      <point x="816.125" y="458.5"/>
      <point x="717.0" y="504.5" type="curve"/>
      <point x="815.125" y="555.25"/>
      <point x="892.5" y="647.5"/>
      <point x="892.5" y="781.5" type="curve" smooth="yes"/>
      <point x="892.5" y="967.375"/>
      <point x="736.125" y="1027.75"/>
      <point x="548.25" y="1091.375" type="curve" smooth="yes"/>
      <point x="370.5" y="1151.75"/>
      <point x="262.25" y="1183.5"/>
      <point x="262.25" y="1300.125" type="curve" smooth="yes"/>
      <point x="262.25" y="1415.75"/>
      <point x="356.625" y="1475.75"/>
      <point x="537.5" y="1475.75" type="curve" smooth="yes"/>
      <point x="651.625" y="1475.75"/>
      <point x="754.25" y="1450.75"/>
      <point x="835.125" y="1413.75" type="curve"/>
      <point x="870.125" y="1495.75" type="line"/>
      <point x="779.375" y="1533.0"/>
      <point x="676.25" y="1558.875"/>
      <point x="542.0" y="1558.875" type="curve" smooth="yes"/>
      <point x="305.75" y="1558.875"/>
      <point x="166.125" y="1461.0"/>
      <point x="166.125" y="1298.625" type="curve" smooth="yes"/>
      <point x="166.125" y="1175.125"/>
      <point x="242.875" y="1115.0"/>
      <point x="355.25" y="1068.25" type="curve"/>
      <point x="241.875" y="1026.0"/>
      <point x="156.375" y="942.75"/>
    </contour>
    <contour>
      <point x="247.25" y="816.5" type="curve" smooth="yes"/>
      <point x="247.25" y="933.75"/>
      <point x="339.5" y="1001.875"/>
      <point x="452.375" y="1031.625" type="curve"/>
      <point x="691.25" y="965.375"/>
      <point x="800.625" y="903.75"/>
      <point x="800.625" y="771.75" type="curve" smooth="yes"/>
      <point x="800.625" y="663.5"/>
      <point x="729.5" y="583.625"/>
      <point x="634.0" y="540.375" type="curve"/>
      <point x="540.25" y="571.125" type="line" smooth="yes"/>
      <point x="358.125" y="633.75"/>
      <point x="247.25" y="677.75"/>
    </contour>
  </outline>
</glyph>
<glyph name="ordfeminine" format="2">
  <advance width="686.0"/>
  <unicode hex="00AA"/>
  <anchor x="326.375" y="805.375" name="bottom"/>
  <anchor x="339.5" y="1485.0" name="top"/>
  <outline>
    <contour>
      <point x="352.0" y="1479.0" type="curve" smooth="yes"/>
      <point x="268.0" y="1479.0"/>
      <point x="187.875" y="1455.25"/>
      <point x="121.625" y="1422.75" type="curve"/>
      <point x="152.0" y="1354.625" type="line"/>
      <point x="214.25" y="1388.125"/>
      <point x="277.375" y="1406.375"/>
      <point x="349.25" y="1406.375" type="curve" smooth="yes"/>
      <point x="439.25" y="1406.375"/>
      <point x="499.0" y="1364.125"/>
      <point x="499.0" y="1260.375" type="curve" smooth="yes"/>
      <point x="499.0" y="1203.5" type="line"/>
      <point x="397.75" y="1199.5" type="line" smooth="yes"/>
      <point x="178.75" y="1190.25"/>
      <point x="77.25" y="1124.0"/>
      <point x="77.25" y="992.0" type="curve" smooth="yes"/>
      <point x="77.25" y="865.0"/>
      <point x="157.625" y="803.375"/>
      <point x="286.625" y="803.375" type="curve" smooth="yes"/>
      <point x="387.75" y="803.375"/>
      <point x="460.0" y="846.875"/>
      <point x="500.0" y="906.125" type="curve"/>
      <point x="514.375" y="813.25" type="line"/>
      <point x="579.75" y="813.25" type="line"/>
      <point x="579.75" y="1263.875" type="line" smooth="yes"/>
      <point x="579.75" y="1406.5"/>
      <point x="504.0" y="1479.0"/>
    </contour>
    <contour>
      <point x="499.0" y="1137.125" type="line"/>
      <point x="499.0" y="1074.5" type="line" smooth="yes"/>
      <point x="499.0" y="950.5"/>
      <point x="434.75" y="874.625"/>
      <point x="299.5" y="874.625" type="curve" smooth="yes"/>
      <point x="211.875" y="874.625"/>
      <point x="160.75" y="912.375"/>
      <point x="160.75" y="992.0" type="curve" smooth="yes"/>
      <point x="160.75" y="1086.625"/>
      <point x="230.125" y="1125.875"/>
      <point x="402.875" y="1133.125" type="curve" smooth="yes"/>
    </contour>
  </outline>
</glyph>
<glyph name="guillemotleft" format="2">
  <advance width="889"/>
  <unicode hex="00AB"/>
  <outline>
    <contour>
      <point x="64" y="572" type="line"/>
      <point x="64" y="545" type="line"/>
      <point x="388" y="154" type="line"/>
      <point x="456" y="197" type="line"/>
      <point x="174" y="560" type="line"/>
      <point x="456" y="923" type="line"/>
      <point x="388" y="966" type="line"/>
    </contour>
    <contour>
      <point x="432" y="572" type="line"/>
      <point x="432" y="545" type="line"/>
      <point x="758" y="154" type="line"/>
      <point x="826" y="197" type="line"/>
      <point x="543" y="560" type="line"/>
      <point x="826" y="923" type="line"/>
      <point x="758" y="966" type="line"/>
    </contour>
  </outline>
</glyph>
<glyph name="logicalnot" format="2">
  <advance width="1169"/>
  <unicode hex="00AC"/>
  <outline>
    <contour>
      <point x="1037" y="766" type="line"/>
      <point x="109" y="766" type="line"/>
      <point x="109" y="680" type="line"/>
      <point x="952" y="680" type="line"/>
      <point x="952" y="267" type="line"/>
      <point x="1037" y="267" type="line"/>
    </contour>
  </outline>
</glyph>
<glyph name="registered" format="2">
  <advance width="1704"/>
  <unicode hex="00AE"/>
  <outline>
    <contour>
      <point x="595" y="289" type="line"/>
      <point x="686" y="289" type="line"/>
      <point x="686" y="654" type="line"/>
      <point x="878" y="654" type="line"/>
      <point x="1095" y="289" type="line"/>
      <point x="1202" y="289" type="line"/>
      <point x="966" y="676" type="line"/>
      <point x="1065" y="709"/>
      <point x="1146" y="785"/>
      <point x="1146" y="917" type="curve" smooth="yes"/>
      <point x="1146" y="1091"/>
      <point x="1034" y="1170"/>
      <point x="845" y="1170" type="curve" smooth="yes"/>
      <point x="595" y="1170" type="line"/>
    </contour>
    <contour>
      <point x="685" y="730" type="line"/>
      <point x="685" y="1090" type="line"/>
      <point x="840" y="1090" type="line" smooth="yes"/>
      <point x="973" y="1090"/>
      <point x="1056" y="1039"/>
      <point x="1056" y="916" type="curve" smooth="yes"/>
      <point x="1056" y="791"/>
      <point x="964" y="730"/>
      <point x="838" y="730" type="curve" smooth="yes"/>
    </contour>
    <contour>
      <point x="852" y="-17" type="curve" smooth="yes"/>
      <point x="1273" y="-17"/>
      <point x="1603" y="310"/>
      <point x="1603" y="731" type="curve" smooth="yes"/>
      <point x="1603" y="1136"/>
      <point x="1281" y="1481"/>
      <point x="852" y="1481" type="curve" smooth="yes"/>
      <point x="434" y="1481"/>
      <point x="101" y="1161"/>
      <point x="101" y="731" type="curve" smooth="yes"/>
      <point x="101" y="312"/>
      <point x="415" y="-17"/>
    </contour>
    <contour>
      <point x="852" y="55" type="curve" smooth="yes"/>
      <point x="453" y="55"/>
      <point x="178" y="361"/>
      <point x="178" y="731" type="curve" smooth="yes"/>
      <point x="178" y="1114"/>
      <point x="469" y="1407"/>
      <point x="852" y="1407" type="curve" smooth="yes"/>
      <point x="1241" y="1407"/>
      <point x="1525" y="1098"/>
      <point x="1525" y="731" type="curve" smooth="yes"/>
      <point x="1525" y="359"/>
      <point x="1233" y="55"/>
    </contour>
  </outline>
</glyph>
<glyph name="degree" format="2">
  <advance width="877.0"/>
  <unicode hex="00B0"/>
  <outline>
    <contour>
      <point x="438.0" y="884.625" type="curve" smooth="yes"/>
      <point x="615.375" y="884.625"/>
      <point x="743.375" y="1002.875"/>
      <point x="743.375" y="1183.875" type="curve" smooth="yes"/>
      <point x="743.375" y="1360.25"/>
      <point x="615.375" y="1483.0"/>
      <point x="438.0" y="1483.0" type="curve" smooth="yes"/>
      <point x="259.25" y="1483.0"/>
      <point x="133.0" y="1362.75"/>
      <point x="133.0" y="1183.875" type="curve" smooth="yes"/>
      <point x="133.0" y="1002.875"/>
      <point x="262.0" y="884.625"/>
    </contour>
    <contour>
      <point x="437.5" y="961.875" type="curve" smooth="yes"/>
      <point x="297.5" y="961.875"/>
      <point x="217.875" y="1054.25"/>
      <point x="217.875" y="1183.875" type="curve" smooth="yes"/>
      <point x="217.875" y="1317.875"/>
      <point x="298.25" y="1406.5"/>
      <point x="437.5" y="1406.5" type="curve" smooth="yes"/>
      <point x="571.25" y="1406.5"/>
      <point x="659.125" y="1317.875"/>
      <point x="659.125" y="1183.875" type="curve" smooth="yes"/>
      <point x="659.125" y="1054.25"/>
      <point x="573.5" y="961.875"/>
    </contour>
  </outline>
</glyph>
<glyph name="twosuperior" format="2">
  <advance width="688.875"/>
  <unicode hex="00B2"/>
  <outline>
    <contour>
      <point x="628.25" y="852.0" type="line"/>
      <point x="628.25" y="931.5" type="line"/>
      <point x="167.0" y="931.5" type="line"/>
      <point x="361.125" y="1125.125" type="line" smooth="yes"/>
      <point x="519.375" y="1282.5"/>
      <point x="613.375" y="1372.5"/>
      <point x="613.375" y="1513.125" type="curve" smooth="yes"/>
      <point x="613.375" y="1653.75"/>
      <point x="514.5" y="1749.5"/>
      <point x="346.75" y="1749.5" type="curve" smooth="yes"/>
      <point x="242.875" y="1749.5"/>
      <point x="153.375" y="1712.0"/>
      <point x="77.125" y="1648.375" type="curve"/>
      <point x="121.0" y="1587.5" type="line"/>
      <point x="194.125" y="1643.0"/>
      <point x="261.5" y="1673.0"/>
      <point x="346.0" y="1673.0" type="curve" smooth="yes"/>
      <point x="459.875" y="1673.0"/>
      <point x="524.25" y="1608.625"/>
      <point x="524.25" y="1510.125" type="curve" smooth="yes"/>
      <point x="524.25" y="1398.75"/>
      <point x="453.5" y="1322.625"/>
      <point x="298.75" y="1167.625" type="curve" smooth="yes"/>
      <point x="52.75" y="920.5" type="line"/>
      <point x="52.75" y="852.0" type="line"/>
    </contour>
  </outline>
</glyph>
<glyph name="threesuperior" format="2">
  <advance width="688.875"/>
  <unicode hex="00B3"/>
  <outline>
    <contour>
      <point x="344.25" y="1744.5" type="curve" smooth="yes"/>
      <point x="227.875" y="1744.5"/>
      <point x="138.0" y="1709.25"/>
      <point x="59.625" y="1654.5" type="curve"/>
      <point x="99.875" y="1590.75" type="line"/>
      <point x="176.0" y="1637.75"/>
      <point x="249.75" y="1668.75"/>
      <point x="345.0" y="1668.75" type="curve" smooth="yes"/>
      <point x="454.375" y="1668.75"/>
      <point x="523.0" y="1614.125"/>
      <point x="523.0" y="1520.625" type="curve" smooth="yes"/>
      <point x="523.0" y="1411.5"/>
      <point x="448.875" y="1346.375"/>
      <point x="306.25" y="1346.375" type="curve" smooth="yes"/>
      <point x="176.75" y="1346.375" type="line"/>
      <point x="176.75" y="1272.125" type="line"/>
      <point x="306.25" y="1272.125" type="line" smooth="yes"/>
      <point x="464.125" y="1272.125"/>
      <point x="545.625" y="1220.375"/>
      <point x="545.625" y="1105.5" type="curve" smooth="yes"/>
      <point x="545.625" y="987.625"/>
      <point x="465.375" y="916.375"/>
      <point x="307.5" y="916.375" type="curve" smooth="yes"/>
      <point x="218.0" y="916.375"/>
      <point x="132.0" y="940.125"/>
      <point x="46.25" y="978.25" type="curve"/>
      <point x="46.25" y="894.25" type="line"/>
      <point x="120.75" y="859.5"/>
      <point x="209.25" y="841.0"/>
      <point x="306.75" y="841.0" type="curve" smooth="yes"/>
      <point x="520.625" y="841.0"/>
      <point x="635.75" y="941.0"/>
      <point x="635.75" y="1104.0" type="curve" smooth="yes"/>
      <point x="635.75" y="1218.375"/>
      <point x="569.875" y="1288.5"/>
      <point x="459.125" y="1312.0" type="curve"/>
      <point x="459.125" y="1316.75" type="line"/>
      <point x="546.75" y="1339.0"/>
      <point x="612.875" y="1413.5"/>
      <point x="612.875" y="1527.0" type="curve" smooth="yes"/>
      <point x="612.875" y="1660.5"/>
      <point x="513.25" y="1744.5"/>
    </contour>
  </outline>
</glyph>
<glyph name="acute" format="2">
  <advance width="534"/>
  <unicode hex="00B4"/>
  <outline>
    <contour>
      <point x="453" y="1569" type="line"/>
      <point x="333" y="1569" type="line"/>
      <point x="278" y="1480"/>
      <point x="162" y="1337"/>
      <point x="82" y="1258" type="curve"/>
      <point x="82" y="1241" type="line"/>
      <point x="154" y="1241" type="line"/>
      <point x="257" y="1325"/>
      <point x="388" y="1466"/>
      <point x="453" y="1552" type="curve"/>
    </contour>
  </outline>
</glyph>
<glyph name="micro" format="2">
  <advance width="1221.0"/>
  <unicode hex="00B5"/>
  <outline>
    <contour>
      <point x="1038.875" y="1087.375" type="line"/>
      <point x="939.5" y="1087.375" type="line"/>
      <point x="939.5" y="487.875" type="line" smooth="yes"/>
      <point x="939.5" y="218.75"/>
      <point x="849.0" y="67.75"/>
      <point x="586.25" y="67.75" type="curve" smooth="yes"/>
      <point x="379.75" y="67.75"/>
      <point x="280.25" y="174.0"/>
      <point x="280.25" y="382.75" type="curve" smooth="yes"/>
      <point x="280.25" y="1087.375" type="line"/>
      <point x="180.25" y="1087.375" type="line"/>
      <point x="180.25" y="-492.0" type="line"/>
      <point x="280.25" y="-492.0" type="line"/>
      <point x="280.25" y="-87.625" type="line" smooth="yes"/>
      <point x="280.25" y="-7.249999999999993"/>
      <point x="278.75" y="66.125"/>
      <point x="276.5" y="117.625" type="curve"/>
      <point x="282.0" y="117.625" type="line"/>
      <point x="332.875" y="34.125"/>
      <point x="428.5" y="-20.0"/>
      <point x="581.75" y="-20.0" type="curve" smooth="yes"/>
      <point x="783.5" y="-20.0"/>
      <point x="874.875" y="63.375"/>
      <point x="934.25" y="175.75" type="curve"/>
      <point x="940.5" y="175.75" type="line"/>
      <point x="954.75" y="0.0" type="line"/>
      <point x="1038.875" y="0.0" type="line"/>
    </contour>
  </outline>
</glyph>
<glyph name="paragraph" format="2">
  <advance width="1341.0"/>
  <unicode hex="00B6"/>
  <outline>
    <contour>
      <point x="1083.375" y="-260.0" type="line"/>
      <point x="1083.375" y="1556.0" type="line"/>
      <point x="563.0" y="1556.0" type="line" smooth="yes"/>
      <point x="305.0" y="1556.0"/>
      <point x="164.25" y="1414.625"/>
      <point x="164.25" y="1103.875" type="curve" smooth="yes"/>
      <point x="164.25" y="811.125"/>
      <point x="295.25" y="646.0"/>
      <point x="532.0" y="646.0" type="curve" smooth="yes"/>
      <point x="587.5" y="646.0"/>
      <point x="634.5" y="652.0"/>
      <point x="678.0" y="664.0" type="curve"/>
      <point x="678.0" y="-260.0" type="line"/>
      <point x="755.75" y="-260.0" type="line"/>
      <point x="755.75" y="1481.375" type="line"/>
      <point x="1006.0" y="1481.375" type="line"/>
      <point x="1006.0" y="-260.0" type="line"/>
    </contour>
  </outline>
</glyph>
<glyph name="cedilla" format="2">
  <advance width="420"/>
  <unicode hex="00B8"/>
  <outline>
    <contour>
      <point x="393" y="-292" type="curve" smooth="yes"/>
      <point x="393" y="-192"/>
      <point x="320" y="-136"/>
      <point x="209" y="-124" type="curve"/>
      <point x="271" y="0" type="line"/>
      <point x="194" y="0" type="line"/>
      <point x="105" y="-175" type="line"/>
      <point x="235" y="-180"/>
      <point x="307" y="-214"/>
      <point x="307" y="-295" type="curve" smooth="yes"/>
      <point x="307" y="-378"/>
      <point x="240" y="-418"/>
      <point x="137" y="-418" type="curve" smooth="yes"/>
      <point x="91" y="-418"/>
      <point x="54" y="-416"/>
      <point x="23" y="-407" type="curve"/>
      <point x="23" y="-480" type="line"/>
      <point x="51" y="-487"/>
      <point x="88" y="-492"/>
      <point x="135" y="-492" type="curve" smooth="yes"/>
      <point x="293" y="-492"/>
      <point x="393" y="-416"/>
    </contour>
  </outline>
</glyph>
<glyph name="onesuperior" format="2">
  <advance width="688.875"/>
  <unicode hex="00B9"/>
  <outline>
    <contour>
      <point x="431.375" y="1729.0" type="line"/>
      <point x="349.5" y="1729.0" type="line"/>
      <point x="76.0" y="1564.375" type="line"/>
      <point x="116.375" y="1498.75" type="line"/>
      <point x="218.625" y="1560.625" type="line" smooth="yes"/>
      <point x="272.375" y="1591.5"/>
      <point x="308.625" y="1614.375"/>
      <point x="347.75" y="1642.75" type="curve"/>
      <point x="345.0" y="1575.125"/>
      <point x="343.5" y="1497.0"/>
      <point x="343.5" y="1422.0" type="curve" smooth="yes"/>
      <point x="343.5" y="852.0" type="line"/>
      <point x="431.375" y="852.0" type="line"/>
    </contour>
  </outline>
</glyph>
<glyph name="ordmasculine" format="2">
  <advance width="739"/>
  <unicode hex="00BA"/>
  <anchor x="368" y="797" name="bottom"/>
  <anchor x="377" y="1485" name="top"/>
  <outline>
    <contour>
      <point x="672" y="1142" type="curve" smooth="yes"/>
      <point x="672" y="1344"/>
      <point x="571" y="1483"/>
      <point x="376" y="1483" type="curve" smooth="yes"/>
      <point x="188" y="1483"/>
      <point x="72" y="1355"/>
      <point x="72" y="1142" type="curve" smooth="yes"/>
      <point x="72" y="936"/>
      <point x="183" y="800"/>
      <point x="370" y="800" type="curve" smooth="yes"/>
      <point x="564" y="800"/>
      <point x="672" y="939"/>
    </contour>
    <contour>
      <point x="155" y="1142" type="curve" smooth="yes"/>
      <point x="155" y="1313"/>
      <point x="231" y="1410"/>
      <point x="375" y="1410" type="curve" smooth="yes"/>
      <point x="524" y="1410"/>
      <point x="588" y="1300"/>
      <point x="588" y="1142" type="curve" smooth="yes"/>
      <point x="588" y="979"/>
      <point x="521" y="872"/>
      <point x="371" y="872" type="curve" smooth="yes"/>
      <point x="224" y="872"/>
      <point x="155" y="978"/>
    </contour>
  </outline>
</glyph>
<glyph name="guillemotright" format="2">
  <advance width="889"/>
  <unicode hex="00BB"/>
  <outline>
    <contour>
      <point x="825" y="548" type="line"/>
      <point x="825" y="575" type="line"/>
      <point x="500" y="966" type="line"/>
      <point x="431" y="924" type="line"/>
      <point x="715" y="561" type="line"/>
      <point x="431" y="198" type="line"/>
      <point x="500" y="154" type="line"/>
    </contour>
    <contour>
      <point x="456" y="548" type="line"/>
      <point x="456" y="575" type="line"/>
      <point x="131" y="966" type="line"/>
      <point x="63" y="924" type="line"/>
      <point x="346" y="561" type="line"/>
      <point x="63" y="198" type="line"/>
      <point x="131" y="154" type="line"/>
    </contour>
  </outline>
</glyph>
<glyph name="onequarter" format="2">
  <advance width="1466"/>
  <unicode hex="00BC"/>
  <outline>
    <contour>
      <point x="285" y="0" type="line"/>
      <point x="378" y="0" type="line"/>
      <point x="1189" y="1462" type="line"/>
      <point x="1096" y="1462" type="line"/>
    </contour>
    <contour>
      <point x="314" y="586" type="line"/>
      <point x="402" y="586" type="line"/>
      <point x="402" y="1462" type="line"/>
      <point x="320" y="1462" type="line"/>
      <point x="47" y="1298" type="line"/>
      <point x="87" y="1233" type="line"/>
      <point x="190" y="1294" type="line" smooth="yes"/>
      <point x="243" y="1326"/>
      <point x="280" y="1348"/>
      <point x="319" y="1377" type="curve"/>
      <point x="316" y="1309"/>
      <point x="314" y="1231"/>
      <point x="314" y="1156" type="curve" smooth="yes"/>
    </contour>
    <contour>
      <point x="1216" y="0" type="line"/>
      <point x="1306" y="0" type="line"/>
      <point x="1306" y="241" type="line"/>
      <point x="1447" y="241" type="line"/>
      <point x="1447" y="318" type="line"/>
      <point x="1306" y="318" type="line"/>
      <point x="1306" y="883" type="line"/>
      <point x="1214" y="883" type="line"/>
      <point x="805" y="304" type="line"/>
      <point x="805" y="241" type="line"/>
      <point x="1216" y="241" type="line"/>
    </contour>
    <contour>
      <point x="900" y="318" type="line"/>
      <point x="1140" y="658" type="line" smooth="yes"/>
      <point x="1168" y="700"/>
      <point x="1198" y="744"/>
      <point x="1219" y="783" type="curve"/>
      <point x="1217" y="725"/>
      <point x="1216" y="662"/>
      <point x="1216" y="599" type="curve" smooth="yes"/>
      <point x="1216" y="318" type="line"/>
    </contour>
  </outline>
</glyph>
<glyph name="onehalf" format="2">
  <advance width="1544.625"/>
  <unicode hex="00BD"/>
  <outline>
    <contour>
      <point x="262.0" y="0.0" type="line"/>
      <point x="355.0" y="0.0" type="line"/>
      <point x="1166.125" y="1462.0" type="line"/>
      <point x="1073.125" y="1462.0" type="line"/>
    </contour>
    <contour>
      <point x="305.0" y="586.0" type="line"/>
      <point x="392.875" y="586.0" type="line"/>
      <point x="392.875" y="1462.0" type="line"/>
      <point x="311.0" y="1462.0" type="line"/>
      <point x="37.5" y="1298.375" type="line"/>
      <point x="78.25" y="1232.75" type="line"/>
      <point x="180.125" y="1294.25" type="line" smooth="yes"/>
      <point x="233.875" y="1325.5"/>
      <point x="270.125" y="1348.375"/>
      <point x="309.625" y="1376.75" type="curve"/>
      <point x="306.5" y="1309.125"/>
      <point x="305.0" y="1231.0"/>
      <point x="305.0" y="1156.0" type="curve" smooth="yes"/>
    </contour>
    <contour>
      <point x="908.5" y="0.0" type="line"/>
      <point x="1484.0" y="0.0" type="line"/>
      <point x="1484.0" y="79.5" type="line"/>
      <point x="1023.125" y="79.5" type="line"/>
      <point x="1216.875" y="273.125" type="line" smooth="yes"/>
      <point x="1375.125" y="430.5"/>
      <point x="1469.125" y="520.5"/>
      <point x="1469.125" y="661.125" type="curve" smooth="yes"/>
      <point x="1469.125" y="801.75"/>
      <point x="1370.25" y="897.5"/>
      <point x="1202.5" y="897.5" type="curve" smooth="yes"/>
      <point x="1099.0" y="897.5"/>
      <point x="1009.125" y="860.0"/>
      <point x="933.25" y="796.375" type="curve"/>
      <point x="976.75" y="735.5" type="line"/>
      <point x="1049.875" y="791.0"/>
      <point x="1117.25" y="821.0"/>
      <point x="1201.75" y="821.0" type="curve" smooth="yes"/>
      <point x="1315.625" y="821.0"/>
      <point x="1380.375" y="756.625"/>
      <point x="1380.375" y="658.125" type="curve" smooth="yes"/>
      <point x="1380.375" y="546.75"/>
      <point x="1309.25" y="470.625"/>
      <point x="1154.5" y="315.625" type="curve" smooth="yes"/>
      <point x="908.5" y="68.5" type="line"/>
    </contour>
  </outline>
</glyph>
<glyph name="threequarters" format="2">
  <advance width="1569.625"/>
  <unicode hex="00BE"/>
  <outline>
    <contour>
      <point x="395.5" y="0.0" type="line"/>
      <point x="488.875" y="0.0" type="line"/>
      <point x="1300.0" y="1462.0" type="line"/>
      <point x="1206.625" y="1462.0" type="line"/>
    </contour>
    <contour>
      <point x="305.25" y="574.625" type="curve" smooth="yes"/>
      <point x="519.125" y="574.625"/>
      <point x="634.25" y="675.0"/>
      <point x="634.25" y="838.0" type="curve" smooth="yes"/>
      <point x="634.25" y="951.75"/>
      <point x="568.375" y="1022.5"/>
      <point x="457.625" y="1045.625" type="curve"/>
      <point x="457.625" y="1050.75" type="line"/>
      <point x="545.25" y="1073.0"/>
      <point x="611.375" y="1147.5"/>
      <point x="611.375" y="1260.625" type="curve" smooth="yes"/>
      <point x="611.375" y="1394.125"/>
      <point x="511.75" y="1478.5"/>
      <point x="342.75" y="1478.5" type="curve" smooth="yes"/>
      <point x="226.375" y="1478.5"/>
      <point x="136.5" y="1443.25"/>
      <point x="58.125" y="1388.125" type="curve"/>
      <point x="98.375" y="1324.75" type="line"/>
      <point x="174.5" y="1371.75"/>
      <point x="248.25" y="1402.125"/>
      <point x="343.5" y="1402.125" type="curve" smooth="yes"/>
      <point x="452.875" y="1402.125"/>
      <point x="521.5" y="1348.125"/>
      <point x="521.5" y="1254.625" type="curve" smooth="yes"/>
      <point x="521.5" y="1145.5"/>
      <point x="447.375" y="1080.375"/>
      <point x="304.75" y="1080.375" type="curve" smooth="yes"/>
      <point x="175.25" y="1080.375" type="line"/>
      <point x="175.25" y="1006.125" type="line"/>
      <point x="304.75" y="1006.125" type="line" smooth="yes"/>
      <point x="462.625" y="1006.125"/>
      <point x="544.125" y="954.375"/>
      <point x="544.125" y="839.5" type="curve" smooth="yes"/>
      <point x="544.125" y="721.25"/>
      <point x="463.875" y="650.375"/>
      <point x="306.0" y="650.375" type="curve" smooth="yes"/>
      <point x="216.5" y="650.375"/>
      <point x="130.5" y="673.5"/>
      <point x="44.75" y="712.25" type="curve"/>
      <point x="44.75" y="628.25" type="line"/>
      <point x="119.25" y="593.5"/>
      <point x="207.75" y="574.625"/>
    </contour>
    <contour>
      <point x="1320.5" y="0.0" type="line"/>
      <point x="1409.75" y="0.0" type="line"/>
      <point x="1409.75" y="241.375" type="line"/>
      <point x="1551.625" y="241.375" type="line"/>
      <point x="1551.625" y="317.75" type="line"/>
      <point x="1409.75" y="317.75" type="line"/>
      <point x="1409.75" y="883.0" type="line"/>
      <point x="1318.25" y="883.0" type="line"/>
      <point x="909.25" y="304.25" type="line"/>
      <point x="909.25" y="241.375" type="line"/>
      <point x="1320.5" y="241.375" type="line"/>
    </contour>
    <contour>
      <point x="1004.5" y="317.75" type="line"/>
      <point x="1243.75" y="657.75" type="line" smooth="yes"/>
      <point x="1272.875" y="700.25"/>
      <point x="1302.125" y="743.5"/>
      <point x="1324.0" y="783.25" type="curve"/>
      <point x="1321.25" y="725.375"/>
      <point x="1320.5" y="662.0"/>
      <point x="1320.5" y="599.375" type="curve" smooth="yes"/>
      <point x="1320.5" y="317.75" type="line"/>
    </contour>
  </outline>
</glyph>
<glyph name="questiondown" format="2">
  <advance width="862"/>
  <unicode hex="00BF"/>
  <note>
questiondown
</note>
  <outline>
    <contour>
      <point x="569" y="710" type="line"/>
      <point x="487" y="710" type="line"/>
      <point x="487" y="696" type="line" smooth="yes"/>
      <point x="487" y="631"/>
      <point x="482" y="583"/>
      <point x="471" y="550" type="curve" smooth="yes"/>
      <point x="451" y="485"/>
      <point x="408" y="430"/>
      <point x="323" y="358" type="curve" smooth="yes"/>
      <point x="248" y="295"/>
      <point x="186" y="244"/>
      <point x="142" y="186" type="curve" smooth="yes"/>
      <point x="99" y="128"/>
      <point x="74" y="64"/>
      <point x="74" y="-27" type="curve" smooth="yes"/>
      <point x="74" y="-256"/>
      <point x="223" y="-396"/>
      <point x="467" y="-396" type="curve" smooth="yes"/>
      <point x="572" y="-396"/>
      <point x="658" y="-380"/>
      <point x="805" y="-316" type="curve"/>
      <point x="768" y="-236" type="line"/>
      <point x="661" y="-288"/>
      <point x="576" y="-310"/>
      <point x="471" y="-310" type="curve" smooth="yes"/>
      <point x="290" y="-310"/>
      <point x="168" y="-202"/>
      <point x="168" y="-33" type="curve" smooth="yes"/>
      <point x="168" y="71"/>
      <point x="206" y="145"/>
      <point x="302" y="226" type="curve" smooth="yes"/>
      <point x="332" y="252"/>
      <point x="363" y="279"/>
      <point x="393" y="305" type="curve" smooth="yes"/>
      <point x="528" y="424"/>
      <point x="569" y="509"/>
      <point x="569" y="673" type="curve" smooth="yes"/>
    </contour>
    <contour>
      <point x="522" y="1107" type="curve" smooth="yes"/>
      <point x="467" y="1107"/>
      <point x="440" y="1074"/>
      <point x="440" y="1009" type="curve" smooth="yes"/>
      <point x="440" y="944"/>
      <point x="467" y="911"/>
      <point x="522" y="911" type="curve" smooth="yes"/>
      <point x="575" y="911"/>
      <point x="602" y="944"/>
      <point x="602" y="1009" type="curve" smooth="yes"/>
      <point x="602" y="1074"/>
      <point x="575" y="1107"/>
    </contour>
  </outline>
</glyph>
<glyph name="AE" format="2">
  <advance width="1653"/>
  <unicode hex="00C6"/>
  <anchor x="827" y="0" name="bottom"/>
  <anchor x="868" y="1462" name="top"/>
  <outline>
    <contour>
      <point x="1590" y="0" type="line"/>
      <point x="1590" y="93" type="line"/>
      <point x="915" y="93" type="line"/>
      <point x="915" y="722" type="line"/>
      <point x="1550" y="722" type="line"/>
      <point x="1550" y="815" type="line"/>
      <point x="915" y="815" type="line"/>
      <point x="915" y="1369" type="line"/>
      <point x="1590" y="1369" type="line"/>
      <point x="1590" y="1462" type="line"/>
      <point x="651" y="1462" type="line"/>
      <point x="-2" y="0" type="line"/>
      <point x="109" y="0" type="line"/>
      <point x="337" y="516" type="line"/>
      <point x="813" y="516" type="line"/>
      <point x="813" y="0" type="line"/>
    </contour>
    <contour>
      <point x="379" y="609" type="line"/>
      <point x="714" y="1369" type="line"/>
      <point x="813" y="1369" type="line"/>
      <point x="813" y="609" type="line"/>
    </contour>
  </outline>
</glyph>
<glyph name="Eth" format="2">
  <advance width="1446.25"/>
  <unicode hex="00D0"/>
  <anchor x="723.625" y="0.0" name="bottom"/>
  <anchor x="723.625" y="1462.0" name="top"/>
  <outline>
    <contour>
      <point x="601.5" y="1462.0" type="curve" smooth="yes"/>
      <point x="211.75" y="1462.0" type="line"/>
      <point x="211.75" y="772.375" type="line"/>
      <point x="44.75" y="772.375" type="line"/>
      <point x="44.75" y="679.875" type="line"/>
      <point x="211.75" y="679.875" type="line"/>
      <point x="211.75" y="0.0" type="line"/>
      <point x="555.25" y="0.0" type="line" smooth="yes"/>
      <point x="1056.375" y="0.0"/>
      <point x="1317.5" y="254.5"/>
      <point x="1317.5" y="745.0" type="curve" smooth="yes"/>
      <point x="1317.5" y="1211.5"/>
      <point x="1068.25" y="1462.0"/>
    </contour>
    <contour>
      <point x="579.25" y="1371.25" type="line" smooth="yes"/>
      <point x="1007.375" y="1371.25"/>
      <point x="1210.375" y="1159.25"/>
      <point x="1210.375" y="741.5" type="curve" smooth="yes"/>
      <point x="1210.375" y="307.125"/>
      <point x="992.75" y="91.125"/>
      <point x="550.75" y="91.125" type="curve" smooth="yes"/>
      <point x="313.875" y="91.125" type="line"/>
      <point x="313.875" y="679.875" type="line"/>
      <point x="714.5" y="679.875" type="line"/>
      <point x="714.5" y="772.375" type="line"/>
      <point x="313.875" y="772.375" type="line"/>
      <point x="313.875" y="1371.25" type="line"/>
    </contour>
  </outline>
</glyph>
<glyph name="multiply" format="2">
  <advance width="1168.5"/>
  <unicode hex="00D7"/>
  <outline>
    <contour>
      <point x="967.125" y="1166.625" type="line"/>
      <point x="584.0" y="783.125" type="line"/>
      <point x="201.75" y="1166.625" type="line"/>
      <point x="139.75" y="1104.625" type="line"/>
      <point x="522.75" y="723.0" type="line"/>
      <point x="140.5" y="340.0" type="line"/>
      <point x="202.5" y="279.375" type="line"/>
      <point x="583.25" y="661.0" type="line"/>
      <point x="966.375" y="279.375" type="line"/>
      <point x="1026.5" y="340.0" type="line"/>
      <point x="644.25" y="723.0" type="line"/>
      <point x="1027.25" y="1105.375" type="line"/>
    </contour>
  </outline>
</glyph>
<glyph name="Oslash" format="2">
  <advance width="1565"/>
  <unicode hex="00D8"/>
  <anchor x="783" y="0" name="bottom"/>
  <anchor x="784" y="1462" name="top"/>
  <outline>
    <contour>
      <point x="1436" y="733" type="curve" smooth="yes"/>
      <point x="1436" y="982"/>
      <point x="1369" y="1179"/>
      <point x="1246" y="1309" type="curve"/>
      <point x="1364" y="1470" type="line"/>
      <point x="1291" y="1521" type="line"/>
      <point x="1179" y="1366" type="line"/>
      <point x="1077" y="1443"/>
      <point x="947" y="1485"/>
      <point x="790" y="1485" type="curve" smooth="yes"/>
      <point x="355" y="1485"/>
      <point x="128" y="1179"/>
      <point x="128" y="735" type="curve" smooth="yes"/>
      <point x="128" y="499"/>
      <point x="190" y="302"/>
      <point x="310" y="168" type="curve"/>
      <point x="183" y="-8" type="line"/>
      <point x="256" y="-57" type="line"/>
      <point x="377" y="109" type="line"/>
      <point x="478" y="25"/>
      <point x="614" y="-20"/>
      <point x="782" y="-20" type="curve" smooth="yes"/>
      <point x="1217" y="-20"/>
      <point x="1436" y="289"/>
    </contour>
    <contour>
      <point x="1329" y="733" type="curve" smooth="yes"/>
      <point x="1329" y="336"/>
      <point x="1159" y="72"/>
      <point x="783" y="72" type="curve" smooth="yes"/>
      <point x="636" y="72"/>
      <point x="519" y="114"/>
      <point x="433" y="189" type="curve"/>
      <point x="1186" y="1224" type="line"/>
      <point x="1279" y="1112"/>
      <point x="1329" y="945"/>
    </contour>
    <contour>
      <point x="235" y="734" type="curve" smooth="yes"/>
      <point x="235" y="1125"/>
      <point x="415" y="1392"/>
      <point x="790" y="1392" type="curve" smooth="yes"/>
      <point x="927" y="1392"/>
      <point x="1038" y="1355"/>
      <point x="1123" y="1286" type="curve"/>
      <point x="371" y="254" type="line"/>
      <point x="280" y="371"/>
      <point x="235" y="536"/>
    </contour>
  </outline>
</glyph>
<glyph name="Thorn" format="2">
  <advance width="1198.375"/>
  <unicode hex="00DE"/>
  <anchor x="600.375" y="0.0" name="bottom"/>
  <anchor x="600.375" y="1462.0" name="top"/>
  <outline>
    <contour>
      <point x="1088.75" y="782.0" type="curve" smooth="yes"/>
      <point x="1088.75" y="1062.25"/>
      <point x="926.25" y="1198.0"/>
      <point x="576.875" y="1198.0" type="curve" smooth="yes"/>
      <point x="308.625" y="1198.0" type="line"/>
      <point x="308.625" y="1462.0" type="line"/>
      <point x="206.5" y="1462.0" type="line"/>
      <point x="206.5" y="0.0" type="line"/>
      <point x="308.625" y="0.0" type="line"/>
      <point x="308.625" y="340.125" type="line"/>
      <point x="533.375" y="340.125" type="line" smooth="yes"/>
      <point x="908.125" y="340.125"/>
      <point x="1088.75" y="502.0"/>
    </contour>
    <contour>
      <point x="308.625" y="431.125" type="line"/>
      <point x="308.625" y="1107.25" type="line"/>
      <point x="562.5" y="1107.25" type="line" smooth="yes"/>
      <point x="854.125" y="1107.25"/>
      <point x="982.75" y="1007.875"/>
      <point x="982.75" y="778.25" type="curve" smooth="yes"/>
      <point x="982.75" y="520.125"/>
      <point x="813.25" y="431.125"/>
      <point x="521.25" y="431.125" type="curve" smooth="yes"/>
    </contour>
  </outline>
</glyph>
<glyph name="germandbls" format="2">
  <advance width="1194"/>
  <unicode hex="00DF"/>
  <anchor x="597" y="0" name="bottom"/>
  <anchor x="597" y="1567" name="top"/>
  <outline>
    <contour>
      <point x="963" y="1288" type="curve" smooth="yes"/>
      <point x="963" y="1462"/>
      <point x="825" y="1567"/>
      <point x="596" y="1567" type="curve" smooth="yes"/>
      <point x="340" y="1567"/>
      <point x="179" y="1437"/>
      <point x="179" y="1169" type="curve" smooth="yes"/>
      <point x="179" y="0" type="line"/>
      <point x="280" y="0" type="line"/>
      <point x="280" y="1169" type="line" smooth="yes"/>
      <point x="280" y="1379"/>
      <point x="396" y="1479"/>
      <point x="596" y="1479" type="curve" smooth="yes"/>
      <point x="762" y="1479"/>
      <point x="860" y="1409"/>
      <point x="860" y="1284" type="curve" smooth="yes"/>
      <point x="860" y="1071"/>
      <point x="580" y="1084"/>
      <point x="580" y="850" type="curve" smooth="yes"/>
      <point x="580" y="723"/>
      <point x="662" y="660"/>
      <point x="800" y="566" type="curve" smooth="yes"/>
      <point x="923" y="484"/>
      <point x="993" y="420"/>
      <point x="993" y="284" type="curve" smooth="yes"/>
      <point x="993" y="152"/>
      <point x="909" y="66"/>
      <point x="736" y="66" type="curve" smooth="yes"/>
      <point x="632" y="66"/>
      <point x="538" y="95"/>
      <point x="456" y="137" type="curve"/>
      <point x="456" y="40" type="line"/>
      <point x="527" y="5"/>
      <point x="609" y="-20"/>
      <point x="738" y="-20" type="curve" smooth="yes"/>
      <point x="967" y="-20"/>
      <point x="1094" y="103"/>
      <point x="1094" y="289" type="curve" smooth="yes"/>
      <point x="1094" y="469"/>
      <point x="996" y="548"/>
      <point x="868" y="635" type="curve" smooth="yes"/>
      <point x="737" y="722"/>
      <point x="680" y="764"/>
      <point x="680" y="854" type="curve" smooth="yes"/>
      <point x="680" y="1036"/>
      <point x="963" y="1041"/>
    </contour>
  </outline>
</glyph>
<glyph name="ae" format="2">
  <advance width="1751.5"/>
  <unicode hex="00E6"/>
  <anchor x="875.625" y="0.0" name="bottom"/>
  <anchor x="880.875" y="1087.375" name="top"/>
  <outline>
    <contour>
      <point x="1236.25" y="1108.0" type="curve" smooth="yes"/>
      <point x="1055.125" y="1108.0"/>
      <point x="931.0" y="1001.75"/>
      <point x="867.125" y="843.75" type="curve"/>
      <point x="833.875" y="1026.125"/>
      <point x="728.0" y="1106.0"/>
      <point x="545.5" y="1106.0" type="curve" smooth="yes"/>
      <point x="423.0" y="1106.0"/>
      <point x="298.0" y="1071.25"/>
      <point x="194.125" y="1020.75" type="curve"/>
      <point x="226.375" y="937.0" type="line"/>
      <point x="333.25" y="990.75"/>
      <point x="435.0" y="1019.75"/>
      <point x="540.25" y="1019.75" type="curve" smooth="yes"/>
      <point x="702.375" y="1019.75"/>
      <point x="793.625" y="933.375"/>
      <point x="793.625" y="712.875" type="curve" smooth="yes"/>
      <point x="793.625" y="632.0" type="line"/>
      <point x="601.5" y="621.875" type="line" smooth="yes"/>
      <point x="277.875" y="605.625"/>
      <point x="96.5" y="495.875"/>
      <point x="96.5" y="279.375" type="curve" smooth="yes"/>
      <point x="96.5" y="88.25"/>
      <point x="222.125" y="-20.0"/>
      <point x="434.5" y="-20.0" type="curve" smooth="yes"/>
      <point x="656.75" y="-20.0"/>
      <point x="777.75" y="92.5"/>
      <point x="844.25" y="264.75" type="curve"/>
      <point x="907.625" y="92.0"/>
      <point x="1048.125" y="-20.0"/>
      <point x="1262.125" y="-20.0" type="curve" smooth="yes"/>
      <point x="1386.625" y="-20.0"/>
      <point x="1483.875" y="0.7499999999999999"/>
      <point x="1590.375" y="48.5" type="curve"/>
      <point x="1590.375" y="142.125" type="line"/>
      <point x="1471.625" y="88.125"/>
      <point x="1388.125" y="69.25"/>
      <point x="1264.375" y="69.25" type="curve" smooth="yes"/>
      <point x="1032.625" y="69.25"/>
      <point x="895.875" y="229.625"/>
      <point x="896.125" y="534.125" type="curve"/>
      <point x="1634.375" y="534.125" type="line"/>
      <point x="1634.375" y="607.625" type="line" smooth="yes"/>
      <point x="1641.875" y="895.625"/>
      <point x="1499.75" y="1108.0"/>
    </contour>
    <contour>
      <point x="792.125" y="553.25" type="line"/>
      <point x="792.125" y="446.125" type="line" smooth="yes"/>
      <point x="789.625" y="211.25"/>
      <point x="668.625" y="66.25"/>
      <point x="445.375" y="66.25" type="curve" smooth="yes"/>
      <point x="291.0" y="66.25"/>
      <point x="202.875" y="141.875"/>
      <point x="202.875" y="278.625" type="curve" smooth="yes"/>
      <point x="202.875" y="450.125"/>
      <point x="348.125" y="531.875"/>
      <point x="614.125" y="544.375" type="curve" smooth="yes"/>
    </contour>
    <contour>
      <point x="1235.5" y="1021.0" type="curve" smooth="yes"/>
      <point x="1432.125" y="1021.0"/>
      <point x="1530.0" y="858.5"/>
      <point x="1528.75" y="618.875" type="curve"/>
      <point x="898.875" y="618.875" type="line"/>
      <point x="919.75" y="880.625"/>
      <point x="1051.875" y="1021.0"/>
    </contour>
  </outline>
</glyph>
<glyph name="eth" format="2">
  <advance width="1174.0"/>
  <unicode hex="00F0"/>
  <anchor x="587.25" y="0.0" name="bottom"/>
  <anchor x="587.25" y="1556.375" name="top"/>
  <outline>
    <contour>
      <point x="427.0" y="1556.375" type="curve"/>
      <point x="382.75" y="1483.375" type="line"/>
      <point x="457.625" y="1449.75"/>
      <point x="531.625" y="1404.625"/>
      <point x="588.625" y="1360.625" type="curve"/>
      <point x="345.25" y="1217.125" type="line"/>
      <point x="391.0" y="1149.5" type="line"/>
      <point x="656.125" y="1306.25" type="line"/>
      <point x="792.625" y="1180.375"/>
      <point x="890.25" y="1001.875"/>
      <point x="930.75" y="820.875" type="curve"/>
      <point x="924.875" y="819.375" type="line"/>
      <point x="858.0" y="903.875"/>
      <point x="753.875" y="958.375"/>
      <point x="579.625" y="958.375" type="curve" smooth="yes"/>
      <point x="306.5" y="958.375"/>
      <point x="115.5" y="769.5"/>
      <point x="115.5" y="464.5" type="curve" smooth="yes"/>
      <point x="115.5" y="170.0"/>
      <point x="293.25" y="-20.0"/>
      <point x="581.625" y="-20.0" type="curve" smooth="yes"/>
      <point x="891.5" y="-20.0"/>
      <point x="1055.5" y="215.25"/>
      <point x="1055.5" y="559.25" type="curve" smooth="yes"/>
      <point x="1055.5" y="880.625"/>
      <point x="943.25" y="1153.75"/>
      <point x="737.875" y="1354.625" type="curve"/>
      <point x="947.125" y="1477.875" type="line"/>
      <point x="901.625" y="1546.0" type="line"/>
      <point x="673.125" y="1409.0" type="line"/>
      <point x="605.375" y="1462.625"/>
      <point x="522.5" y="1511.625"/>
    </contour>
    <contour>
      <point x="589.75" y="871.75" type="curve" smooth="yes"/>
      <point x="870.125" y="871.75"/>
      <point x="952.25" y="695.25"/>
      <point x="952.25" y="557.75" type="curve" smooth="yes"/>
      <point x="952.25" y="237.625"/>
      <point x="822.875" y="67.0"/>
      <point x="583.5" y="67.0" type="curve" smooth="yes"/>
      <point x="352.375" y="67.0"/>
      <point x="218.125" y="215.0"/>
      <point x="218.125" y="462.25" type="curve" smooth="yes"/>
      <point x="218.125" y="722.375"/>
      <point x="362.875" y="871.75"/>
    </contour>
  </outline>
</glyph>
<glyph name="divide" format="2">
  <advance width="1169"/>
  <unicode hex="00F7"/>
  <outline>
    <contour>
      <point x="109" y="680" type="line"/>
      <point x="1060" y="680" type="line"/>
      <point x="1060" y="766" type="line"/>
      <point x="109" y="766" type="line"/>
    </contour>
    <contour>
      <point x="583" y="277" type="curve" smooth="yes"/>
      <point x="636" y="277"/>
      <point x="659" y="309"/>
      <point x="659" y="364" type="curve" smooth="yes"/>
      <point x="659" y="419"/>
      <point x="636" y="450"/>
      <point x="583" y="450" type="curve" smooth="yes"/>
      <point x="533" y="450"/>
      <point x="507" y="419"/>
      <point x="507" y="364" type="curve" smooth="yes"/>
      <point x="507" y="309"/>
      <point x="533" y="277"/>
    </contour>
    <contour>
      <point x="583" y="995" type="curve" smooth="yes"/>
      <point x="636" y="995"/>
      <point x="659" y="1027"/>
      <point x="659" y="1081" type="curve" smooth="yes"/>
      <point x="659" y="1136"/>
      <point x="636" y="1167"/>
      <point x="583" y="1167" type="curve" smooth="yes"/>
      <point x="533" y="1167"/>
      <point x="507" y="1136"/>
      <point x="507" y="1081" type="curve" smooth="yes"/>
      <point x="507" y="1027"/>
      <point x="533" y="995"/>
    </contour>
  </outline>
</glyph>
<glyph name="oslash" format="2">
  <advance width="1200.875"/>
  <unicode hex="00F8"/>
  <anchor x="601.625" y="0.0" name="bottom"/>
  <anchor x="601.625" y="1087.375" name="top"/>
  <outline>
    <contour>
      <point x="1082.375" y="544.75" type="curve" smooth="yes"/>
      <point x="1082.375" y="711.0"/>
      <point x="1040.875" y="852.25"/>
      <point x="960.875" y="952.0" type="curve"/>
      <point x="1072.625" y="1095.375" type="line"/>
      <point x="1002.875" y="1145.25" type="line"/>
      <point x="898.5" y="1009.625" type="line"/>
      <point x="825.0" y="1072.625"/>
      <point x="728.0" y="1108.0"/>
      <point x="607.375" y="1108.0" type="curve" smooth="yes"/>
      <point x="300.75" y="1108.0"/>
      <point x="118.0" y="895.5"/>
      <point x="118.0" y="544.75" type="curve" smooth="yes"/>
      <point x="118.0" y="382.5"/>
      <point x="158.75" y="246.75"/>
      <point x="234.625" y="147.125" type="curve"/>
      <point x="112.0" y="-9.875000000000002" type="line"/>
      <point x="180.625" y="-59.875" type="line"/>
      <point x="295.75" y="87.0" type="line"/>
      <point x="371.75" y="18.875"/>
      <point x="471.0" y="-20.0"/>
      <point x="597.25" y="-20.0" type="curve" smooth="yes"/>
      <point x="915.625" y="-20.0"/>
      <point x="1082.375" y="209.125"/>
    </contour>
    <contour>
      <point x="222.125" y="544.75" type="curve" smooth="yes"/>
      <point x="222.125" y="841.625"/>
      <point x="353.125" y="1019.5"/>
      <point x="605.5" y="1019.5" type="curve" smooth="yes"/>
      <point x="706.875" y="1019.5"/>
      <point x="785.125" y="988.0"/>
      <point x="842.125" y="935.625" type="curve"/>
      <point x="294.25" y="230.25" type="line"/>
      <point x="245.5" y="310.375"/>
      <point x="222.125" y="417.875"/>
    </contour>
    <contour>
      <point x="977.625" y="544.75" type="curve" smooth="yes"/>
      <point x="977.625" y="261.625"/>
      <point x="860.75" y="67.75"/>
      <point x="599.125" y="67.75" type="curve" smooth="yes"/>
      <point x="493.5" y="67.75"/>
      <point x="409.625" y="101.875"/>
      <point x="350.875" y="161.0" type="curve"/>
      <point x="900.0" y="868.0" type="line"/>
      <point x="954.125" y="785.75"/>
      <point x="977.625" y="672.875"/>
    </contour>
  </outline>
</glyph>
<glyph name="thorn" format="2">
  <advance width="1218.75"/>
  <unicode hex="00FE"/>
  <anchor x="610.375" y="-481.375" name="bottom"/>
  <anchor x="610.375" y="1556.0" name="top"/>
  <outline>
    <contour>
      <point x="1103.25" y="551.0" type="curve" smooth="yes"/>
      <point x="1103.25" y="915.875"/>
      <point x="942.625" y="1108.0"/>
      <point x="661.625" y="1108.0" type="curve" smooth="yes"/>
      <point x="455.0" y="1108.0"/>
      <point x="336.375" y="1000.125"/>
      <point x="283.5" y="875.625" type="curve"/>
      <point x="278.0" y="875.625" type="line"/>
      <point x="280.0" y="931.25"/>
      <point x="282.75" y="1028.375"/>
      <point x="282.75" y="1083.625" type="curve" smooth="yes"/>
      <point x="282.75" y="1556.0" type="line"/>
      <point x="181.5" y="1556.0" type="line"/>
      <point x="181.5" y="-481.375" type="line"/>
      <point x="282.75" y="-481.375" type="line"/>
      <point x="282.75" y="-31.75" type="line" smooth="yes"/>
      <point x="282.75" y="38.125"/>
      <point x="279.75" y="131.5"/>
      <point x="275.75" y="200.875" type="curve"/>
      <point x="282.75" y="200.875" type="line"/>
      <point x="335.625" y="77.875"/>
      <point x="450.25" y="-20.0"/>
      <point x="649.125" y="-20.0" type="curve" smooth="yes"/>
      <point x="930.75" y="-20.0"/>
      <point x="1103.25" y="182.25"/>
    </contour>
    <contour>
      <point x="999.125" y="551.75" type="curve" smooth="yes"/>
      <point x="999.125" y="234.75"/>
      <point x="870.5" y="67.75"/>
      <point x="638.625" y="67.75" type="curve" smooth="yes"/>
      <point x="402.375" y="67.75"/>
      <point x="284.0" y="222.875"/>
      <point x="284.0" y="542.25" type="curve" smooth="yes"/>
      <point x="284.0" y="560.625" type="line" smooth="yes"/>
      <point x="285.5" y="854.5"/>
      <point x="401.875" y="1019.5"/>
      <point x="650.375" y="1019.5" type="curve" smooth="yes"/>
      <point x="882.375" y="1019.5"/>
      <point x="999.125" y="866.5"/>
    </contour>
  </outline>
</glyph>
<glyph name="dcroat" format="2">
  <advance width="1219.0"/>
  <unicode hex="0111"/>
  <anchor x="609.875" y="0.0" name="bottom"/>
  <anchor x="609.875" y="1556.0" name="top"/>
  <outline>
    <contour>
      <point x="573.625" y="-20.0" type="curve" smooth="yes"/>
      <point x="771.75" y="-20.0"/>
      <point x="882.375" y="78.625"/>
      <point x="937.375" y="199.5" type="curve"/>
      <point x="943.5" y="199.5" type="line"/>
      <point x="956.125" y="0.0" type="line"/>
      <point x="1039.375" y="0.0" type="line"/>
      <point x="1039.375" y="1270.875" type="line"/>
      <point x="1192.25" y="1270.875" type="line"/>
      <point x="1192.25" y="1353.375" type="line"/>
      <point x="1039.375" y="1353.375" type="line"/>
      <point x="1039.375" y="1556.0" type="line"/>
      <point x="938.125" y="1556.0" type="line"/>
      <point x="938.125" y="1353.375" type="line"/>
      <point x="465.25" y="1353.375" type="line"/>
      <point x="465.25" y="1270.875" type="line"/>
      <point x="938.125" y="1270.875" type="line"/>
      <point x="938.125" y="1112.75" type="line" smooth="yes"/>
      <point x="938.125" y="1042.875"/>
      <point x="940.375" y="956.875"/>
      <point x="946.125" y="886.25" type="curve"/>
      <point x="938.125" y="886.25" type="line"/>
      <point x="884.875" y="1009.375"/>
      <point x="771.25" y="1105.75"/>
      <point x="583.625" y="1105.75" type="curve" smooth="yes"/>
      <point x="290.5" y="1105.75"/>
      <point x="118.0" y="906.625"/>
      <point x="118.0" y="528.625" type="curve" smooth="yes"/>
      <point x="118.0" y="170.0"/>
      <point x="275.875" y="-20.0"/>
    </contour>
    <contour>
      <point x="585.25" y="67.75" type="curve" smooth="yes"/>
      <point x="338.75" y="67.75"/>
      <point x="222.875" y="225.25"/>
      <point x="222.875" y="527.875" type="curve" smooth="yes"/>
      <point x="222.875" y="847.375"/>
      <point x="351.875" y="1018.0"/>
      <point x="593.75" y="1018.0" type="curve" smooth="yes"/>
      <point x="837.75" y="1018.0"/>
      <point x="937.625" y="851.375"/>
      <point x="937.625" y="544.25" type="curve" smooth="yes"/>
      <point x="937.625" y="527.375" type="line" smooth="yes"/>
      <point x="937.625" y="232.125"/>
      <point x="841.125" y="67.75"/>
    </contour>
  </outline>
</glyph>
<glyph name="eogonek" format="2">
  <advance width="1124.375"/>
  <unicode hex="0119"/>
  <anchor x="576.625" y="-446.625" name="bottom"/>
  <anchor x="564.625" y="1087.375" name="top"/>
  <outline>
    <contour>
      <point x="747.0" y="-256.75" type="curve" smooth="yes"/>
      <point x="747.0" y="-160.25"/>
      <point x="815.375" y="-71.25"/>
      <point x="950.375" y="44.75" type="curve"/>
      <point x="856.75" y="39.75" type="line"/>
      <point x="734.125" y="-58.875"/>
      <point x="658.375" y="-164.125"/>
      <point x="658.375" y="-269.25" type="curve" smooth="yes"/>
      <point x="658.375" y="-385.25"/>
      <point x="728.75" y="-446.625"/>
      <point x="841.875" y="-446.625" type="curve" smooth="yes"/>
      <point x="888.625" y="-446.625"/>
      <point x="924.875" y="-438.25"/>
      <point x="953.875" y="-429.5" type="curve"/>
      <point x="953.875" y="-355.75" type="line"/>
      <point x="931.25" y="-362.625"/>
      <point x="896.5" y="-369.375"/>
      <point x="855.875" y="-369.375" type="curve" smooth="yes"/>
      <point x="784.125" y="-369.375"/>
      <point x="747.0" y="-329.625"/>
    </contour>
    <component base="e"/>
  </outline>
</glyph>
<glyph name="Hbar" format="2">
  <advance width="1473"/>
  <unicode hex="0126"/>
  <anchor x="737" y="0" name="bottom"/>
  <anchor x="737" y="1462" name="top"/>
  <outline>
    <contour>
      <point x="207" y="0" type="line"/>
      <point x="309" y="0" type="line"/>
      <point x="309" y="720" type="line"/>
      <point x="1164" y="720" type="line"/>
      <point x="1164" y="0" type="line"/>
      <point x="1266" y="0" type="line"/>
      <point x="1266" y="1104" type="line"/>
      <point x="1472" y="1104" type="line"/>
      <point x="1472" y="1192" type="line"/>
      <point x="1266" y="1192" type="line"/>
      <point x="1266" y="1462" type="line"/>
      <point x="1164" y="1462" type="line"/>
      <point x="1164" y="1192" type="line"/>
      <point x="309" y="1192" type="line"/>
      <point x="309" y="1462" type="line"/>
      <point x="207" y="1462" type="line"/>
      <point x="207" y="1192" type="line"/>
      <point x="0" y="1192" type="line"/>
      <point x="0" y="1104" type="line"/>
      <point x="207" y="1104" type="line"/>
    </contour>
    <contour>
      <point x="309" y="813" type="line"/>
      <point x="309" y="1104" type="line"/>
      <point x="1164" y="1104" type="line"/>
      <point x="1164" y="813" type="line"/>
    </contour>
  </outline>
</glyph>
<glyph name="hbar" format="2">
  <advance width="1208.5"/>
  <unicode hex="0127"/>
  <anchor x="604.875" y="0.0" name="bottom"/>
  <anchor x="467.25" y="1556.0" name="top"/>
  <outline>
    <contour>
      <point x="281.5" y="1556.0" type="line"/>
      <point x="180.25" y="1556.0" type="line"/>
      <point x="180.25" y="1352.625" type="line"/>
      <point x="27.375" y="1352.625" type="line"/>
      <point x="27.375" y="1270.125" type="line"/>
      <point x="180.25" y="1270.125" type="line"/>
      <point x="180.25" y="0.0" type="line"/>
      <point x="281.5" y="0.0" type="line"/>
      <point x="281.5" y="584.25" type="line" smooth="yes"/>
      <point x="281.5" y="864.625"/>
      <point x="409.375" y="1004.125"/>
      <point x="649.125" y="1004.125" type="curve" smooth="yes"/>
      <point x="835.875" y="1004.125"/>
      <point x="938.25" y="905.5"/>
      <point x="938.25" y="690.125" type="curve" smooth="yes"/>
      <point x="938.25" y="0.0" type="line"/>
      <point x="1038.125" y="0.0" type="line"/>
      <point x="1038.125" y="695.875" type="line" smooth="yes"/>
      <point x="1038.125" y="968.375"/>
      <point x="903.125" y="1092.625"/>
      <point x="658.125" y="1092.625" type="curve" smooth="yes"/>
      <point x="460.75" y="1092.625"/>
      <point x="335.375" y="996.875"/>
      <point x="282.25" y="873.875" type="curve"/>
      <point x="274.625" y="873.875" type="line"/>
      <point x="278.75" y="926.875"/>
      <point x="281.5" y="973.5"/>
      <point x="281.5" y="1032.125" type="curve" smooth="yes"/>
      <point x="281.5" y="1270.125" type="line"/>
      <point x="753.625" y="1270.125" type="line"/>
      <point x="753.625" y="1352.625" type="line"/>
      <point x="281.5" y="1352.625" type="line"/>
    </contour>
  </outline>
</glyph>
<glyph name="idotless" format="2">
  <advance width="463.0"/>
  <unicode hex="0131"/>
  <anchor x="235.125" y="0.0" name="bottom"/>
  <anchor x="232.125" y="1087.375" name="top"/>
  <outline>
    <contour>
      <point x="281.5" y="0.0" type="line"/>
      <point x="281.5" y="1087.375" type="line"/>
      <point x="180.25" y="1087.375" type="line"/>
      <point x="180.25" y="0.0" type="line"/>
    </contour>
  </outline>
</glyph>
<glyph name="kgreenlandic" format="2">
  <advance width="991.5"/>
  <unicode hex="0138"/>
  <anchor x="495.75" y="0.0" name="bottom"/>
  <anchor x="495.75" y="1087.375" name="top"/>
  <outline>
    <contour>
      <point x="952.625" y="1087.375" type="line"/>
      <point x="827.5" y="1087.375" type="line"/>
      <point x="383.5" y="582.75" type="line" smooth="yes"/>
      <point x="346.375" y="540.5"/>
      <point x="318.5" y="506.5"/>
      <point x="279.125" y="460.625" type="curve"/>
      <point x="279.5" y="460.625" type="line"/>
      <point x="283.0" y="563.125"/>
      <point x="285.625" y="675.0"/>
      <point x="285.625" y="797.375" type="curve" smooth="yes"/>
      <point x="285.625" y="1087.375" type="line"/>
      <point x="180.25" y="1087.375" type="line"/>
      <point x="180.25" y="0.0" type="line"/>
      <point x="285.625" y="0.0" type="line"/>
      <point x="285.625" y="364.375" type="line"/>
      <point x="463.75" y="548.5" type="line"/>
      <point x="870.625" y="0.0" type="line"/>
      <point x="990.625" y="0.0" type="line"/>
      <point x="534.5" y="614.5" type="line"/>
    </contour>
  </outline>
</glyph>
<glyph name="Lslash" format="2">
  <advance width="1049.875"/>
  <unicode hex="0141"/>
  <anchor x="592.75" y="0.0" name="bottom"/>
  <anchor x="256.375" y="1462.0" name="top"/>
  <outline>
    <contour>
      <point x="206.5" y="0.0" type="line"/>
      <point x="1005.125" y="0.0" type="line"/>
      <point x="1005.125" y="93.375" type="line"/>
      <point x="308.625" y="93.375" type="line"/>
      <point x="308.625" y="614.0" type="line"/>
      <point x="679.5" y="844.625" type="line"/>
      <point x="632.75" y="919.875" type="line"/>
      <point x="308.625" y="717.0" type="line"/>
      <point x="308.625" y="1462.0" type="line"/>
      <point x="206.5" y="1462.0" type="line"/>
      <point x="206.5" y="654.625" type="line"/>
      <point x="22.625" y="539.125" type="line"/>
      <point x="68.625" y="466.5" type="line"/>
      <point x="206.5" y="552.25" type="line"/>
    </contour>
  </outline>
</glyph>
<glyph name="lslash" format="2">
  <advance width="463"/>
  <unicode hex="0142"/>
  <anchor x="232" y="0" name="bottom"/>
  <anchor x="232" y="1556" name="top"/>
  <outline>
    <contour>
      <point x="181" y="0" type="line"/>
      <point x="281" y="0" type="line"/>
      <point x="281" y="718" type="line"/>
      <point x="478" y="850" type="line"/>
      <point x="434" y="920" type="line"/>
      <point x="281" y="816" type="line"/>
      <point x="281" y="1556" type="line"/>
      <point x="181" y="1556" type="line"/>
      <point x="181" y="754" type="line"/>
      <point x="6" y="639" type="line"/>
      <point x="51" y="567" type="line"/>
      <point x="181" y="653" type="line"/>
    </contour>
  </outline>
</glyph>
<glyph name="Eng" format="2">
  <advance width="1477.25"/>
  <unicode hex="014A"/>
  <anchor x="738.625" y="-368.375" name="bottom"/>
  <anchor x="738.625" y="1462.0" name="top"/>
  <outline>
    <contour>
      <point x="934.25" y="-368.375" type="curve" smooth="yes"/>
      <point x="1148.0" y="-368.375"/>
      <point x="1269.875" y="-236.375"/>
      <point x="1269.875" y="8.25" type="curve" smooth="yes"/>
      <point x="1269.875" y="1462.0" type="line"/>
      <point x="1171.625" y="1462.0" type="line"/>
      <point x="1171.625" y="532.5" type="line" smooth="yes"/>
      <point x="1171.625" y="417.125"/>
      <point x="1173.875" y="284.0"/>
      <point x="1178.125" y="187.25" type="curve"/>
      <point x="1172.625" y="187.25" type="line"/>
      <point x="312.0" y="1462.0" type="line"/>
      <point x="206.5" y="1462.0" type="line"/>
      <point x="206.5" y="0.0" type="line"/>
      <point x="303.375" y="0.0" type="line"/>
      <point x="303.375" y="939.875" type="line" smooth="yes"/>
      <point x="303.375" y="1063.875"/>
      <point x="299.25" y="1190.0"/>
      <point x="295.75" y="1293.375" type="curve"/>
      <point x="301.25" y="1293.375" type="line"/>
      <point x="1171.625" y="12.5" type="line"/>
      <point x="1170.875" y="-193.625"/>
      <point x="1079.5" y="-274.5"/>
      <point x="933.0" y="-274.5" type="curve" smooth="yes"/>
      <point x="873.625" y="-274.5"/>
      <point x="816.875" y="-265.25"/>
      <point x="773.875" y="-252.0" type="curve"/>
      <point x="773.875" y="-342.0" type="line"/>
      <point x="806.5" y="-355.875"/>
      <point x="869.375" y="-368.375"/>
    </contour>
  </outline>
</glyph>
<glyph name="eng" format="2">
  <advance width="1208.5"/>
  <unicode hex="014B"/>
  <anchor x="604.875" y="-492.0" name="bottom"/>
  <anchor x="604.875" y="1087.375" name="top"/>
  <anchor x="1139.75" y="1087.375" name="topright"/>
  <outline>
    <contour>
      <point x="793.875" y="-492.0" type="curve" smooth="yes"/>
      <point x="943.125" y="-492.0"/>
      <point x="1038.875" y="-395.875"/>
      <point x="1038.875" y="-215.25" type="curve" smooth="yes"/>
      <point x="1038.875" y="712.0" type="line" smooth="yes"/>
      <point x="1038.875" y="984.5"/>
      <point x="904.625" y="1108.0"/>
      <point x="658.125" y="1108.0" type="curve" smooth="yes"/>
      <point x="461.5" y="1108.0"/>
      <point x="340.625" y="1010.5"/>
      <point x="284.25" y="889.25" type="curve"/>
      <point x="278.0" y="889.25" type="line"/>
      <point x="261.5" y="1087.375" type="line"/>
      <point x="180.25" y="1087.375" type="line"/>
      <point x="180.25" y="0.0" type="line"/>
      <point x="281.5" y="0.0" type="line"/>
      <point x="281.5" y="600.375" type="line" smooth="yes"/>
      <point x="281.5" y="880.75"/>
      <point x="410.875" y="1019.5"/>
      <point x="649.875" y="1019.5" type="curve" smooth="yes"/>
      <point x="835.875" y="1019.5"/>
      <point x="938.25" y="921.625"/>
      <point x="938.25" y="706.25" type="curve" smooth="yes"/>
      <point x="938.25" y="-212.5" type="line" smooth="yes"/>
      <point x="938.25" y="-341.75"/>
      <point x="882.625" y="-403.25"/>
      <point x="785.25" y="-403.25" type="curve" smooth="yes"/>
      <point x="741.25" y="-403.25"/>
      <point x="700.5" y="-397.75"/>
      <point x="662.0" y="-382.0" type="curve"/>
      <point x="662.0" y="-469.5" type="line"/>
      <point x="694.75" y="-482.25"/>
      <point x="737.25" y="-492.0"/>
    </contour>
  </outline>
</glyph>
<glyph name="OE" format="2">
  <advance width="1863.5"/>
  <unicode hex="0152"/>
  <anchor x="932.5" y="0.0" name="bottom"/>
  <anchor x="932.5" y="1462.0" name="top"/>
  <outline>
    <contour>
      <point x="781.625" y="1474.375" type="curve" smooth="yes"/>
      <point x="356.375" y="1474.375"/>
      <point x="127.5" y="1180.5"/>
      <point x="127.5" y="735.0" type="curve" smooth="yes"/>
      <point x="127.5" y="288.5"/>
      <point x="344.0" y="-11.25"/>
      <point x="781.625" y="-11.25" type="curve" smooth="yes"/>
      <point x="850.0" y="-11.25"/>
      <point x="907.375" y="-5.75"/>
      <point x="958.375" y="0.0" type="curve"/>
      <point x="1738.0" y="0.0" type="line"/>
      <point x="1738.0" y="92.625" type="line"/>
      <point x="1058.125" y="92.625" type="line"/>
      <point x="1058.125" y="722.125" type="line"/>
      <point x="1697.75" y="722.125" type="line"/>
      <point x="1697.75" y="814.625" type="line"/>
      <point x="1058.125" y="814.625" type="line"/>
      <point x="1058.125" y="1369.375" type="line"/>
      <point x="1738.0" y="1369.375" type="line"/>
      <point x="1738.0" y="1462.0" type="line"/>
      <point x="966.375" y="1462.0" type="line" smooth="yes"/>
      <point x="899.875" y="1468.875"/>
      <point x="850.0" y="1474.375"/>
    </contour>
    <contour>
      <point x="787.625" y="1381.75" type="curve" smooth="yes"/>
      <point x="858.625" y="1381.75"/>
      <point x="915.625" y="1374.25"/>
      <point x="956.75" y="1364.375" type="curve"/>
      <point x="956.75" y="98.375" type="line"/>
      <point x="912.625" y="86.375"/>
      <point x="854.125" y="80.25"/>
      <point x="783.125" y="80.25" type="curve" smooth="yes"/>
      <point x="409.75" y="80.25"/>
      <point x="233.875" y="338.125"/>
      <point x="233.875" y="734.25" type="curve" smooth="yes"/>
      <point x="233.875" y="1125.125"/>
      <point x="413.5" y="1381.75"/>
    </contour>
  </outline>
</glyph>
<glyph name="oe" format="2">
  <advance width="1963.875"/>
  <unicode hex="0153"/>
  <anchor x="982.75" y="0.0" name="bottom"/>
  <anchor x="982.75" y="1087.375" name="top"/>
  <outline>
    <contour>
      <point x="1433.5" y="1107.25" type="curve" smooth="yes"/>
      <point x="1220.25" y="1107.25"/>
      <point x="1083.25" y="979.75"/>
      <point x="1020.5" y="794.75" type="curve"/>
      <point x="961.625" y="983.0"/>
      <point x="826.5" y="1107.25"/>
      <point x="603.25" y="1107.25" type="curve" smooth="yes"/>
      <point x="298.5" y="1107.25"/>
      <point x="117.25" y="894.75"/>
      <point x="117.25" y="544.75" type="curve" smooth="yes"/>
      <point x="117.25" y="205.875"/>
      <point x="290.875" y="-20.0"/>
      <point x="593.5" y="-20.0" type="curve" smooth="yes"/>
      <point x="816.0" y="-20.0"/>
      <point x="956.875" y="99.5"/>
      <point x="1020.25" y="287.625" type="curve"/>
      <point x="1083.125" y="97.5"/>
      <point x="1225.625" y="-20.0"/>
      <point x="1462.625" y="-20.0" type="curve" smooth="yes"/>
      <point x="1598.875" y="-20.0"/>
      <point x="1695.375" y="0.7499999999999999"/>
      <point x="1802.625" y="48.5" type="curve"/>
      <point x="1802.625" y="142.125" type="line"/>
      <point x="1682.375" y="88.125"/>
      <point x="1598.875" y="69.25"/>
      <point x="1463.375" y="69.25" type="curve" smooth="yes"/>
      <point x="1208.625" y="69.25"/>
      <point x="1069.875" y="228.875"/>
      <point x="1070.125" y="533.375" type="curve"/>
      <point x="1846.0" y="533.375" type="line"/>
      <point x="1846.0" y="606.125" type="line" smooth="yes"/>
      <point x="1846.0" y="896.375"/>
      <point x="1710.5" y="1107.25"/>
    </contour>
    <contour>
      <point x="600.25" y="1019.5" type="curve" smooth="yes"/>
      <point x="861.5" y="1019.5"/>
      <point x="967.5" y="824.5"/>
      <point x="967.5" y="541.75" type="curve" smooth="yes"/>
      <point x="967.5" y="253.75"/>
      <point x="852.875" y="67.75"/>
      <point x="594.25" y="67.75" type="curve" smooth="yes"/>
      <point x="339.75" y="67.75"/>
      <point x="222.125" y="252.75"/>
      <point x="222.125" y="544.75" type="curve" smooth="yes"/>
      <point x="222.125" y="846.875"/>
      <point x="350.875" y="1019.5"/>
    </contour>
    <contour>
      <point x="1432.75" y="1020.25" type="curve" smooth="yes"/>
      <point x="1643.625" y="1020.25"/>
      <point x="1741.25" y="858.5"/>
      <point x="1740.0" y="618.875" type="curve"/>
      <point x="1072.875" y="618.875" type="line"/>
      <point x="1093.875" y="880.625"/>
      <point x="1228.5" y="1020.25"/>
    </contour>
  </outline>
</glyph>
<glyph name="Tbar" format="2">
  <advance width="1073.375"/>
  <unicode hex="0166"/>
  <anchor x="537.125" y="0.0" name="bottom"/>
  <anchor x="537.125" y="1462.0" name="top"/>
  <outline>
    <contour>
      <point x="483.75" y="0.0" type="line"/>
      <point x="586.5" y="0.0" type="line"/>
      <point x="586.5" y="704.125" type="line"/>
      <point x="942.375" y="704.125" type="line"/>
      <point x="942.375" y="792.625" type="line"/>
      <point x="586.5" y="792.625" type="line"/>
      <point x="586.5" y="1368.625" type="line"/>
      <point x="1062.25" y="1368.625" type="line"/>
      <point x="1062.25" y="1462.0" type="line"/>
      <point x="10.0" y="1462.0" type="line"/>
      <point x="10.0" y="1368.625" type="line"/>
      <point x="483.75" y="1368.625" type="line"/>
      <point x="483.75" y="792.625" type="line"/>
      <point x="126.25" y="792.625" type="line"/>
      <point x="126.25" y="704.125" type="line"/>
      <point x="483.75" y="704.125" type="line"/>
    </contour>
  </outline>
</glyph>
<glyph name="tbar" format="2">
  <advance width="685.25"/>
  <unicode hex="0167"/>
  <anchor x="408.625" y="0.0" name="bottom"/>
  <anchor x="257.5" y="1350.0" name="top"/>
  <outline>
    <contour>
      <point x="41.5" y="579.875" type="line"/>
      <point x="596.125" y="579.875" type="line"/>
      <point x="596.125" y="662.75" type="line"/>
      <point x="41.5" y="662.75" type="line"/>
    </contour>
    <component base="t"/>
  </outline>
</glyph>
<glyph name="Uogonek" format="2">
  <advance width="1472.625"/>
  <unicode hex="0172"/>
  <anchor x="735.0" y="-446.625" name="bottom"/>
  <anchor x="736.875" y="1462.0" name="top"/>
  <outline>
    <contour>
      <point x="909.625" y="-238.375" type="curve" smooth="yes"/>
      <point x="909.625" y="-111.125"/>
      <point x="1002.625" y="-8.874999999999996"/>
      <point x="1095.75" y="90.25" type="curve"/>
      <point x="1030.5" y="94.5" type="line"/>
      <point x="923.5" y="6.874999999999998"/>
      <point x="822.0" y="-116.0"/>
      <point x="822.0" y="-251.25" type="curve" smooth="yes"/>
      <point x="822.0" y="-386.5"/>
      <point x="891.375" y="-446.625"/>
      <point x="1004.875" y="-446.625" type="curve" smooth="yes"/>
      <point x="1051.625" y="-446.625"/>
      <point x="1087.875" y="-438.25"/>
      <point x="1116.875" y="-429.5" type="curve"/>
      <point x="1116.875" y="-355.75" type="line"/>
      <point x="1093.875" y="-362.625"/>
      <point x="1059.5" y="-369.375"/>
      <point x="1018.25" y="-369.375" type="curve" smooth="yes"/>
      <point x="947.125" y="-369.375"/>
      <point x="909.625" y="-330.875"/>
    </contour>
    <component base="U"/>
  </outline>
</glyph>
<glyph name="longs" format="2">
  <advance width="627"/>
  <unicode hex="017F"/>
  <anchor x="313" y="0" name="bottom"/>
  <anchor x="429" y="1567" name="top"/>
  <outline>
    <contour>
      <point x="508" y="1479" type="curve" smooth="yes"/>
      <point x="566" y="1479"/>
      <point x="610" y="1469"/>
      <point x="653" y="1454" type="curve"/>
      <point x="675" y="1541" type="line"/>
      <point x="626" y="1556"/>
      <point x="574" y="1567"/>
      <point x="509" y="1567" type="curve" smooth="yes"/>
      <point x="301" y="1567"/>
      <point x="182" y="1436"/>
      <point x="182" y="1192" type="curve" smooth="yes"/>
      <point x="182" y="0" type="line"/>
      <point x="283" y="0" type="line"/>
      <point x="283" y="1188" type="line" smooth="yes"/>
      <point x="283" y="1385"/>
      <point x="360" y="1479"/>
    </contour>
  </outline>
</glyph>
<glyph name="uni0180" format="2">
  <advance width="1218.75"/>
  <unicode hex="0180"/>
  <anchor x="610.375" y="0.0" name="bottom"/>
  <anchor x="610.375" y="1556.0" name="top"/>
  <outline>
    <contour>
      <point x="637.75" y="-20.0" type="curve" smooth="yes"/>
      <point x="945.625" y="-20.0"/>
      <point x="1100.75" y="210.125"/>
      <point x="1100.75" y="546.5" type="curve" smooth="yes"/>
      <point x="1100.75" y="915.375"/>
      <point x="940.125" y="1108.5"/>
      <point x="658.375" y="1108.5" type="curve" smooth="yes"/>
      <point x="464.5" y="1108.5"/>
      <point x="331.625" y="1009.625"/>
      <point x="280.25" y="876.375" type="curve"/>
      <point x="273.375" y="876.375" type="line"/>
      <point x="276.125" y="935.75"/>
      <point x="280.25" y="1038.125"/>
      <point x="280.25" y="1113.625" type="curve" smooth="yes"/>
      <point x="280.25" y="1270.875" type="line"/>
      <point x="753.5" y="1270.875" type="line"/>
      <point x="753.5" y="1353.375" type="line"/>
      <point x="280.25" y="1353.375" type="line"/>
      <point x="280.25" y="1556.0" type="line"/>
      <point x="179.0" y="1556.0" type="line"/>
      <point x="179.0" y="1353.375" type="line"/>
      <point x="26.125" y="1353.375" type="line"/>
      <point x="26.125" y="1270.875" type="line"/>
      <point x="179.0" y="1270.875" type="line"/>
      <point x="179.0" y="0.0" type="line"/>
      <point x="255.5" y="0.0" type="line"/>
      <point x="275.0" y="185.25" type="line"/>
      <point x="282.75" y="185.25" type="line"/>
      <point x="336.625" y="67.875"/>
      <point x="452.0" y="-20.0"/>
    </contour>
    <contour>
      <point x="628.0" y="67.75" type="curve" smooth="yes"/>
      <point x="382.25" y="67.75"/>
      <point x="280.25" y="229.125"/>
      <point x="280.25" y="528.875" type="curve" smooth="yes"/>
      <point x="280.25" y="545.0" type="line" smooth="yes"/>
      <point x="280.25" y="849.75"/>
      <point x="389.375" y="1020.75"/>
      <point x="647.125" y="1020.75" type="curve" smooth="yes"/>
      <point x="880.875" y="1020.75"/>
      <point x="996.625" y="860.75"/>
      <point x="996.625" y="547.25" type="curve" smooth="yes"/>
      <point x="996.625" y="240.25"/>
      <point x="870.25" y="67.75"/>
    </contour>
  </outline>
</glyph>
<glyph name="uni0181" format="2">
  <advance width="1440.0"/>
  <unicode hex="0181"/>
  <anchor x="721.125" y="0.0" name="bottom"/>
  <anchor x="721.125" y="1462.0" name="top"/>
  <outline>
    <contour>
      <point x="362.0" y="0.0" type="line"/>
      <point x="811.375" y="0.0" type="line" smooth="yes"/>
      <point x="1115.625" y="0.0"/>
      <point x="1326.5" y="128.125"/>
      <point x="1326.5" y="416.0" type="curve" smooth="yes"/>
      <point x="1326.5" y="616.125"/>
      <point x="1220.375" y="732.5"/>
      <point x="1000.75" y="767.25" type="curve"/>
      <point x="1000.75" y="773.5" type="line"/>
      <point x="1185.75" y="806.5"/>
      <point x="1285.0" y="938.0"/>
      <point x="1285.0" y="1106.25" type="curve" smooth="yes"/>
      <point x="1285.0" y="1353.5"/>
      <point x="1124.375" y="1462.0"/>
      <point x="763.75" y="1462.0" type="curve" smooth="yes"/>
      <point x="306.5" y="1462.0" type="line" smooth="yes"/>
      <point x="114.25" y="1462.0"/>
      <point x="20.0" y="1361.25"/>
      <point x="20.0" y="1206.5" type="curve" smooth="yes"/>
      <point x="20.0" y="1166.0"/>
      <point x="28.5" y="1120.0"/>
      <point x="40.5" y="1092.0" type="curve"/>
      <point x="134.375" y="1092.0" type="line"/>
      <point x="126.375" y="1110.0"/>
      <point x="114.0" y="1157.0"/>
      <point x="114.0" y="1202.0" type="curve" smooth="yes"/>
      <point x="114.0" y="1304.625"/>
      <point x="171.75" y="1371.25"/>
      <point x="309.0" y="1371.25" type="curve" smooth="yes"/>
      <point x="362.0" y="1371.25" type="line"/>
    </contour>
    <contour>
      <point x="465.125" y="90.375" type="line"/>
      <point x="465.125" y="721.625" type="line"/>
      <point x="788.875" y="721.625" type="line" smooth="yes"/>
      <point x="1073.625" y="721.625"/>
      <point x="1218.625" y="635.25"/>
      <point x="1218.625" y="420.0" type="curve" smooth="yes"/>
      <point x="1218.625" y="201.0"/>
      <point x="1079.375" y="90.375"/>
      <point x="808.25" y="90.375" type="curve" smooth="yes"/>
    </contour>
    <contour>
      <point x="465.125" y="811.875" type="line"/>
      <point x="465.125" y="1371.25" type="line"/>
      <point x="763.0" y="1371.25" type="line" smooth="yes"/>
      <point x="1054.125" y="1371.25"/>
      <point x="1179.375" y="1291.5"/>
      <point x="1179.375" y="1097.125" type="curve" smooth="yes"/>
      <point x="1179.375" y="908.875"/>
      <point x="1063.25" y="811.875"/>
      <point x="788.875" y="811.875" type="curve" smooth="yes"/>
    </contour>
  </outline>
</glyph>
<glyph name="uni0184" format="2">
  <advance width="1228.75"/>
  <unicode hex="0184"/>
  <anchor x="615.375" y="0.0" name="bottom"/>
  <anchor x="615.375" y="1462.0" name="top"/>
  <outline>
    <contour>
      <point x="664.875" y="-7.499999999999999" type="curve" smooth="yes"/>
      <point x="952.125" y="-7.499999999999999"/>
      <point x="1104.125" y="163.25"/>
      <point x="1104.125" y="417.5" type="curve" smooth="yes"/>
      <point x="1104.125" y="688.5"/>
      <point x="934.125" y="819.625"/>
      <point x="598.0" y="819.625" type="curve" smooth="yes"/>
      <point x="303.375" y="819.625" type="line"/>
      <point x="303.375" y="1462.0" type="line"/>
      <point x="200.875" y="1462.0" type="line"/>
      <point x="200.875" y="465.625" type="line" smooth="yes"/>
      <point x="200.875" y="165.25"/>
      <point x="338.125" y="-7.499999999999999"/>
    </contour>
    <contour>
      <point x="665.375" y="83.25" type="curve" smooth="yes"/>
      <point x="417.5" y="83.25"/>
      <point x="303.375" y="203.25"/>
      <point x="303.375" y="476.25" type="curve" smooth="yes"/>
      <point x="303.375" y="727.75" type="line"/>
      <point x="583.5" y="727.75" type="line" smooth="yes"/>
      <point x="849.5" y="727.75"/>
      <point x="997.875" y="651.75"/>
      <point x="997.875" y="417.5" type="curve" smooth="yes"/>
      <point x="997.875" y="206.75"/>
      <point x="882.375" y="83.25"/>
    </contour>
  </outline>
</glyph>
<glyph name="uni0185" format="2">
  <advance width="1216.125"/>
  <unicode hex="0185"/>
  <anchor x="608.875" y="0.0" name="bottom"/>
  <anchor x="608.875" y="1556.0" name="top"/>
  <outline>
    <contour>
      <point x="636.5" y="-20.0" type="curve" smooth="yes"/>
      <point x="949.75" y="-20.0"/>
      <point x="1098.5" y="210.125"/>
      <point x="1098.5" y="546.5" type="curve" smooth="yes"/>
      <point x="1098.5" y="915.375"/>
      <point x="937.875" y="1108.5"/>
      <point x="656.125" y="1108.5" type="curve" smooth="yes"/>
      <point x="457.25" y="1108.5"/>
      <point x="328.125" y="1003.375"/>
      <point x="278.0" y="876.375" type="curve"/>
      <point x="271.125" y="876.375" type="line"/>
      <point x="273.875" y="935.75"/>
      <point x="278.0" y="1038.125"/>
      <point x="278.0" y="1113.625" type="curve" smooth="yes"/>
      <point x="278.0" y="1556.0" type="line"/>
      <point x="176.75" y="1556.0" type="line"/>
      <point x="176.75" y="527.625" type="line" smooth="yes"/>
      <point x="176.75" y="166.25"/>
      <point x="347.5" y="-20.0"/>
    </contour>
    <contour>
      <point x="637.625" y="67.75" type="curve" smooth="yes"/>
      <point x="405.0" y="67.75"/>
      <point x="278.0" y="227.25"/>
      <point x="278.0" y="527.375" type="curve" smooth="yes"/>
      <point x="278.0" y="545.0" type="line" smooth="yes"/>
      <point x="278.0" y="849.75"/>
      <point x="387.125" y="1020.75"/>
      <point x="644.5" y="1020.75" type="curve" smooth="yes"/>
      <point x="878.625" y="1020.75"/>
      <point x="994.0" y="860.75"/>
      <point x="994.0" y="547.25" type="curve" smooth="yes"/>
      <point x="994.0" y="240.25"/>
      <point x="876.125" y="67.75"/>
    </contour>
  </outline>
</glyph>
<glyph name="uni0186" format="2">
  <advance width="1270.875"/>
  <unicode hex="0186"/>
  <anchor x="582.125" y="0.0" name="bottom"/>
  <anchor x="582.125" y="1462.0" name="top"/>
  <outline>
    <contour>
      <point x="450.5" y="-20.0" type="curve" smooth="yes"/>
      <point x="900.125" y="-20.0"/>
      <point x="1143.375" y="308.875"/>
      <point x="1143.375" y="754.625" type="curve" smooth="yes"/>
      <point x="1143.375" y="1193.75"/>
      <point x="934.75" y="1483.0"/>
      <point x="491.125" y="1483.0" type="curve" smooth="yes"/>
      <point x="328.375" y="1483.0"/>
      <point x="182.75" y="1448.25"/>
      <point x="73.625" y="1395.75" type="curve"/>
      <point x="113.875" y="1304.75" type="line"/>
      <point x="220.75" y="1358.875"/>
      <point x="353.0" y="1390.375"/>
      <point x="479.0" y="1390.375" type="curve" smooth="yes"/>
      <point x="856.25" y="1390.375"/>
      <point x="1036.25" y="1140.875"/>
      <point x="1036.25" y="755.375" type="curve" smooth="yes"/>
      <point x="1036.25" y="353.125"/>
      <point x="824.5" y="72.25"/>
      <point x="442.125" y="72.25" type="curve" smooth="yes"/>
      <point x="300.75" y="72.25"/>
      <point x="191.625" y="96.625"/>
      <point x="89.125" y="130.875" type="curve"/>
      <point x="89.125" y="39.0" type="line"/>
      <point x="185.875" y="1.7500000000000004"/>
      <point x="293.5" y="-20.0"/>
    </contour>
  </outline>
</glyph>
